<svg width="302" height="58" viewBox="0 0 302 58" fill="none" xmlns="http://www.w3.org/2000/svg">
<path d="M18.8438 19H14.707L12.3867 10C12.3008 9.67969 12.1523 9.01953 11.9414 8.01953C11.7383 7.01172 11.6211 6.33594 11.5898 5.99219C11.543 6.41406 11.4258 7.09375 11.2383 8.03125C11.0508 8.96094 10.9062 9.625 10.8047 10.0234L8.49609 19H4.37109L0 1.86719H3.57422L5.76562 11.2188C6.14844 12.9453 6.42578 14.4414 6.59766 15.707C6.64453 15.2617 6.75 14.5742 6.91406 13.6445C7.08594 12.707 7.24609 11.9805 7.39453 11.4648L9.89062 1.86719H13.3242L15.8203 11.4648C15.9297 11.8945 16.0664 12.5508 16.2305 13.4336C16.3945 14.3164 16.5195 15.0742 16.6055 15.707C16.6836 15.0977 16.8086 14.3398 16.9805 13.4336C17.1523 12.5195 17.3086 11.7812 17.4492 11.2188L19.6289 1.86719H23.2031L18.8438 19ZM30.5039 8.19531C29.7461 8.19531 29.1523 8.4375 28.7227 8.92188C28.293 9.39844 28.0469 10.0781 27.9844 10.9609H33C32.9844 10.0781 32.7539 9.39844 32.3086 8.92188C31.8633 8.4375 31.2617 8.19531 30.5039 8.19531ZM31.0078 19.2344C28.8984 19.2344 27.25 18.6523 26.0625 17.4883C24.875 16.3242 24.2812 14.6758 24.2812 12.543C24.2812 10.3477 24.8281 8.65234 25.9219 7.45703C27.0234 6.25391 28.543 5.65234 30.4805 5.65234C32.332 5.65234 33.7734 6.17969 34.8047 7.23438C35.8359 8.28906 36.3516 9.74609 36.3516 11.6055V13.3398H27.9023C27.9414 14.3555 28.2422 15.1484 28.8047 15.7188C29.3672 16.2891 30.1562 16.5742 31.1719 16.5742C31.9609 16.5742 32.707 16.4922 33.4102 16.3281C34.1133 16.1641 34.8477 15.9023 35.6133 15.543V18.3086C34.9883 18.6211 34.3203 18.8516 33.6094 19C32.8984 19.1562 32.0312 19.2344 31.0078 19.2344ZM42.1406 1.86719L42.3047 2.125C41.9141 3.66406 41.2266 5.53516 40.2422 7.73828H37.6758C38.2148 5.42578 38.6055 3.46875 38.8477 1.86719H42.1406ZM51.7734 5.65234C52.2578 5.65234 52.6602 5.6875 52.9805 5.75781L52.7109 9.10938C52.4219 9.03125 52.0703 8.99219 51.6562 8.99219C50.5156 8.99219 49.625 9.28516 48.9844 9.87109C48.3516 10.457 48.0352 11.2773 48.0352 12.332V19H44.4609V5.89844H47.168L47.6953 8.10156H47.8711C48.2773 7.36719 48.8242 6.77734 49.5117 6.33203C50.207 5.87891 50.9609 5.65234 51.7734 5.65234ZM60.7852 8.19531C60.0273 8.19531 59.4336 8.4375 59.0039 8.92188C58.5742 9.39844 58.3281 10.0781 58.2656 10.9609H63.2812C63.2656 10.0781 63.0352 9.39844 62.5898 8.92188C62.1445 8.4375 61.543 8.19531 60.7852 8.19531ZM61.2891 19.2344C59.1797 19.2344 57.5312 18.6523 56.3438 17.4883C55.1562 16.3242 54.5625 14.6758 54.5625 12.543C54.5625 10.3477 55.1094 8.65234 56.2031 7.45703C57.3047 6.25391 58.8242 5.65234 60.7617 5.65234C62.6133 5.65234 64.0547 6.17969 65.0859 7.23438C66.1172 8.28906 66.6328 9.74609 66.6328 11.6055V13.3398H58.1836C58.2227 14.3555 58.5234 15.1484 59.0859 15.7188C59.6484 16.2891 60.4375 16.5742 61.4531 16.5742C62.2422 16.5742 62.9883 16.4922 63.6914 16.3281C64.3945 16.1641 65.1289 15.9023 65.8945 15.543V18.3086C65.2695 18.6211 64.6016 18.8516 63.8906 19C63.1797 19.1562 62.3125 19.2344 61.2891 19.2344ZM84.9141 15.1094C84.9141 16.4531 84.4453 17.4766 83.5078 18.1797C82.5781 18.8828 81.1836 19.2344 79.3242 19.2344C78.3711 19.2344 77.5586 19.168 76.8867 19.0352C76.2148 18.9102 75.5859 18.7227 75 18.4727V15.5195C75.6641 15.832 76.4102 16.0938 77.2383 16.3047C78.0742 16.5156 78.8086 16.6211 79.4414 16.6211C80.7383 16.6211 81.3867 16.2461 81.3867 15.4961C81.3867 15.2148 81.3008 14.9883 81.1289 14.8164C80.957 14.6367 80.6602 14.4375 80.2383 14.2188C79.8164 13.9922 79.2539 13.7305 78.5508 13.4336C77.543 13.0117 76.8008 12.6211 76.3242 12.2617C75.8555 11.9023 75.5117 11.4922 75.293 11.0312C75.082 10.5625 74.9766 9.98828 74.9766 9.30859C74.9766 8.14453 75.4258 7.24609 76.3242 6.61328C77.2305 5.97266 78.5117 5.65234 80.168 5.65234C81.7461 5.65234 83.2812 5.99609 84.7734 6.68359L83.6953 9.26172C83.0391 8.98047 82.4258 8.75 81.8555 8.57031C81.2852 8.39062 80.7031 8.30078 80.1094 8.30078C79.0547 8.30078 78.5273 8.58594 78.5273 9.15625C78.5273 9.47656 78.6953 9.75391 79.0312 9.98828C79.375 10.2227 80.1211 10.5703 81.2695 11.0312C82.293 11.4453 83.043 11.832 83.5195 12.1914C83.9961 12.5508 84.3477 12.9648 84.5742 13.4336C84.8008 13.9023 84.9141 14.4609 84.9141 15.1094ZM90.5508 12.4258C90.5508 13.7227 90.7617 14.7031 91.1836 15.3672C91.6133 16.0312 92.3086 16.3633 93.2695 16.3633C94.2227 16.3633 94.9062 16.0352 95.3203 15.3789C95.7422 14.7148 95.9531 13.7305 95.9531 12.4258C95.9531 11.1289 95.7422 10.1562 95.3203 9.50781C94.8984 8.85938 94.207 8.53516 93.2461 8.53516C92.293 8.53516 91.6055 8.85938 91.1836 9.50781C90.7617 10.1484 90.5508 11.1211 90.5508 12.4258ZM99.6094 12.4258C99.6094 14.5586 99.0469 16.2266 97.9219 17.4297C96.7969 18.6328 95.2305 19.2344 93.2227 19.2344C91.9648 19.2344 90.8555 18.9609 89.8945 18.4141C88.9336 17.8594 88.1953 17.0664 87.6797 16.0352C87.1641 15.0039 86.9062 13.8008 86.9062 12.4258C86.9062 10.2852 87.4648 8.62109 88.582 7.43359C89.6992 6.24609 91.2695 5.65234 93.293 5.65234C94.5508 5.65234 95.6602 5.92578 96.6211 6.47266C97.582 7.01953 98.3203 7.80469 98.8359 8.82812C99.3516 9.85156 99.6094 11.0508 99.6094 12.4258ZM109.875 5.65234C110.359 5.65234 110.762 5.6875 111.082 5.75781L110.812 9.10938C110.523 9.03125 110.172 8.99219 109.758 8.99219C108.617 8.99219 107.727 9.28516 107.086 9.87109C106.453 10.457 106.137 11.2773 106.137 12.332V19H102.562V5.89844H105.27L105.797 8.10156H105.973C106.379 7.36719 106.926 6.77734 107.613 6.33203C108.309 5.87891 109.062 5.65234 109.875 5.65234ZM120.773 5.65234C121.258 5.65234 121.66 5.6875 121.98 5.75781L121.711 9.10938C121.422 9.03125 121.07 8.99219 120.656 8.99219C119.516 8.99219 118.625 9.28516 117.984 9.87109C117.352 10.457 117.035 11.2773 117.035 12.332V19H113.461V5.89844H116.168L116.695 8.10156H116.871C117.277 7.36719 117.824 6.77734 118.512 6.33203C119.207 5.87891 119.961 5.65234 120.773 5.65234ZM122.484 5.89844H126.398L128.871 13.2695C129.082 13.9102 129.227 14.668 129.305 15.543H129.375C129.461 14.7383 129.629 13.9805 129.879 13.2695L132.305 5.89844H136.137L130.594 20.6758C130.086 22.043 129.359 23.0664 128.414 23.7461C127.477 24.4258 126.379 24.7656 125.121 24.7656C124.504 24.7656 123.898 24.6992 123.305 24.5664V21.7305C123.734 21.832 124.203 21.8828 124.711 21.8828C125.344 21.8828 125.895 21.6875 126.363 21.2969C126.84 20.9141 127.211 20.332 127.477 19.5508L127.688 18.9062L122.484 5.89844ZM143.098 14.0312V11.1016H149.391V14.0312H143.098ZM163.746 16.3867C164.371 16.3867 165.121 16.25 165.996 15.9766V18.6367C165.105 19.0352 164.012 19.2344 162.715 19.2344C161.285 19.2344 160.242 18.875 159.586 18.1562C158.938 17.4297 158.613 16.3438 158.613 14.8984V8.58203H156.902V7.07031L158.871 5.875L159.902 3.10938H162.188V5.89844H165.855V8.58203H162.188V14.8984C162.188 15.4062 162.328 15.7812 162.609 16.0234C162.898 16.2656 163.277 16.3867 163.746 16.3867ZM180.75 19H177.176V11.3477C177.176 9.45703 176.473 8.51172 175.066 8.51172C174.066 8.51172 173.344 8.85156 172.898 9.53125C172.453 10.2109 172.23 11.3125 172.23 12.8359V19H168.656V0.765625H172.23V4.48047C172.23 4.76953 172.203 5.44922 172.148 6.51953L172.066 7.57422H172.254C173.051 6.29297 174.316 5.65234 176.051 5.65234C177.59 5.65234 178.758 6.06641 179.555 6.89453C180.352 7.72266 180.75 8.91016 180.75 10.457V19ZM184.277 2.51172C184.277 1.34766 184.926 0.765625 186.223 0.765625C187.52 0.765625 188.168 1.34766 188.168 2.51172C188.168 3.06641 188.004 3.5 187.676 3.8125C187.355 4.11719 186.871 4.26953 186.223 4.26953C184.926 4.26953 184.277 3.68359 184.277 2.51172ZM188.004 19H184.43V5.89844H188.004V19ZM200.906 15.1094C200.906 16.4531 200.438 17.4766 199.5 18.1797C198.57 18.8828 197.176 19.2344 195.316 19.2344C194.363 19.2344 193.551 19.168 192.879 19.0352C192.207 18.9102 191.578 18.7227 190.992 18.4727V15.5195C191.656 15.832 192.402 16.0938 193.23 16.3047C194.066 16.5156 194.801 16.6211 195.434 16.6211C196.73 16.6211 197.379 16.2461 197.379 15.4961C197.379 15.2148 197.293 14.9883 197.121 14.8164C196.949 14.6367 196.652 14.4375 196.23 14.2188C195.809 13.9922 195.246 13.7305 194.543 13.4336C193.535 13.0117 192.793 12.6211 192.316 12.2617C191.848 11.9023 191.504 11.4922 191.285 11.0312C191.074 10.5625 190.969 9.98828 190.969 9.30859C190.969 8.14453 191.418 7.24609 192.316 6.61328C193.223 5.97266 194.504 5.65234 196.16 5.65234C197.738 5.65234 199.273 5.99609 200.766 6.68359L199.688 9.26172C199.031 8.98047 198.418 8.75 197.848 8.57031C197.277 8.39062 196.695 8.30078 196.102 8.30078C195.047 8.30078 194.52 8.58594 194.52 9.15625C194.52 9.47656 194.688 9.75391 195.023 9.98828C195.367 10.2227 196.113 10.5703 197.262 11.0312C198.285 11.4453 199.035 11.832 199.512 12.1914C199.988 12.5508 200.34 12.9648 200.566 13.4336C200.793 13.9023 200.906 14.4609 200.906 15.1094ZM217.125 19.2344C215.586 19.2344 214.379 18.6758 213.504 17.5586H213.316C213.441 18.6523 213.504 19.2852 213.504 19.457V24.7656H209.93V5.89844H212.836L213.34 7.59766H213.504C214.34 6.30078 215.578 5.65234 217.219 5.65234C218.766 5.65234 219.977 6.25 220.852 7.44531C221.727 8.64062 222.164 10.3008 222.164 12.4258C222.164 13.8242 221.957 15.0391 221.543 16.0703C221.137 17.1016 220.555 17.8867 219.797 18.4258C219.039 18.9648 218.148 19.2344 217.125 19.2344ZM216.07 8.51172C215.188 8.51172 214.543 8.78516 214.137 9.33203C213.73 9.87109 213.52 10.7656 213.504 12.0156V12.4023C213.504 13.8086 213.711 14.8164 214.125 15.4258C214.547 16.0352 215.211 16.3398 216.117 16.3398C217.719 16.3398 218.52 15.0195 218.52 12.3789C218.52 11.0898 218.32 10.125 217.922 9.48438C217.531 8.83594 216.914 8.51172 216.07 8.51172ZM233.438 19L232.746 17.2188H232.652C232.051 17.9766 231.43 18.5039 230.789 18.8008C230.156 19.0898 229.328 19.2344 228.305 19.2344C227.047 19.2344 226.055 18.875 225.328 18.1562C224.609 17.4375 224.25 16.4141 224.25 15.0859C224.25 13.6953 224.734 12.6719 225.703 12.0156C226.68 11.3516 228.148 10.9844 230.109 10.9141L232.383 10.8438V10.2695C232.383 8.94141 231.703 8.27734 230.344 8.27734C229.297 8.27734 228.066 8.59375 226.652 9.22656L225.469 6.8125C226.977 6.02344 228.648 5.62891 230.484 5.62891C232.242 5.62891 233.59 6.01172 234.527 6.77734C235.465 7.54297 235.934 8.70703 235.934 10.2695V19H233.438ZM232.383 12.9297L231 12.9766C229.961 13.0078 229.188 13.1953 228.68 13.5391C228.172 13.8828 227.918 14.4062 227.918 15.1094C227.918 16.1172 228.496 16.6211 229.652 16.6211C230.48 16.6211 231.141 16.3828 231.633 15.9062C232.133 15.4297 232.383 14.7969 232.383 14.0078V12.9297ZM251.027 5.89844V7.71484L248.977 8.24219C249.352 8.82812 249.539 9.48438 249.539 10.2109C249.539 11.6172 249.047 12.7148 248.062 13.5039C247.086 14.2852 245.727 14.6758 243.984 14.6758L243.34 14.6406L242.812 14.582C242.445 14.8633 242.262 15.1758 242.262 15.5195C242.262 16.0352 242.918 16.293 244.23 16.293H246.457C247.895 16.293 248.988 16.6016 249.738 17.2188C250.496 17.8359 250.875 18.7422 250.875 19.9375C250.875 21.4688 250.234 22.6562 248.953 23.5C247.68 24.3438 245.848 24.7656 243.457 24.7656C241.629 24.7656 240.23 24.4453 239.262 23.8047C238.301 23.1719 237.82 22.2812 237.82 21.1328C237.82 20.3438 238.066 19.6836 238.559 19.1523C239.051 18.6211 239.773 18.2422 240.727 18.0156C240.359 17.8594 240.039 17.6055 239.766 17.2539C239.492 16.8945 239.355 16.5156 239.355 16.1172C239.355 15.6172 239.5 15.2031 239.789 14.875C240.078 14.5391 240.496 14.2109 241.043 13.8906C240.355 13.5938 239.809 13.1172 239.402 12.4609C239.004 11.8047 238.805 11.0312 238.805 10.1406C238.805 8.71094 239.27 7.60547 240.199 6.82422C241.129 6.04297 242.457 5.65234 244.184 5.65234C244.551 5.65234 244.984 5.6875 245.484 5.75781C245.992 5.82031 246.316 5.86719 246.457 5.89844H251.027ZM240.914 20.8516C240.914 21.3438 241.148 21.7305 241.617 22.0117C242.094 22.293 242.758 22.4336 243.609 22.4336C244.891 22.4336 245.895 22.2578 246.621 21.9062C247.348 21.5547 247.711 21.0742 247.711 20.4648C247.711 19.9727 247.496 19.6328 247.066 19.4453C246.637 19.2578 245.973 19.1641 245.074 19.1641H243.223C242.566 19.1641 242.016 19.3164 241.57 19.6211C241.133 19.9336 240.914 20.3438 240.914 20.8516ZM242.215 10.1875C242.215 10.8984 242.375 11.4609 242.695 11.875C243.023 12.2891 243.52 12.4961 244.184 12.4961C244.855 12.4961 245.348 12.2891 245.66 11.875C245.973 11.4609 246.129 10.8984 246.129 10.1875C246.129 8.60938 245.48 7.82031 244.184 7.82031C242.871 7.82031 242.215 8.60938 242.215 10.1875ZM258.621 8.19531C257.863 8.19531 257.27 8.4375 256.84 8.92188C256.41 9.39844 256.164 10.0781 256.102 10.9609H261.117C261.102 10.0781 260.871 9.39844 260.426 8.92188C259.98 8.4375 259.379 8.19531 258.621 8.19531ZM259.125 19.2344C257.016 19.2344 255.367 18.6523 254.18 17.4883C252.992 16.3242 252.398 14.6758 252.398 12.543C252.398 10.3477 252.945 8.65234 254.039 7.45703C255.141 6.25391 256.66 5.65234 258.598 5.65234C260.449 5.65234 261.891 6.17969 262.922 7.23438C263.953 8.28906 264.469 9.74609 264.469 11.6055V13.3398H256.02C256.059 14.3555 256.359 15.1484 256.922 15.7188C257.484 16.2891 258.273 16.5742 259.289 16.5742C260.078 16.5742 260.824 16.4922 261.527 16.3281C262.23 16.1641 262.965 15.9023 263.73 15.543V18.3086C263.105 18.6211 262.438 18.8516 261.727 19C261.016 19.1562 260.148 19.2344 259.125 19.2344ZM285.703 19H282.129V11.3477C282.129 10.4023 281.961 9.69531 281.625 9.22656C281.289 8.75 280.754 8.51172 280.02 8.51172C279.02 8.51172 278.297 8.84766 277.852 9.51953C277.406 10.1836 277.184 11.2891 277.184 12.8359V19H273.609V5.89844H276.34L276.82 7.57422H277.02C277.418 6.94141 277.965 6.46484 278.66 6.14453C279.363 5.81641 280.16 5.65234 281.051 5.65234C282.574 5.65234 283.73 6.06641 284.52 6.89453C285.309 7.71484 285.703 8.90234 285.703 10.457V19ZM292.23 12.4258C292.23 13.7227 292.441 14.7031 292.863 15.3672C293.293 16.0312 293.988 16.3633 294.949 16.3633C295.902 16.3633 296.586 16.0352 297 15.3789C297.422 14.7148 297.633 13.7305 297.633 12.4258C297.633 11.1289 297.422 10.1562 297 9.50781C296.578 8.85938 295.887 8.53516 294.926 8.53516C293.973 8.53516 293.285 8.85938 292.863 9.50781C292.441 10.1484 292.23 11.1211 292.23 12.4258ZM301.289 12.4258C301.289 14.5586 300.727 16.2266 299.602 17.4297C298.477 18.6328 296.91 19.2344 294.902 19.2344C293.645 19.2344 292.535 18.9609 291.574 18.4141C290.613 17.8594 289.875 17.0664 289.359 16.0352C288.844 15.0039 288.586 13.8008 288.586 12.4258C288.586 10.2852 289.145 8.62109 290.262 7.43359C291.379 6.24609 292.949 5.65234 294.973 5.65234C296.23 5.65234 297.34 5.92578 298.301 6.47266C299.262 7.01953 300 7.80469 300.516 8.82812C301.031 9.85156 301.289 11.0508 301.289 12.4258ZM5.44922 52H1.875V33.7656H5.44922V52ZM12.0586 45.4258C12.0586 46.7227 12.2695 47.7031 12.6914 48.3672C13.1211 49.0312 13.8164 49.3633 14.7773 49.3633C15.7305 49.3633 16.4141 49.0352 16.8281 48.3789C17.25 47.7148 17.4609 46.7305 17.4609 45.4258C17.4609 44.1289 17.25 43.1562 16.8281 42.5078C16.4062 41.8594 15.7148 41.5352 14.7539 41.5352C13.8008 41.5352 13.1133 41.8594 12.6914 42.5078C12.2695 43.1484 12.0586 44.1211 12.0586 45.4258ZM21.1172 45.4258C21.1172 47.5586 20.5547 49.2266 19.4297 50.4297C18.3047 51.6328 16.7383 52.2344 14.7305 52.2344C13.4727 52.2344 12.3633 51.9609 11.4023 51.4141C10.4414 50.8594 9.70312 50.0664 9.1875 49.0352C8.67188 48.0039 8.41406 46.8008 8.41406 45.4258C8.41406 43.2852 8.97266 41.6211 10.0898 40.4336C11.207 39.2461 12.7773 38.6523 14.8008 38.6523C16.0586 38.6523 17.168 38.9258 18.1289 39.4727C19.0898 40.0195 19.8281 40.8047 20.3438 41.8281C20.8594 42.8516 21.1172 44.0508 21.1172 45.4258ZM36.1641 52H32.5898V44.3477C32.5898 43.4023 32.4219 42.6953 32.0859 42.2266C31.75 41.75 31.2148 41.5117 30.4805 41.5117C29.4805 41.5117 28.7578 41.8477 28.3125 42.5195C27.8672 43.1836 27.6445 44.2891 27.6445 45.8359V52H24.0703V38.8984H26.8008L27.2812 40.5742H27.4805C27.8789 39.9414 28.4258 39.4648 29.1211 39.1445C29.8242 38.8164 30.6211 38.6523 31.5117 38.6523C33.0352 38.6523 34.1914 39.0664 34.9805 39.8945C35.7695 40.7148 36.1641 41.9023 36.1641 43.457V52ZM51.2461 38.8984V40.7148L49.1953 41.2422C49.5703 41.8281 49.7578 42.4844 49.7578 43.2109C49.7578 44.6172 49.2656 45.7148 48.2812 46.5039C47.3047 47.2852 45.9453 47.6758 44.2031 47.6758L43.5586 47.6406L43.0312 47.582C42.6641 47.8633 42.4805 48.1758 42.4805 48.5195C42.4805 49.0352 43.1367 49.293 44.4492 49.293H46.6758C48.1133 49.293 49.207 49.6016 49.957 50.2188C50.7148 50.8359 51.0938 51.7422 51.0938 52.9375C51.0938 54.4688 50.4531 55.6562 49.1719 56.5C47.8984 57.3438 46.0664 57.7656 43.6758 57.7656C41.8477 57.7656 40.4492 57.4453 39.4805 56.8047C38.5195 56.1719 38.0391 55.2812 38.0391 54.1328C38.0391 53.3438 38.2852 52.6836 38.7773 52.1523C39.2695 51.6211 39.9922 51.2422 40.9453 51.0156C40.5781 50.8594 40.2578 50.6055 39.9844 50.2539C39.7109 49.8945 39.5742 49.5156 39.5742 49.1172C39.5742 48.6172 39.7188 48.2031 40.0078 47.875C40.2969 47.5391 40.7148 47.2109 41.2617 46.8906C40.5742 46.5938 40.0273 46.1172 39.6211 45.4609C39.2227 44.8047 39.0234 44.0312 39.0234 43.1406C39.0234 41.7109 39.4883 40.6055 40.418 39.8242C41.3477 39.043 42.6758 38.6523 44.4023 38.6523C44.7695 38.6523 45.2031 38.6875 45.7031 38.7578C46.2109 38.8203 46.5352 38.8672 46.6758 38.8984H51.2461ZM41.1328 53.8516C41.1328 54.3438 41.3672 54.7305 41.8359 55.0117C42.3125 55.293 42.9766 55.4336 43.8281 55.4336C45.1094 55.4336 46.1133 55.2578 46.8398 54.9062C47.5664 54.5547 47.9297 54.0742 47.9297 53.4648C47.9297 52.9727 47.7148 52.6328 47.2852 52.4453C46.8555 52.2578 46.1914 52.1641 45.293 52.1641H43.4414C42.7852 52.1641 42.2344 52.3164 41.7891 52.6211C41.3516 52.9336 41.1328 53.3438 41.1328 53.8516ZM42.4336 43.1875C42.4336 43.8984 42.5938 44.4609 42.9141 44.875C43.2422 45.2891 43.7383 45.4961 44.4023 45.4961C45.0742 45.4961 45.5664 45.2891 45.8789 44.875C46.1914 44.4609 46.3477 43.8984 46.3477 43.1875C46.3477 41.6094 45.6992 40.8203 44.4023 40.8203C43.0898 40.8203 42.4336 41.6094 42.4336 43.1875ZM58.8398 41.1953C58.082 41.1953 57.4883 41.4375 57.0586 41.9219C56.6289 42.3984 56.3828 43.0781 56.3203 43.9609H61.3359C61.3203 43.0781 61.0898 42.3984 60.6445 41.9219C60.1992 41.4375 59.5977 41.1953 58.8398 41.1953ZM59.3438 52.2344C57.2344 52.2344 55.5859 51.6523 54.3984 50.4883C53.2109 49.3242 52.6172 47.6758 52.6172 45.543C52.6172 43.3477 53.1641 41.6523 54.2578 40.457C55.3594 39.2539 56.8789 38.6523 58.8164 38.6523C60.668 38.6523 62.1094 39.1797 63.1406 40.2344C64.1719 41.2891 64.6875 42.7461 64.6875 44.6055V46.3398H56.2383C56.2773 47.3555 56.5781 48.1484 57.1406 48.7188C57.7031 49.2891 58.4922 49.5742 59.5078 49.5742C60.2969 49.5742 61.043 49.4922 61.7461 49.3281C62.4492 49.1641 63.1836 48.9023 63.9492 48.543V51.3086C63.3242 51.6211 62.6562 51.8516 61.9453 52C61.2344 52.1562 60.3672 52.2344 59.3438 52.2344ZM74.9062 38.6523C75.3906 38.6523 75.793 38.6875 76.1133 38.7578L75.8438 42.1094C75.5547 42.0312 75.2031 41.9922 74.7891 41.9922C73.6484 41.9922 72.7578 42.2852 72.1172 42.8711C71.4844 43.457 71.168 44.2773 71.168 45.332V52H67.5938V38.8984H70.3008L70.8281 41.1016H71.0039C71.4102 40.3672 71.957 39.7773 72.6445 39.332C73.3398 38.8789 74.0938 38.6523 74.9062 38.6523ZM90.1523 41.1953C89.3945 41.1953 88.8008 41.4375 88.3711 41.9219C87.9414 42.3984 87.6953 43.0781 87.6328 43.9609H92.6484C92.6328 43.0781 92.4023 42.3984 91.957 41.9219C91.5117 41.4375 90.9102 41.1953 90.1523 41.1953ZM90.6562 52.2344C88.5469 52.2344 86.8984 51.6523 85.7109 50.4883C84.5234 49.3242 83.9297 47.6758 83.9297 45.543C83.9297 43.3477 84.4766 41.6523 85.5703 40.457C86.6719 39.2539 88.1914 38.6523 90.1289 38.6523C91.9805 38.6523 93.4219 39.1797 94.4531 40.2344C95.4844 41.2891 96 42.7461 96 44.6055V46.3398H87.5508C87.5898 47.3555 87.8906 48.1484 88.4531 48.7188C89.0156 49.2891 89.8047 49.5742 90.8203 49.5742C91.6094 49.5742 92.3555 49.4922 93.0586 49.3281C93.7617 49.1641 94.4961 48.9023 95.2617 48.543V51.3086C94.6367 51.6211 93.9688 51.8516 93.2578 52C92.5469 52.1562 91.6797 52.2344 90.6562 52.2344ZM101.59 45.3086L97.3711 38.8984H101.426L103.969 43.0703L106.535 38.8984H110.59L106.324 45.3086L110.789 52H106.723L103.969 47.5117L101.203 52H97.1484L101.59 45.3086ZM112.629 35.5117C112.629 34.3477 113.277 33.7656 114.574 33.7656C115.871 33.7656 116.52 34.3477 116.52 35.5117C116.52 36.0664 116.355 36.5 116.027 36.8125C115.707 37.1172 115.223 37.2695 114.574 37.2695C113.277 37.2695 112.629 36.6836 112.629 35.5117ZM116.355 52H112.781V38.8984H116.355V52ZM129.258 48.1094C129.258 49.4531 128.789 50.4766 127.852 51.1797C126.922 51.8828 125.527 52.2344 123.668 52.2344C122.715 52.2344 121.902 52.168 121.23 52.0352C120.559 51.9102 119.93 51.7227 119.344 51.4727V48.5195C120.008 48.832 120.754 49.0938 121.582 49.3047C122.418 49.5156 123.152 49.6211 123.785 49.6211C125.082 49.6211 125.73 49.2461 125.73 48.4961C125.73 48.2148 125.645 47.9883 125.473 47.8164C125.301 47.6367 125.004 47.4375 124.582 47.2188C124.16 46.9922 123.598 46.7305 122.895 46.4336C121.887 46.0117 121.145 45.6211 120.668 45.2617C120.199 44.9023 119.855 44.4922 119.637 44.0312C119.426 43.5625 119.32 42.9883 119.32 42.3086C119.32 41.1445 119.77 40.2461 120.668 39.6133C121.574 38.9727 122.855 38.6523 124.512 38.6523C126.09 38.6523 127.625 38.9961 129.117 39.6836L128.039 42.2617C127.383 41.9805 126.77 41.75 126.199 41.5703C125.629 41.3906 125.047 41.3008 124.453 41.3008C123.398 41.3008 122.871 41.5859 122.871 42.1562C122.871 42.4766 123.039 42.7539 123.375 42.9883C123.719 43.2227 124.465 43.5703 125.613 44.0312C126.637 44.4453 127.387 44.832 127.863 45.1914C128.34 45.5508 128.691 45.9648 128.918 46.4336C129.145 46.9023 129.258 47.4609 129.258 48.1094ZM137.566 49.3867C138.191 49.3867 138.941 49.25 139.816 48.9766V51.6367C138.926 52.0352 137.832 52.2344 136.535 52.2344C135.105 52.2344 134.062 51.875 133.406 51.1562C132.758 50.4297 132.434 49.3438 132.434 47.8984V41.582H130.723V40.0703L132.691 38.875L133.723 36.1094H136.008V38.8984H139.676V41.582H136.008V47.8984C136.008 48.4062 136.148 48.7812 136.43 49.0234C136.719 49.2656 137.098 49.3867 137.566 49.3867ZM151.617 48.1094C151.617 49.4531 151.148 50.4766 150.211 51.1797C149.281 51.8828 147.887 52.2344 146.027 52.2344C145.074 52.2344 144.262 52.168 143.59 52.0352C142.918 51.9102 142.289 51.7227 141.703 51.4727V48.5195C142.367 48.832 143.113 49.0938 143.941 49.3047C144.777 49.5156 145.512 49.6211 146.145 49.6211C147.441 49.6211 148.09 49.2461 148.09 48.4961C148.09 48.2148 148.004 47.9883 147.832 47.8164C147.66 47.6367 147.363 47.4375 146.941 47.2188C146.52 46.9922 145.957 46.7305 145.254 46.4336C144.246 46.0117 143.504 45.6211 143.027 45.2617C142.559 44.9023 142.215 44.4922 141.996 44.0312C141.785 43.5625 141.68 42.9883 141.68 42.3086C141.68 41.1445 142.129 40.2461 143.027 39.6133C143.934 38.9727 145.215 38.6523 146.871 38.6523C148.449 38.6523 149.984 38.9961 151.477 39.6836L150.398 42.2617C149.742 41.9805 149.129 41.75 148.559 41.5703C147.988 41.3906 147.406 41.3008 146.812 41.3008C145.758 41.3008 145.23 41.5859 145.23 42.1562C145.23 42.4766 145.398 42.7539 145.734 42.9883C146.078 43.2227 146.824 43.5703 147.973 44.0312C148.996 44.4453 149.746 44.832 150.223 45.1914C150.699 45.5508 151.051 45.9648 151.277 46.4336C151.504 46.9023 151.617 47.4609 151.617 48.1094ZM153.902 50.3242C153.902 49.668 154.078 49.1719 154.43 48.8359C154.781 48.5 155.293 48.332 155.965 48.332C156.613 48.332 157.113 48.5039 157.465 48.8477C157.824 49.1914 158.004 49.6836 158.004 50.3242C158.004 50.9414 157.824 51.4297 157.465 51.7891C157.105 52.1406 156.605 52.3164 155.965 52.3164C155.309 52.3164 154.801 52.1445 154.441 51.8008C154.082 51.4492 153.902 50.957 153.902 50.3242Z" fill="#637895"/>
</svg>
