<svg width="50" height="49" viewBox="0 0 50 49" fill="none" xmlns="http://www.w3.org/2000/svg">
<path d="M24.6526 48.7694C37.9074 48.7694 48.6526 38.0242 48.6526 24.7694C48.6526 11.5146 37.9074 0.769409 24.6526 0.769409C11.3978 0.769409 0.652588 11.5146 0.652588 24.7694C0.652588 38.0242 11.3978 48.7694 24.6526 48.7694Z" fill="#0E7C98"/>
<path d="M26.4116 32.8138H22.8466L21.4284 29.1266H14.944L13.6087 32.8138H10.1353L16.4538 16.5898H19.9185L26.4116 32.8138ZM20.3811 26.3949L18.1469 20.3731L15.9563 26.3949H20.3811Z" fill="white"/>
<path d="M33.9899 30.4793V26.264H29.7397V23.3535H33.9899V19.1382H36.8219V23.3535H41.0808V26.264H36.8219V30.4793H33.9899Z" fill="white"/>
</svg>
