<svg width="13" height="14" viewBox="0 0 13 14" fill="none" xmlns="http://www.w3.org/2000/svg">
<path fill-rule="evenodd" clip-rule="evenodd" d="M12.5 7C12.5 7.47339 12.1162 7.85714 11.6429 7.85714H8.35714C7.80486 7.85714 7.35714 8.30486 7.35714 8.85714V12.1429C7.35714 12.6162 6.97339 13 6.5 13C6.02661 13 5.64286 12.6162 5.64286 12.1429V8.85714C5.64286 8.30486 5.19514 7.85714 4.64286 7.85714H1.35714C0.883757 7.85714 0.5 7.47339 0.5 7C0.5 6.52661 0.883756 6.14286 1.35714 6.14286H4.64286C5.19514 6.14286 5.64286 5.69514 5.64286 5.14286V1.85714C5.64286 1.38376 6.02661 1 6.5 1C6.97339 1 7.35714 1.38376 7.35714 1.85714V5.14286C7.35714 5.69514 7.80486 6.14286 8.35714 6.14286H11.6429C12.1162 6.14286 12.5 6.52661 12.5 7Z" fill="white" stroke="white"/>
</svg>
