<svg width="49" height="31" viewBox="0 0 49 31" fill="none" xmlns="http://www.w3.org/2000/svg">
<g clip-path="url(#clip0)">
<path d="M3.90983 2.29641C3.06422 2.29641 2.37872 2.96664 2.37872 3.79341V27.2066C2.37872 28.0334 3.06422 28.7036 3.90983 28.7036H44.9436C45.7892 28.7036 46.4747 28.0334 46.4747 27.2066V3.79341C46.4747 2.96664 45.7892 2.29641 44.9436 2.29641H3.90983ZM3.90983 0.5H44.9436C46.804 0.5 48.3121 1.97451 48.3121 3.79341V27.2066C48.3121 29.0255 46.804 30.5 44.9436 30.5H3.90983C2.04949 30.5 0.541382 29.0255 0.541382 27.2066V3.79341C0.541382 1.97451 2.04949 0.5 3.90983 0.5Z" fill="white"/>
<path d="M2.32499 14.7125H4.44804L4.92674 13.5627H5.99846L6.47591 14.7125H10.6532V13.8335L11.026 14.7163H13.1946L13.5674 13.8204V14.7125H23.9488L23.9439 12.8251H24.1448C24.2854 12.83 24.3265 12.8429 24.3265 13.0742V14.7125H29.6957V14.2732C30.1288 14.5042 30.8024 14.7125 31.6888 14.7125H33.9476L34.4311 13.5627H35.5028L35.9755 14.7125H40.3284V13.6203L40.9876 14.7125H44.4757V7.49268H41.0237V8.34535L40.5402 7.49268H36.998V8.34535L36.5541 7.49268H31.7694C30.9685 7.49268 30.2644 7.604 29.6957 7.91425V7.49268H26.3939V7.91425C26.032 7.59448 25.5389 7.49268 24.9905 7.49268H12.9275L12.1182 9.35744L11.287 7.49268H7.48742V8.34535L7.07002 7.49268H3.82962L2.32483 10.9254V14.7125H2.32499ZM15.7264 13.6711H14.4526L14.4479 9.61682L12.6461 13.6711H11.5551L9.74861 9.61323V13.6711H7.22133L6.74388 12.5165H4.15671L3.67439 13.6711H2.32483L4.54996 8.4945H6.3961L8.50943 13.3957V8.4945H10.5375L12.1636 12.0062L13.6574 8.4945H15.7262V13.6711H15.7264ZM6.31922 11.4421L5.46874 9.37846L4.62313 11.4421H6.31922ZM20.7959 13.6711H16.645V8.4945H20.7959V9.57248H17.8876V10.5056H20.7262V11.5667H17.8876V12.6005H20.7959V13.6711ZM26.6455 9.88866C26.6455 10.714 26.0923 11.1404 25.7699 11.2685C26.0418 11.3715 26.274 11.5536 26.3846 11.7044C26.56 11.9619 26.5903 12.1919 26.5903 12.6542V13.6711H25.337L25.3323 13.0183C25.3323 12.7068 25.3622 12.2588 25.1361 12.0098C24.9546 11.8277 24.6778 11.7882 24.2305 11.7882H22.8966V13.6711H21.6541V8.4945H24.5121C25.1471 8.4945 25.615 8.51121 26.0167 8.74245C26.4098 8.97369 26.6455 9.31126 26.6455 9.88866ZM25.0747 10.6573C24.904 10.7606 24.702 10.764 24.4601 10.764H22.9506V9.61418H24.4806C24.6972 9.61418 24.9231 9.62386 25.0699 9.70755C25.2311 9.78297 25.3308 9.94348 25.3308 10.1652C25.3308 10.3914 25.2359 10.5735 25.0747 10.6573ZM28.6383 13.6711H27.3704V8.4945H28.6383V13.6711ZM43.3564 13.6711H41.5956L39.2403 9.78577V13.6711H36.7098L36.2262 12.5165H33.645L33.1758 13.6711H31.7218C31.1178 13.6711 30.3531 13.5381 29.9201 13.0986C29.4834 12.659 29.2562 12.0637 29.2562 11.1223C29.2562 10.3546 29.392 9.65274 29.926 9.09813C30.3277 8.68499 30.9568 8.4945 31.8131 8.4945H33.0161V9.60371H31.8383C31.3849 9.60371 31.1288 9.67085 30.8822 9.91037C30.6703 10.1283 30.525 10.5404 30.525 11.083C30.525 11.6376 30.6357 12.0374 30.8667 12.2987C31.058 12.5035 31.4056 12.5657 31.7327 12.5657H32.2907L34.042 8.49466H35.9038L38.0076 13.391V8.49466H39.8995L42.0837 12.0999V8.49466H43.3564V13.6711ZM35.8036 11.4421L34.9437 9.37846L34.0885 11.4421H35.8036Z" fill="white"/>
<path d="M46.5228 21.9368C46.221 22.3763 45.6328 22.5992 44.8366 22.5992H42.4369V21.4889H44.8269C45.0639 21.4889 45.2298 21.4578 45.3297 21.3607C45.4163 21.2806 45.4766 21.1642 45.4766 21.0229C45.4766 20.8721 45.4163 20.7523 45.3249 20.6805C45.2347 20.6015 45.1035 20.5656 44.8871 20.5656C43.7203 20.5261 42.2648 20.6015 42.2648 18.963C42.2648 18.212 42.7436 17.4214 44.0476 17.4214H46.5226L46.5228 16.3912H44.223C43.529 16.3912 43.0249 16.5567 42.6679 16.8141V16.3912H39.2665C38.7225 16.3912 38.0841 16.5255 37.7821 16.8141V16.3912H31.708V16.8141C31.2246 16.4668 30.4089 16.3912 30.0325 16.3912H26.0259V16.8141C25.6435 16.4453 24.793 16.3912 24.2747 16.3912H19.7907L18.7646 17.497L17.8036 16.3912H11.1055V23.6161H17.6775L18.7348 22.4928L19.7308 23.6161L23.7818 23.6197V21.9201H24.1801C24.7176 21.9284 25.3516 21.9068 25.9109 21.6661V23.6159H29.2522V21.7329H29.4134C29.6191 21.7329 29.6394 21.7413 29.6394 21.946V23.6158H39.7899C40.4343 23.6158 41.1079 23.4515 41.4809 23.1535V23.6158H44.7006C45.3706 23.6158 46.025 23.5223 46.5228 23.2827V21.9368ZM26.3966 19.1578C26.3966 20.5962 25.3189 20.8931 24.2328 20.8931H22.6824V22.6299H20.2672L18.7372 20.9158L17.1471 22.6299H12.2252V17.452H17.2228L18.7516 19.1492L20.3321 17.452H24.3026C25.2887 17.452 26.3966 17.7238 26.3966 19.1578ZM16.5178 21.5407H13.4627V20.5105H16.1907V19.4541H13.4627V18.5127H16.578L17.9371 20.0217L16.5178 21.5407ZM21.4403 22.1336L19.5326 20.0245L21.4403 17.9824V22.1336ZM24.2617 19.8313H22.6559V18.5127H24.2761C24.7247 18.5127 25.0361 18.6948 25.0361 19.1476C25.0361 19.5954 24.7391 19.8313 24.2617 19.8313ZM32.6741 17.452H36.8213V18.5228H33.9116V19.4641H36.7502V20.5206H33.9116V21.5508L36.8213 21.5555V22.6299H32.6741V17.452ZM31.0798 20.2236C31.3563 20.3253 31.5824 20.5075 31.6884 20.6583C31.8639 20.9111 31.8893 21.147 31.8943 21.6034V22.6299H30.6468V21.982C30.6468 21.6705 30.6769 21.2093 30.446 20.9685C30.2644 20.7831 29.9877 20.7387 29.5343 20.7387H28.2064V22.6299H26.9578V17.452H29.8266C30.4557 17.452 30.9139 17.4796 31.3217 17.6963C31.7138 17.9323 31.9605 18.2555 31.9605 18.8462C31.9603 19.6726 31.4068 20.0943 31.0798 20.2236ZM30.3774 19.569C30.2112 19.6672 30.0056 19.6757 29.7638 19.6757H28.2543V18.5127H29.7844C30.0056 18.5127 30.227 18.5174 30.3774 18.6063C30.5384 18.6901 30.6347 18.8505 30.6347 19.072C30.6347 19.2936 30.5384 19.4721 30.3774 19.569ZM41.5947 19.8988C41.8366 20.1482 41.9663 20.463 41.9663 20.9959C41.9663 22.1098 41.2674 22.6297 40.0143 22.6297H37.5941V21.5194H40.0046C40.2402 21.5194 40.4074 21.4883 40.5121 21.3912C40.5976 21.3111 40.6589 21.1948 40.6589 21.0535C40.6589 20.9027 40.5926 20.7829 40.5073 20.7111C40.4123 20.6321 40.2812 20.5962 40.0648 20.5962C38.9028 20.5567 37.4475 20.6321 37.4475 18.9935C37.4475 18.2425 37.9214 17.452 39.224 17.452H41.7151V18.554H39.4357C39.2098 18.554 39.0628 18.5624 38.9379 18.6475C38.8018 18.7314 38.7513 18.8558 38.7513 19.0201C38.7513 19.2154 38.8668 19.3483 39.0232 19.4058C39.1543 19.4512 39.2951 19.4645 39.5067 19.4645L40.1756 19.4824C40.8502 19.4988 41.3132 19.615 41.5947 19.8988ZM46.5254 18.5127H44.2607C44.0346 18.5127 43.8844 18.5212 43.7579 18.6063C43.6268 18.6901 43.5763 18.8146 43.5763 18.9788C43.5763 19.1741 43.687 19.307 43.848 19.3645C43.9791 19.4099 44.1199 19.4232 44.3269 19.4232L45.0003 19.4411C45.6799 19.4579 46.1335 19.5742 46.4101 19.8579C46.4605 19.8974 46.4907 19.9417 46.5254 19.9861V18.5127Z" fill="white"/>
</g>
<defs>
<clipPath id="clip0">
<rect width="47.7707" height="30" fill="white" transform="translate(0.541382 0.5)"/>
</clipPath>
</defs>
</svg>
