<svg width="143" height="49" viewBox="0 0 143 49" fill="none" xmlns="http://www.w3.org/2000/svg">
<rect x="0.482788" y="0.5" width="141.6" height="48" rx="7" fill="#0E7C98"/>
<path d="M67.2441 21.5L66.8926 20.1621H64.5732L64.2119 21.5H62.0928L64.4219 14.332H66.9951L69.3535 21.5H67.2441ZM66.4922 18.5801L66.1845 17.4082C66.1129 17.1478 66.025 16.8109 65.9209 16.3975C65.82 15.984 65.7532 15.6878 65.7207 15.5088C65.6914 15.6748 65.6328 15.9482 65.5449 16.3291C65.4603 16.71 65.2698 17.4603 64.9736 18.5801H66.4922ZM73.6086 15.8408C73.1496 15.8408 72.7915 16.0296 72.5344 16.4072C72.2772 16.7816 72.1486 17.2992 72.1486 17.96C72.1486 19.3337 72.6711 20.0205 73.716 20.0205C74.0317 20.0205 74.3377 19.9766 74.634 19.8887C74.9302 19.8008 75.228 19.695 75.5275 19.5713V21.2021C74.9318 21.4658 74.258 21.5977 73.506 21.5977C72.4286 21.5977 71.6017 21.2852 71.0256 20.6602C70.4526 20.0352 70.1662 19.1318 70.1662 17.9502C70.1662 17.2113 70.3045 16.5618 70.5812 16.002C70.8612 15.4421 71.2616 15.0124 71.7824 14.7129C72.3065 14.4102 72.9217 14.2588 73.6281 14.2588C74.3996 14.2588 75.1369 14.4264 75.84 14.7617L75.2492 16.2803C74.9855 16.1566 74.7219 16.0524 74.4582 15.9678C74.1945 15.8831 73.9113 15.8408 73.6086 15.8408ZM80.4027 15.8408C79.9437 15.8408 79.5857 16.0296 79.3285 16.4072C79.0713 16.7816 78.9428 17.2992 78.9428 17.96C78.9428 19.3337 79.4652 20.0205 80.5101 20.0205C80.8259 20.0205 81.1319 19.9766 81.4281 19.8887C81.7243 19.8008 82.0222 19.695 82.3217 19.5713V21.2021C81.726 21.4658 81.0521 21.5977 80.3002 21.5977C79.2227 21.5977 78.3959 21.2852 77.8197 20.6602C77.2468 20.0352 76.9603 19.1318 76.9603 17.9502C76.9603 17.2113 77.0987 16.5618 77.3754 16.002C77.6553 15.4421 78.0557 15.0124 78.5765 14.7129C79.1006 14.4102 79.7159 14.2588 80.4222 14.2588C81.1937 14.2588 81.931 14.4264 82.6342 14.7617L82.0433 16.2803C81.7797 16.1566 81.516 16.0524 81.2523 15.9678C80.9886 15.8831 80.7054 15.8408 80.4027 15.8408ZM85.9469 18.9023V21.5H84.0181V14.3613H86.357C88.2971 14.3613 89.2672 15.0645 89.2672 16.4707C89.2672 17.2975 88.8635 17.9372 88.0562 18.3896L90.1363 21.5H87.9488L86.4351 18.9023H85.9469ZM85.9469 17.4521H86.3082C86.982 17.4521 87.3189 17.1543 87.3189 16.5586C87.3189 16.0671 86.9885 15.8213 86.3277 15.8213H85.9469V17.4521ZM95.324 21.5H91.0857V14.3613H95.324V15.9092H93.0144V17.0322H95.1531V18.5801H93.0144V19.9277H95.324V21.5ZM102.934 17.7793C102.934 18.9707 102.605 19.8887 101.947 20.5332C101.293 21.1777 100.372 21.5 99.1836 21.5H96.874V14.3613H99.3447C100.491 14.3613 101.374 14.6543 101.996 15.2402C102.621 15.8262 102.934 16.6725 102.934 17.7793ZM100.932 17.8477C100.932 17.1934 100.801 16.7083 100.541 16.3926C100.284 16.0768 99.8916 15.9189 99.3642 15.9189H98.8027V19.918H99.2324C99.8183 19.918 100.248 19.7487 100.521 19.4102C100.795 19.0684 100.932 18.5475 100.932 17.8477ZM104.518 21.5V14.3613H106.456V21.5H104.518ZM111.453 21.5H109.525V15.9385H107.782V14.3613H113.192V15.9385H111.453V21.5ZM118.751 21.5H114.512V14.3613H118.751V15.9092H116.441V17.0322H118.58V18.5801H116.441V19.9277H118.751V21.5ZM126.36 17.7793C126.36 18.9707 126.031 19.8887 125.374 20.5332C124.72 21.1777 123.798 21.5 122.61 21.5H120.301V14.3613H122.771C123.917 14.3613 124.801 14.6543 125.423 15.2402C126.048 15.8262 126.36 16.6725 126.36 17.7793ZM124.358 17.8477C124.358 17.1934 124.228 16.7083 123.968 16.3926C123.71 16.0768 123.318 15.9189 122.791 15.9189H122.229V19.918H122.659C123.245 19.918 123.675 19.7487 123.948 19.4102C124.221 19.0684 124.358 18.5475 124.358 17.8477ZM69.7365 28.3613H72.2267C73.1968 28.3613 73.9162 28.5062 74.3849 28.7959C74.8569 29.0824 75.0929 29.5299 75.0929 30.1387C75.0929 30.5391 74.9904 30.8809 74.7853 31.1641C74.5802 31.4473 74.3101 31.6296 73.9748 31.7109V31.7598C74.4175 31.877 74.7381 32.0723 74.9367 32.3457C75.1353 32.6191 75.2345 32.974 75.2345 33.4102C75.2345 34.0579 74.9904 34.569 74.5021 34.9434C74.0171 35.3145 73.3547 35.5 72.5148 35.5H69.7365V28.3613ZM71.6652 31.1006H72.2463C72.523 31.1006 72.7362 31.0436 72.8859 30.9297C73.0389 30.8158 73.1154 30.6465 73.1154 30.4219C73.1154 30.0215 72.8127 29.8213 72.2072 29.8213H71.6652V31.1006ZM71.6652 32.5117V34.0107H72.3439C72.9461 34.0107 73.2472 33.7568 73.2472 33.249C73.2472 33.0114 73.1659 32.8291 73.0031 32.7021C72.8436 32.5752 72.6108 32.5117 72.3049 32.5117H71.6652ZM82.8441 28.3613V32.6582C82.8441 33.5924 82.5788 34.3167 82.0482 34.8311C81.5209 35.3421 80.7592 35.5977 79.7631 35.5977C78.7898 35.5977 78.0411 35.3486 77.517 34.8506C76.9961 34.3525 76.7357 33.6364 76.7357 32.7021V28.3613H78.6742V32.5508C78.6742 33.0553 78.7686 33.4215 78.9574 33.6494C79.1462 33.8773 79.4245 33.9912 79.7924 33.9912C80.1862 33.9912 80.4711 33.8789 80.6469 33.6543C80.8259 33.4264 80.9154 33.0553 80.9154 32.541V28.3613H82.8441ZM89.3111 33.332C89.3111 33.7747 89.1988 34.1686 88.9742 34.5137C88.7496 34.8555 88.4257 35.1224 88.0025 35.3145C87.5793 35.5033 87.0829 35.5977 86.5133 35.5977C86.038 35.5977 85.6392 35.5651 85.317 35.5C84.9947 35.4316 84.6594 35.3145 84.3111 35.1484V33.4297C84.6789 33.6185 85.0614 33.7666 85.4586 33.874C85.8557 33.9782 86.2203 34.0303 86.5523 34.0303C86.8388 34.0303 87.0487 33.9814 87.1822 33.8838C87.3157 33.7829 87.3824 33.6543 87.3824 33.498C87.3824 33.4004 87.3547 33.3158 87.2994 33.2441C87.2473 33.1693 87.161 33.0944 87.0406 33.0195C86.9234 32.9447 86.6077 32.7917 86.0933 32.5605C85.6278 32.349 85.2779 32.1439 85.0435 31.9453C84.8124 31.7467 84.6399 31.5189 84.526 31.2617C84.4153 31.0046 84.3599 30.7002 84.3599 30.3486C84.3599 29.6911 84.5992 29.1784 85.0777 28.8105C85.5562 28.4427 86.2138 28.2588 87.0504 28.2588C87.7893 28.2588 88.5429 28.4297 89.3111 28.7715L88.7203 30.2607C88.053 29.9548 87.4768 29.8018 86.9918 29.8018C86.7411 29.8018 86.5588 29.8457 86.4449 29.9336C86.331 30.0215 86.274 30.1305 86.274 30.2607C86.274 30.4007 86.3456 30.526 86.4888 30.6367C86.6353 30.7474 87.0292 30.9492 87.6705 31.2422C88.2857 31.5189 88.7122 31.8167 88.9498 32.1357C89.1907 32.4515 89.3111 32.8503 89.3111 33.332ZM90.7146 35.5V28.3613H92.6531V35.5H90.7146ZM101.298 35.5H98.7685L96.1611 30.4707H96.1172C96.179 31.2617 96.2099 31.8656 96.2099 32.2822V35.5H94.501V28.3613H97.0205L99.6181 33.3223H99.6474C99.6019 32.6029 99.5791 32.0251 99.5791 31.5889V28.3613H101.298V35.5ZM107.379 35.5H103.141V28.3613H107.379V29.9092H105.07V31.0322H107.208V32.5801H105.07V33.9277H107.379V35.5ZM113.597 33.332C113.597 33.7747 113.485 34.1686 113.26 34.5137C113.036 34.8555 112.712 35.1224 112.288 35.3145C111.865 35.5033 111.369 35.5977 110.799 35.5977C110.324 35.5977 109.925 35.5651 109.603 35.5C109.281 35.4316 108.945 35.3145 108.597 35.1484V33.4297C108.965 33.6185 109.347 33.7666 109.745 33.874C110.142 33.9782 110.506 34.0303 110.838 34.0303C111.125 34.0303 111.335 33.9814 111.468 33.8838C111.602 33.7829 111.668 33.6543 111.668 33.498C111.668 33.4004 111.641 33.3158 111.585 33.2441C111.533 33.1693 111.447 33.0944 111.327 33.0195C111.209 32.9447 110.894 32.7917 110.379 32.5605C109.914 32.349 109.564 32.1439 109.329 31.9453C109.098 31.7467 108.926 31.5189 108.812 31.2617C108.701 31.0046 108.646 30.7002 108.646 30.3486C108.646 29.6911 108.885 29.1784 109.364 28.8105C109.842 28.4427 110.5 28.2588 111.336 28.2588C112.075 28.2588 112.829 28.4297 113.597 28.7715L113.006 30.2607C112.339 29.9548 111.763 29.8018 111.278 29.8018C111.027 29.8018 110.845 29.8457 110.731 29.9336C110.617 30.0215 110.56 30.1305 110.56 30.2607C110.56 30.4007 110.632 30.526 110.775 30.6367C110.921 30.7474 111.315 30.9492 111.956 31.2422C112.572 31.5189 112.998 31.8167 113.236 32.1357C113.477 32.4515 113.597 32.8503 113.597 33.332ZM119.669 33.332C119.669 33.7747 119.556 34.1686 119.332 34.5137C119.107 34.8555 118.783 35.1224 118.36 35.3145C117.937 35.5033 117.44 35.5977 116.871 35.5977C116.395 35.5977 115.997 35.5651 115.674 35.5C115.352 35.4316 115.017 35.3145 114.669 35.1484V33.4297C115.036 33.6185 115.419 33.7666 115.816 33.874C116.213 33.9782 116.578 34.0303 116.91 34.0303C117.196 34.0303 117.406 33.9814 117.54 33.8838C117.673 33.7829 117.74 33.6543 117.74 33.498C117.74 33.4004 117.712 33.3158 117.657 33.2441C117.605 33.1693 117.518 33.0944 117.398 33.0195C117.281 32.9447 116.965 32.7917 116.451 32.5605C115.985 32.349 115.635 32.1439 115.401 31.9453C115.17 31.7467 114.997 31.5189 114.883 31.2617C114.773 31.0046 114.717 30.7002 114.717 30.3486C114.717 29.6911 114.957 29.1784 115.435 28.8105C115.914 28.4427 116.571 28.2588 117.408 28.2588C118.147 28.2588 118.9 28.4297 119.669 28.7715L119.078 30.2607C118.41 29.9548 117.834 29.8018 117.349 29.8018C117.099 29.8018 116.916 29.8457 116.802 29.9336C116.688 30.0215 116.631 30.1305 116.631 30.2607C116.631 30.4007 116.703 30.526 116.846 30.6367C116.993 30.7474 117.387 30.9492 118.028 31.2422C118.643 31.5189 119.07 31.8167 119.307 32.1357C119.548 32.4515 119.669 32.8503 119.669 33.332Z" fill="white"/>
<path fill-rule="evenodd" clip-rule="evenodd" d="M49.3905 5.5C49.3905 2.73858 47.1519 0.5 44.3905 0.5H7.1359C3.46145 0.5 0.482788 3.47559 0.482788 7.14626V41.8537C0.482788 45.5244 3.46145 48.5 7.1359 48.5H44.3905C47.1519 48.5 49.3905 46.2614 49.3905 43.5V5.5Z" fill="white"/>
<path fill-rule="evenodd" clip-rule="evenodd" d="M20.7255 15.4243L18.6481 18.2841C17.6077 19.7172 17.9291 22.2559 19.3505 23.282L23.2039 26.059C23.8665 26.5356 23.9162 27.0089 23.6048 27.512L24.1647 27.9258L26.1163 25.2282C27.3223 23.56 27.2163 21.2894 25.4304 19.992L21.5472 17.1653C21.0834 16.8277 21.0337 16.3544 21.2921 15.8248L20.7255 15.4243Z" fill="#0E7C98"/>
<path fill-rule="evenodd" clip-rule="evenodd" d="M24.0592 2.78381L20.8254 7.25216C19.3079 9.34732 19.8612 12.9286 21.932 14.4479L27.2499 18.3469C28.3267 19.138 28.4692 21.1504 27.6839 22.1831L28.1345 22.5207L31.8023 17.3639C33.4491 15.047 33.353 11.6278 30.7686 9.75113L25.0796 5.62701C24.2845 5.04778 23.8869 4.06805 24.5495 3.13135L24.0592 2.78381Z" fill="#0E7C98"/>
<path fill-rule="evenodd" clip-rule="evenodd" d="M15.5339 30.8153H19.8214L20.5867 33.4103C22.9226 33.4103 25.2585 33.4103 27.591 33.4103L28.3564 30.8153H32.6438L32.0806 28.9055C26.7528 28.9055 21.425 28.9055 16.0972 28.9055L15.5339 30.8153Z" fill="#0E7C98"/>
<path fill-rule="evenodd" clip-rule="evenodd" d="M37.6734 44.1375C37.6734 44.0978 37.6668 44.0647 37.6568 44.0316C37.6469 44.0018 37.6303 43.972 37.6038 43.9489C37.5806 43.9224 37.5475 43.8992 37.5077 43.8794C37.468 43.8595 37.4183 43.8363 37.3553 43.8165C37.299 43.7966 37.2559 43.7801 37.2228 43.7635C37.1897 43.747 37.1632 43.7304 37.1433 43.7139C37.1234 43.6973 37.1135 43.6808 37.1068 43.6609C37.1002 43.6444 37.0969 43.6245 37.0969 43.6013C37.0969 43.5815 37.1002 43.5616 37.1101 43.5417C37.1168 43.5219 37.13 43.5053 37.1466 43.4921C37.1632 43.4789 37.1863 43.4656 37.2129 43.459C37.2394 43.4491 37.2725 43.4458 37.3089 43.4458C37.3653 43.4458 37.4117 43.4524 37.4514 43.4722C37.4912 43.4921 37.5309 43.512 37.5707 43.5451L37.6502 43.4524C37.6038 43.416 37.5541 43.3895 37.5044 43.3696C37.4514 43.3498 37.3918 43.3398 37.3189 43.3398C37.2692 43.3398 37.2228 43.3465 37.1797 43.3564C37.1366 43.3696 37.1002 43.3862 37.0704 43.4094C37.0406 43.4325 37.0174 43.4623 37.0008 43.4954C36.9842 43.5285 36.9743 43.5649 36.9743 43.6079C36.9743 43.6477 36.9809 43.6808 36.9909 43.7106C37.0008 43.7403 37.0207 43.7668 37.0439 43.79C37.0671 43.8132 37.1002 43.8363 37.14 43.8562C37.1797 43.8761 37.2294 43.8992 37.2891 43.9191C37.3388 43.9356 37.3818 43.9522 37.415 43.9687C37.4481 43.9853 37.4746 44.0018 37.4945 44.0184C37.5144 44.0349 37.5276 44.0548 37.5376 44.0746C37.5475 44.0945 37.5508 44.1177 37.5508 44.1408C37.5508 44.1971 37.5309 44.2434 37.4879 44.2732C37.4448 44.3063 37.3885 44.3229 37.3156 44.3229C37.2592 44.3229 37.2062 44.3096 37.1598 44.2865C37.1101 44.2633 37.0671 44.2335 37.024 44.1938L36.9412 44.2832C36.9842 44.3262 37.0372 44.3626 37.1002 44.3891C37.1632 44.4156 37.2327 44.4321 37.3089 44.4321C37.3653 44.4321 37.4183 44.4255 37.4614 44.4089C37.5044 44.3957 37.5442 44.3725 37.574 44.3461C37.6038 44.3196 37.6303 44.2898 37.6436 44.2534C37.6668 44.217 37.6734 44.1772 37.6734 44.1375Z" fill="#006697"/>
<path fill-rule="evenodd" clip-rule="evenodd" d="M38.8062 44.4156V43.3531H38.6737L38.4119 43.9886C38.4053 44.0019 38.3987 44.0217 38.3921 44.0416C38.3854 44.0615 38.3755 44.0813 38.3689 44.0979C38.3622 44.1177 38.3556 44.1343 38.349 44.1541C38.3423 44.1707 38.339 44.1839 38.3357 44.1972C38.3324 44.1872 38.3291 44.1707 38.3225 44.1541C38.3158 44.1376 38.3092 44.121 38.3026 44.1012C38.296 44.0813 38.286 44.0615 38.2794 44.0449C38.2728 44.0251 38.2661 44.0085 38.2595 43.992L38.0011 43.3565H37.8652V44.4189H37.9812V43.7007V43.5881C37.9845 43.5981 37.9878 43.6113 37.9945 43.6246C37.9978 43.6378 38.0044 43.6543 38.011 43.6709C38.0176 43.6874 38.0243 43.704 38.0276 43.7205C38.0342 43.7371 38.0408 43.7536 38.0475 43.7669L38.3357 44.452L38.6273 43.7669C38.6339 43.7536 38.6405 43.7371 38.6472 43.7205C38.6538 43.704 38.6604 43.6874 38.6671 43.6742C38.6737 43.6577 38.6803 43.6444 38.6836 43.6279C38.6869 43.6146 38.6936 43.6014 38.6969 43.5915V43.704V44.4222H38.8062V44.4156Z" fill="#006697"/>
<path fill-rule="evenodd" clip-rule="evenodd" d="M19.2183 41.4699C19.0361 40.2353 18.5391 39.9407 17.5418 39.5005C18.2939 39.0603 18.7578 38.4115 18.7578 37.5245C18.7578 35.7504 17.3032 35.0288 15.7162 35.0288H11.283V44.4454H15.6731C17.5517 44.4454 19.5397 43.6246 19.2183 41.4699ZM13.2908 36.8294H15.5936C17.0315 36.8294 17.0846 38.8385 15.683 38.8385H13.2908V36.8294ZM15.8586 42.6647H13.2908V40.5166H15.8586C17.7472 40.5166 17.6313 42.6647 15.8586 42.6647Z" fill="#0E7C98"/>
<path fill-rule="evenodd" clip-rule="evenodd" d="M28.0214 41.4699C27.8392 40.2353 27.3389 39.9407 26.3449 39.5005C27.097 39.0603 27.5609 38.4115 27.5609 37.5245C27.5609 35.7504 26.1063 35.0288 24.5193 35.0288H20.0861V44.4454H24.4762C26.3515 44.4454 28.3395 43.6246 28.0214 41.4699ZM22.0906 36.8294H24.3934C25.8313 36.8294 25.8843 38.8385 24.4828 38.8385H22.0906V36.8294ZM24.6584 42.6647H22.0906V40.5166H24.6584C26.547 40.5166 26.4344 42.6647 24.6584 42.6647Z" fill="#0E7C98"/>
<path fill-rule="evenodd" clip-rule="evenodd" d="M36.8216 41.4699C36.6394 40.2353 36.1424 39.9407 35.1451 39.5005C35.8972 39.0603 36.361 38.4115 36.361 37.5245C36.361 35.7504 34.9065 35.0288 33.3194 35.0288H28.8862V44.4454H33.2764C35.155 44.4454 37.143 43.6246 36.8216 41.4699ZM30.8908 36.8294H33.1935C34.6315 36.8294 34.6845 38.8385 33.283 38.8385H30.8908V36.8294ZM33.4619 42.6647H30.8941V40.5166H33.4619C35.3505 40.5166 35.2345 42.6647 33.4619 42.6647Z" fill="#0E7C98"/>
</svg>
