<svg width="30" height="28" viewBox="0 0 30 28" fill="none" xmlns="http://www.w3.org/2000/svg">
<path d="M27.5063 16.3343L29.9684 5.50099C30.1462 4.7188 29.5516 3.97396 28.7495 3.97396H8.29208L7.81469 1.6401C7.69573 1.05839 7.18386 0.640625 6.59005 0.640625H1.25C0.559636 0.640625 0 1.20026 0 1.89063V2.72396C0 3.41432 0.559636 3.97396 1.25 3.97396H4.88974L8.54849 21.8612C7.67318 22.3646 7.08333 23.3084 7.08333 24.3906C7.08333 26.0015 8.38917 27.3073 10 27.3073C11.6108 27.3073 12.9167 26.0015 12.9167 24.3906C12.9167 23.5743 12.5809 22.8367 12.0404 22.3073H22.9595C22.4191 22.8367 22.0833 23.5743 22.0833 24.3906C22.0833 26.0015 23.3892 27.3073 25 27.3073C26.6108 27.3073 27.9167 26.0015 27.9167 24.3906C27.9167 23.2358 27.2454 22.2379 26.2719 21.7654L26.5593 20.501C26.737 19.7188 26.1425 18.974 25.3404 18.974H11.3603L11.0194 17.3073H26.2873C26.871 17.3073 27.3769 16.9034 27.5063 16.3343Z" fill="#425160"/>
</svg>
