<svg width="11" height="10" viewBox="0 0 11 10" fill="none" xmlns="http://www.w3.org/2000/svg">
<path fill-rule="evenodd" clip-rule="evenodd" d="M5.50037 5.94296L1.97162 9.47171C1.93802 9.50308 1.90439 9.53248 1.86585 9.55775C1.78965 9.60775 1.70328 9.64178 1.61347 9.65729C1.57357 9.66415 1.5633 9.66382 1.52297 9.66659C1.50777 9.66659 1.4926 9.66659 1.47743 9.66659C1.4371 9.66382 1.42683 9.66415 1.38693 9.65729C1.31209 9.64438 1.23962 9.61862 1.17345 9.58142C1.12052 9.55165 1.07172 9.51465 1.02878 9.47171C0.899109 9.34204 0.827639 9.16076 0.833872 8.97752C0.835973 8.91682 0.846373 8.85648 0.86474 8.79858C0.887708 8.72624 0.92311 8.65794 0.968978 8.59744C0.993446 8.56517 1.00118 8.5584 1.02878 8.52887L4.5575 5.00012L1.02878 1.47137C1.00118 1.4418 0.993446 1.43507 0.968978 1.40276C0.92311 1.3423 0.887708 1.27399 0.86474 1.20162C0.837173 1.11475 0.827672 1.02241 0.837006 0.931744C0.860574 0.702334 1.00558 0.496892 1.21386 0.397855C1.26869 0.371787 1.32706 0.353253 1.38693 0.342919C1.46173 0.330052 1.53867 0.330052 1.61347 0.342919C1.71828 0.36102 1.81828 0.404422 1.90302 0.468724C1.93532 0.493192 1.94205 0.500926 1.97162 0.528527L5.50037 4.05725L9.02913 0.528527C9.05866 0.500926 9.06543 0.493192 9.09769 0.468724C9.1582 0.422856 9.2265 0.387454 9.29884 0.364487C9.38571 0.336919 9.47808 0.327418 9.56871 0.336752C9.64422 0.344486 9.71832 0.365253 9.78686 0.397855C9.84169 0.423923 9.89293 0.457524 9.9387 0.497426C10.1125 0.648999 10.1967 0.885942 10.1575 1.11322C10.1395 1.21802 10.096 1.31803 10.0318 1.40276C10.0073 1.43507 9.99957 1.4418 9.97196 1.47137L6.44321 5.00012L9.97196 8.52887C9.99957 8.5584 10.0073 8.56517 10.0318 8.59744C10.0776 8.65794 10.113 8.72624 10.136 8.79858C10.1544 8.85648 10.1648 8.91682 10.1668 8.97752C10.1731 9.16076 10.1016 9.34204 9.97196 9.47171C9.92903 9.51465 9.88023 9.55165 9.82729 9.58142C9.76112 9.61862 9.68862 9.64438 9.61382 9.65729C9.57391 9.66415 9.56365 9.66382 9.52331 9.66659C9.50811 9.66659 9.49294 9.66659 9.47778 9.66659C9.43744 9.66382 9.42718 9.66415 9.38727 9.65729C9.29747 9.64178 9.2111 9.60775 9.1349 9.55775C9.09633 9.53248 9.06269 9.50308 9.02913 9.47171L5.50037 5.94296Z" fill="white"/>
</svg>
