<svg width="49" height="31" viewBox="0 0 49 31" fill="none" xmlns="http://www.w3.org/2000/svg">
<g clip-path="url(#clip0)">
<path d="M4.1387 2.29641H45.1735C46.0189 2.29641 46.7041 2.96655 46.7041 3.7937V16.9625C46.7041 16.9625 42.0739 20.0211 36.7094 22.1348C28.1893 25.9857 15.8471 28.7036 15.0022 28.7036H4.1387C3.29333 28.7036 2.60809 28.0335 2.60809 27.2063V3.7937C2.60809 2.96693 3.29378 2.29641 4.1387 2.29641ZM0.770752 3.7937V27.2063C0.770752 29.0255 2.27849 30.5 4.1387 30.5H45.1735C47.0332 30.5 48.5414 29.0251 48.5414 27.2063V3.7937C48.5414 1.97452 47.0337 0.5 45.1735 0.5H4.1387C2.27898 0.5 0.770752 1.97486 0.770752 3.7937Z" fill="white"/>
<path d="M4.89954 10.3472V16.3641H6.73637C7.71308 16.3641 8.41845 16.1491 9.03755 15.6695C9.77329 15.1014 10.2084 14.2452 10.2084 13.3598C10.2084 11.5841 8.78624 10.3472 6.74609 10.3472H4.89954ZM8.2157 14.8673C7.82045 15.2002 7.30701 15.3455 6.4941 15.3455H6.15656V11.3667H6.4941C7.30701 11.3667 7.80019 11.5025 8.2157 11.8533C8.65077 12.2147 8.91249 12.7747 8.91249 13.3512C8.91249 13.9286 8.65077 14.5058 8.2157 14.8673Z" fill="white"/>
<path d="M10.7872 16.364H12.0452V10.3471H10.7872V16.364Z" fill="white"/>
<path d="M15.1213 12.6415C14.3664 12.3809 14.1447 12.2089 14.1447 11.8839C14.1447 11.505 14.5396 11.217 15.0818 11.217C15.4587 11.217 15.7685 11.3616 16.0962 11.7042L16.7545 10.9002C16.2135 10.4587 15.5665 10.233 14.8594 10.233C13.7183 10.233 12.8478 10.9725 12.8478 11.9572C12.8478 12.7861 13.2531 13.2103 14.4346 13.6071C14.9271 13.7692 15.1777 13.8772 15.3043 13.9498C15.5556 14.103 15.6814 14.3196 15.6814 14.5723C15.6814 15.0598 15.2659 15.421 14.7047 15.421C14.1047 15.421 13.6214 15.1411 13.3317 14.6186L12.519 15.3487C13.0987 16.1423 13.7947 16.494 14.7519 16.494C16.0592 16.494 16.9763 15.6832 16.9763 14.5184C16.9763 13.5625 16.5522 13.1297 15.1213 12.6415Z" fill="white"/>
<path d="M17.373 13.3435C17.373 15.112 18.8615 16.4833 20.7771 16.4833C21.3188 16.4833 21.7825 16.384 22.3546 16.1327V14.7512C21.8515 15.2208 21.406 15.4103 20.8356 15.4103C19.5686 15.4103 18.6694 14.5532 18.6694 13.3349C18.6694 12.1796 19.5973 11.2683 20.7771 11.2683C21.3773 11.2683 21.8313 11.468 22.3546 11.9453V10.5645C21.8022 10.3032 21.3482 10.1948 20.807 10.1948C18.9011 10.1948 17.373 11.594 17.373 13.3435Z" fill="white"/>
<path d="M32.329 14.3794L30.609 10.3379H29.2349L31.9717 16.5092H32.6487L35.4349 10.3379H34.0712L32.329 14.3794Z" fill="white"/>
<path d="M36.0037 16.364H39.5712V15.3454H37.2607V13.7212H39.486V12.7021H37.2607V11.3667H39.5712V10.3471H36.0037V16.364Z" fill="white"/>
<path d="M44.5521 12.1236C44.5521 10.9971 43.7206 10.3472 42.2697 10.3472H40.4044V16.3641H41.661V13.947H41.8249L43.5661 16.3641H45.1132L43.083 13.8294C44.0305 13.6495 44.5521 13.0448 44.5521 12.1236ZM42.0285 13.1171H41.661V11.2949H42.0484C42.8318 11.2949 43.2576 11.6013 43.2576 12.1868C43.2576 12.7917 42.8318 13.1171 42.0285 13.1171Z" fill="white"/>
<path d="M22.7643 13.3546C22.7643 13.3546 22.7643 13.3546 22.7643 13.3525C22.7643 11.5847 24.3004 10.1537 26.1953 10.1537C28.0902 10.1537 29.6263 11.5847 29.6263 13.3525V13.3546C29.6263 15.1224 28.0902 16.5555 26.1953 16.5555C24.3004 16.5555 22.7643 15.1224 22.7643 13.3546Z" fill="white"/>
</g>
<defs>
<clipPath id="clip0">
<rect width="47.7707" height="30" fill="white" transform="translate(0.770752 0.5)"/>
</clipPath>
</defs>
</svg>
