<svg viewBox="0 0 400 101" fill="none" xmlns="http://www.w3.org/2000/svg">
<g clip-path="url(#clip0)">
<path d="M0.171875 49.3819L28.1888 0.166914L84.6842 0L79.0877 9.80372L33.8688 9.93627L28.1397 19.9315L73.3095 19.794L67.8455 29.5977L22.5187 29.7303L17.0989 39.0872L62.4405 39.0382L56.6672 49.3819" fill="#9FAEC2"/>
<path d="M56.4954 51.7138L84.743 100.516H73.3733L50.8448 61.5028L39.4211 61.3801L61.9937 100.438L50.9627 100.516L28.2477 61.5028L16.9221 61.385L39.4653 100.428H28.125L0 51.7138" fill="#637895"/>
<path d="M64.7183 40.2655L58.95 50.6092L87.1976 99.4118L115.445 50.4865L86.9669 1.22731L81.3704 11.031L103.928 50.4865L98.2679 60.2755L75.5922 21.0213L70.1283 30.825L92.6469 70.0939L87.0798 79.7749" fill="#435160"/>
<path d="M124.298 25.0493H141.937V29.1141H129.261V33.7042H141.49V37.2978H129.261V41.9125H141.937V46.0068H124.298V25.0493Z" fill="#435160"/>
<path d="M144.087 25.0493H149.05V41.8437H161.127V46.0117H144.087V25.0493Z" fill="#435160"/>
<path d="M163.076 25.0493H180.715V29.1141H168.039V33.7042H180.268V37.2978H168.039V41.9125H180.715V46.0068H163.076V25.0493Z" fill="#435160"/>
<path d="M182.242 35.5305C182.242 28.9423 186.935 24.3522 193.719 24.3522C198.31 24.3522 203.027 26.3994 204.048 32.5604H199.282C198.383 29.8653 196.312 28.6674 193.719 28.6674C190.003 28.6674 187.156 31.4853 187.156 35.5305C187.156 39.5463 189.998 42.3936 193.719 42.3936C196.316 42.3936 198.383 41.1958 199.282 38.4761H204.048C203.027 44.6617 198.359 46.7088 193.719 46.7088C186.935 46.7088 182.242 42.1187 182.242 35.5305Z" fill="#435160"/>
<path d="M225.561 29.2172H217.701V46.0117H212.708V29.2172H204.873V25.0493H225.561V29.2172Z" fill="#435160"/>
<path d="M242.733 46.0068L239.292 39.7671H232.532V46.0068H227.569V25.0493H238.575C244.191 25.0493 247.156 27.6708 247.156 32.5604C247.156 35.4814 245.733 37.6022 243.587 38.7755L247.682 46.0117H242.733V46.0068ZM232.527 35.9527H238.29C240.809 35.9527 242.208 34.8039 242.208 32.5849C242.208 30.366 240.809 29.2172 238.29 29.2172H232.527V35.9527Z" fill="#435160"/>
<path d="M249.346 25.0493H254.309V46.0068H249.346V25.0493Z" fill="#435160"/>
<path d="M256.086 35.5305C256.086 28.9423 260.779 24.3522 267.564 24.3522C272.154 24.3522 276.872 26.3994 277.893 32.5604H273.126C272.228 29.8653 270.156 28.6674 267.564 28.6674C263.848 28.6674 261 31.4853 261 35.5305C261 39.5463 263.843 42.3936 267.564 42.3936C270.161 42.3936 272.228 41.1958 273.126 38.4761H277.893C276.872 44.6617 272.203 46.7088 267.564 46.7088C260.774 46.7088 256.086 42.1187 256.086 35.5305Z" fill="#435160"/>
<path d="M285.979 25.0493H292.341L297.53 39.7475H297.903L303.092 25.0493H309.454V46.0068H304.688V33.3851H304.265L299.651 46.0117H295.782L291.168 33.3851H290.745V46.0117H285.979V25.0493Z" fill="#435160"/>
<path d="M311.236 35.5305C311.236 28.9423 315.9 24.3522 322.739 24.3522C329.602 24.3522 334.265 28.9423 334.265 35.5305C334.265 42.1187 329.602 46.7088 322.739 46.7088C315.9 46.7088 311.236 42.1187 311.236 35.5305ZM329.327 35.5305C329.327 31.4117 326.484 28.6674 322.739 28.6674C319.022 28.6674 316.15 31.4117 316.15 35.5305C316.15 39.6494 319.017 42.3936 322.739 42.3936C326.479 42.3887 329.327 39.6444 329.327 35.5305Z" fill="#435160"/>
<path d="M355.002 29.2172H347.143V46.0117H342.15V29.2172H334.315V25.0493H355.002V29.2172Z" fill="#435160"/>
<path d="M355.031 35.5305C355.031 28.9423 359.695 24.3522 366.534 24.3522C373.397 24.3522 378.061 28.9423 378.061 35.5305C378.061 42.1187 373.397 46.7088 366.534 46.7088C359.695 46.7088 355.031 42.1187 355.031 35.5305ZM373.122 35.5305C373.122 31.4117 370.28 28.6674 366.534 28.6674C362.818 28.6674 359.946 31.4117 359.946 35.5305C359.946 39.6494 362.813 42.3936 366.534 42.3936C370.275 42.3887 373.122 39.6444 373.122 35.5305Z" fill="#435160"/>
<path d="M395.007 46.0068L391.566 39.7671H384.806V46.0068H379.843V25.0493H390.849C396.465 25.0493 399.431 27.6708 399.431 32.5604C399.431 35.4814 398.007 37.6022 395.862 38.7755L399.956 46.0117H395.007V46.0068ZM384.801 35.9527H390.564C393.083 35.9527 394.482 34.8039 394.482 32.5849C394.482 30.366 393.083 29.2172 390.564 29.2172H384.801V35.9527Z" fill="#435160"/>
<path d="M123.822 54.5046H128.839L132.182 70.1503H132.629L136.62 54.5046H140.788L144.809 70.1503H145.26L148.579 54.5046H153.621L148.928 75.4621H142.192L138.947 62.2367H138.471L135.226 75.4621H128.515L123.822 54.5046Z" fill="#637895"/>
<path d="M176.527 54.5046V75.4621H171.535V67.0575H161.132V75.467H156.169V54.5095H161.132V62.919H171.535V54.5095H176.527V54.5046Z" fill="#637895"/>
<path d="M179.173 64.9859C179.173 58.3977 183.837 53.8076 190.676 53.8076C197.539 53.8076 202.203 58.3977 202.203 64.9859C202.203 71.574 197.539 76.1642 190.676 76.1642C183.837 76.1642 179.173 71.574 179.173 64.9859ZM197.264 64.9859C197.264 60.867 194.421 58.1228 190.676 58.1228C186.959 58.1228 184.087 60.867 184.087 64.9859C184.087 69.1047 186.959 71.849 190.676 71.849C194.421 71.8441 197.264 69.0998 197.264 64.9859Z" fill="#637895"/>
<path d="M204.878 54.5046H209.846V71.2991H221.923V75.467H204.883V54.5046H204.878Z" fill="#637895"/>
<path d="M224.765 54.5046H242.404V58.5695H229.729V63.1596H241.953V66.7532H229.729V71.3678H242.404V75.4621H224.765V54.5046Z" fill="#637895"/>
<path d="M244.854 68.9771H249.346C249.523 70.9506 251.143 72.1975 254.584 72.2221C257.829 72.2221 259.601 71.1224 259.601 69.4778C259.601 68.0296 258.428 67.3079 255.934 66.8808L253.337 66.4292C249.37 65.7321 245.428 64.6815 245.428 60.1159C245.428 56.1493 248.771 53.8027 254.633 53.8027C260.097 53.8027 263.892 55.7222 263.941 60.9161H259.474C259.15 59.0212 257.677 57.7448 254.535 57.7448C251.692 57.7448 250.195 58.7168 250.195 60.3417C250.195 61.6132 251.216 62.4134 253.366 62.8111L255.639 63.2087C259.631 63.9304 264.55 64.6079 264.55 69.6202C264.55 73.7881 261.133 76.1593 254.594 76.1593C248.197 76.1642 244.829 73.8912 244.854 68.9771Z" fill="#637895"/>
<path d="M282.287 71.9471H271.958L270.662 75.467H265.522L273.632 54.5095H280.618L288.752 75.467H283.588L282.287 71.9471ZM280.888 68.1768L277.593 59.2175H276.646L273.352 68.1768H280.888Z" fill="#637895"/>
<path d="M291.02 54.5046H295.983V71.2991H308.06V75.467H291.02V54.5046Z" fill="#637895"/>
<path d="M310.912 54.5046H328.551V58.5695H315.876V63.1596H328.104V66.7532H315.876V71.3678H328.551V75.4621H310.912V54.5046Z" fill="#637895"/>
<path d="M338.812 54.5046H343.775V75.4621H338.812V54.5046Z" fill="#9FAEC2"/>
<path d="M346.818 54.5046H352.582L362.312 68.6039H362.788V54.5046H367.653V75.4621H361.993L352.135 61.3628H351.683V75.4621H346.818V54.5046Z" fill="#9FAEC2"/>
<path d="M370.304 64.9859C370.304 58.3977 374.997 53.8076 381.782 53.8076C386.372 53.8076 391.09 55.8547 392.111 62.0158H387.344C386.446 59.3206 384.374 58.1228 381.782 58.1228C378.066 58.1228 375.218 60.9407 375.218 64.9859C375.218 69.0016 378.061 71.849 381.782 71.849C384.379 71.849 386.446 70.6511 387.344 67.9314H392.111C391.09 74.117 386.421 76.1642 381.782 76.1642C374.993 76.1642 370.304 71.574 370.304 64.9859Z" fill="#9FAEC2"/>
<path d="M394.683 73.2432C394.683 71.7949 395.881 70.5971 397.329 70.5971C398.802 70.5971 400 71.7949 400 73.2432C400 74.6668 398.802 75.8647 397.329 75.8647C395.881 75.8647 394.683 74.6668 394.683 73.2432Z" fill="#9FAEC2"/>
</g>
<defs>
<clipPath id="clip0">
<rect width="400" height="100.516" fill="white"/>
</clipPath>
</defs>
</svg>
