<svg id="es5iab1mxgxd1" xmlns="http://www.w3.org/2000/svg" xmlns:xlink="http://www.w3.org/1999/xlink" viewBox="0 0 525 450" shape-rendering="geometricPrecision" text-rendering="geometricPrecision"><style><![CDATA[#es5iab1mxgxd4 {animation: es5iab1mxgxd4_f_o 5000ms linear infinite normal forwards}@keyframes es5iab1mxgxd4_f_o { 0% {fill-opacity: 0} 20% {fill-opacity: 1} 70% {fill-opacity: 1} 100% {fill-opacity: 0} }#es5iab1mxgxd5 {animation: es5iab1mxgxd5_f_o 5000ms linear infinite normal forwards}@keyframes es5iab1mxgxd5_f_o { 0% {fill-opacity: 0} 20% {fill-opacity: 0} 40% {fill-opacity: 1} 70% {fill-opacity: 1} 100% {fill-opacity: 0} }#es5iab1mxgxd6 {animation: es5iab1mxgxd6_f_o 5000ms linear infinite normal forwards}@keyframes es5iab1mxgxd6_f_o { 0% {fill-opacity: 0} 40% {fill-opacity: 0} 70% {fill-opacity: 1} 100% {fill-opacity: 0} }]]></style><g id="es5iab1mxgxd2" clip-path="url(#es5iab1mxgxd7)"><g id="es5iab1mxgxd3"><path id="es5iab1mxgxd4" d="M0.769043,221.077000L126.198000,0.747253L379.120000,0L354.066000,43.890100L151.627000,44.483500L125.978000,89.230800L328.197000,88.615400L303.736000,132.505000L100.813000,133.099000L76.549300,174.989000L279.538000,174.769000L253.692000,221.077000" fill="rgb(159,174,194)" fill-opacity="0" stroke="none" stroke-width="1"/><path id="es5iab1mxgxd5" d="M252.923000,231.517000L379.385000,450L328.483000,450L227.626000,275.340000L176.483000,274.791000L277.538000,449.649000L228.154000,450L126.461000,275.340000L75.758300,274.813000L176.681000,449.605000L125.912000,449.605000L0,231.517000" fill="rgb(99,120,149)" fill-opacity="0" stroke="none" stroke-width="1"/><path id="es5iab1mxgxd6" d="M289.736000,180.263000L263.912000,226.571000L390.374000,445.055000L516.835000,226.022000L389.341000,5.494320L364.286000,49.384400L465.275000,226.022000L439.934000,269.846000L338.418000,94.110000L313.957000,138L414.770000,313.802000L389.846000,357.143000" transform="matrix(1 0 0 1 -1.41199999999998 -0.27466000000001)" fill="rgb(67,81,96)" fill-opacity="0" stroke="none" stroke-width="1"/></g><clipPath id="es5iab1mxgxd7"><rect id="es5iab1mxgxd8" width="525" height="450" rx="0" ry="0" fill="rgb(255,255,255)" stroke="none" stroke-width="1"/></clipPath></g></svg>