<svg width="16" height="16" viewBox="0 0 16 16" fill="none" xmlns="http://www.w3.org/2000/svg">
<path d="M8 1.33334C6.68146 1.33334 5.39252 1.72434 4.2962 2.45688C3.19987 3.18942 2.34539 4.23061 1.8408 5.44879C1.33622 6.66696 1.20419 8.00741 1.46143 9.30061C1.71866 10.5938 2.3536 11.7817 3.28595 12.7141C4.2183 13.6464 5.40619 14.2813 6.6994 14.5386C7.9926 14.7958 9.33305 14.6638 10.5512 14.1592C11.7694 13.6546 12.8106 12.8001 13.5431 11.7038C14.2757 10.6075 14.6667 9.31855 14.6667 8.00001C14.6667 7.12453 14.4942 6.25762 14.1592 5.44879C13.8242 4.63995 13.3331 3.90502 12.714 3.28596C12.095 2.66691 11.3601 2.17584 10.5512 1.84081C9.74238 1.50578 8.87548 1.33334 8 1.33334ZM8 11.3333C7.87869 11.3333 7.76011 11.2974 7.65925 11.23C7.55839 11.1626 7.47977 11.0668 7.43335 10.9547C7.38693 10.8427 7.37478 10.7193 7.39845 10.6004C7.42211 10.4814 7.48053 10.3721 7.56631 10.2863C7.65208 10.2005 7.76137 10.1421 7.88034 10.1185C7.99932 10.0948 8.12264 10.1069 8.23471 10.1534C8.34678 10.1998 8.44257 10.2784 8.50997 10.3793C8.57736 10.4801 8.61333 10.5987 8.61333 10.72C8.61333 10.8827 8.54871 11.0387 8.43369 11.1537C8.31867 11.2687 8.16266 11.3333 8 11.3333ZM8.39333 8.98001H7.60666L7.36666 4.66668H8.66666L8.39333 8.98001Z" fill="#DF3826"/>
</svg>
