<svg width="24" height="24" viewBox="0 0 24 24" fill="none" xmlns="http://www.w3.org/2000/svg">
<rect width="24" height="24" rx="5" fill="#E5E5E5"/>
<path fill-rule="evenodd" clip-rule="evenodd" d="M12 7.33325C11.6319 7.33325 11.3334 7.63173 11.3334 7.99992V11.3333H8.00004C7.63185 11.3333 7.33337 11.6317 7.33337 11.9999C7.33337 12.3681 7.63185 12.6666 8.00004 12.6666H11.3334V15.9999C11.3334 16.3681 11.6319 16.6666 12 16.6666C12.3682 16.6666 12.6667 16.3681 12.6667 15.9999V12.6666H16C16.3682 12.6666 16.6667 12.3681 16.6667 11.9999C16.6667 11.6317 16.3682 11.3333 16 11.3333H12.6667V7.99992C12.6667 7.63173 12.3682 7.33325 12 7.33325Z" fill="#110F24" fill-opacity="0.4"/>
</svg>
