<svg  viewBox="0 0 1334 201" fill="none" xmlns="http://www.w3.org/2000/svg">
<g clip-path="url(#clip0)">
<path d="M-109.4 102C-109.4 102 -48.4004 30.5 1.59961 30.5C51.5996 30.5 112.6 102 112.6 102C112.6 102 173.6 173.5 223.6 173.5C273.6 173.5 334.6 102 334.6 102C334.6 102 395.6 30.5 445.6 30.5C495.6 30.5 556.6 102 556.6 102C556.6 102 617.6 173.5 667.6 173.5C717.6 173.5 778.6 102 778.6 102C778.6 102 839.6 30.5 889.6 30.5C939.6 30.5 1000.6 102 1000.6 102C1000.6 102 1061.6 173.5 1111.6 173.5C1161.6 173.5 1222.6 102 1222.6 102C1222.6 102 1283.6 30.5 1333.6 30.5C1383.6 30.5 1444.6 102 1444.6 102C1444.6 102 1505.6 173.5 1555.6 173.5C1605.6 173.5 1666.6 102 1666.6 102" stroke="black" stroke-opacity="0.65"/>
<path d="M557.6 102C557.6 102 618.6 30.5 668.6 30.5C718.6 30.5 779.6 102 779.6 102C779.6 102 840.6 173.5 890.6 173.5C940.6 173.5 1001.6 102 1001.6 102C1001.6 102 1062.6 30.5 1112.6 30.5C1162.6 30.5 1223.6 102 1223.6 102C1223.6 102 1284.6 173.5 1334.6 173.5C1384.6 173.5 1445.6 102 1445.6 102C1445.6 102 1506.6 30.5 1556.6 30.5C1606.6 30.5 1667.6 102 1667.6 102C1667.6 102 1728.6 173.5 1778.6 173.5C1828.6 173.5 1889.6 102 1889.6 102V173.5H1778.6H1334.6H890.6H446.6H113.6V102C113.6 102 174.6 30.5 224.6 30.5C274.6 30.5 335.6 102 335.6 102C335.6 102 396.6 173.5 446.6 173.5C496.6 173.5 557.6 102 557.6 102Z" fill="#F3F3F3"/>
<path d="M445.6 102C445.6 102 506.6 30.5 556.6 30.5C606.6 30.5 667.6 102 667.6 102C667.6 102 728.6 173.5 778.6 173.5C828.6 173.5 889.6 102 889.6 102C889.6 102 950.6 30.5 1000.6 30.5C1050.6 30.5 1111.6 102 1111.6 102C1111.6 102 1172.6 173.5 1222.6 173.5C1272.6 173.5 1333.6 102 1333.6 102C1333.6 102 1394.6 30.5 1444.6 30.5C1494.6 30.5 1555.6 102 1555.6 102C1555.6 102 1616.6 173.5 1666.6 173.5C1716.6 173.5 1777.6 102 1777.6 102V173.5H1666.6H1222.6H778.6H334.6H1.59961V102C1.59961 102 62.5996 30.5 112.6 30.5C162.6 30.5 223.6 102 223.6 102C223.6 102 284.6 173.5 334.6 173.5C384.6 173.5 445.6 102 445.6 102Z" fill="#B3B3B3"/>
<path d="M445.6 30.3999C395.6 30.3999 334.6 101.9 334.6 101.9C334.6 101.9 273.6 173.4 223.6 173.4C173.6 173.4 112.6 101.9 112.6 101.9C112.6 101.9 51.5996 30.3999 1.59961 30.3999C-48.4004 30.3999 -109.4 101.9 -109.4 101.9V811.4H1666.6V101.9C1666.6 101.9 1605.6 173.4 1555.6 173.4C1505.6 173.4 1444.6 101.9 1444.6 101.9C1444.6 101.9 1383.6 30.3999 1333.6 30.3999C1283.6 30.3999 1222.6 101.9 1222.6 101.9C1222.6 101.9 1161.6 173.4 1111.6 173.4C1061.6 173.4 1000.6 101.9 1000.6 101.9C1000.6 101.9 939.6 30.3999 889.6 30.3999C839.6 30.3999 778.6 101.9 778.6 101.9C778.6 101.9 717.6 173.4 667.6 173.4C617.6 173.4 556.6 101.9 556.6 101.9C556.6 101.9 495.6 30.3999 445.6 30.3999Z" fill="#435160"/>
<path d="M-442.4 102C-442.4 102 -381.4 30.5 -331.4 30.5C-281.4 30.5 -220.4 102 -220.4 102C-220.4 102 -159.4 173.5 -109.4 173.5C-59.4004 173.5 1.59961 102 1.59961 102C1.59961 102 62.5996 30.5 112.6 30.5C162.6 30.5 223.6 102 223.6 102C223.6 102 284.6 173.5 334.6 173.5C384.6 173.5 445.6 102 445.6 102C445.6 102 506.6 30.5 556.6 30.5C606.6 30.5 667.6 102 667.6 102C667.6 102 728.6 173.5 778.6 173.5C828.6 173.5 889.6 102 889.6 102C889.6 102 950.6 30.5 1000.6 30.5C1050.6 30.5 1111.6 102 1111.6 102" stroke="black" stroke-opacity="0.65" stroke-dasharray="2 2"/>
<path d="M-330.9 101.5C-330.9 101.5 -269.9 30 -219.9 30C-169.9 30 -108.9 101.5 -108.9 101.5C-108.9 101.5 -47.9004 173 2.09961 173C52.0996 173 113.1 101.5 113.1 101.5C113.1 101.5 174.1 30 224.1 30C274.1 30 335.1 101.5 335.1 101.5C335.1 101.5 396.1 173 446.1 173C496.1 173 557.1 101.5 557.1 101.5C557.1 101.5 618.1 30 668.1 30C718.1 30 779.1 101.5 779.1 101.5C779.1 101.5 840.1 173 890.1 173C940.1 173 1001.1 101.5 1001.1 101.5C1001.1 101.5 1062.1 30 1112.1 30C1162.1 30 1223.1 101.5 1223.1 101.5C1223.1 101.5 1284.1 173 1334.1 173C1384.1 173 1445.1 101.5 1445.1 101.5" stroke="black" stroke-opacity="0.65" stroke-dasharray="2 2"/>
<path d="M1110.6 101.5C1110.6 101.5 1171.6 172.5 1221.6 172.5C1271.6 172.5 1332.6 101.5 1332.6 101.5" stroke="black" stroke-opacity="0.65" stroke-dasharray="2 2"/>
<path d="M-109.9 101.5C-109.9 101.5 -48.9004 30 1.09961 30C51.0996 30 112.1 101.5 112.1 101.5C112.1 101.5 173.1 173 223.1 173C273.1 173 334.1 101.5 334.1 101.5C334.1 101.5 395.1 30 445.1 30C495.1 30 556.1 101.5 556.1 101.5C556.1 101.5 617.1 173 667.1 173C717.1 173 778.1 101.5 778.1 101.5C778.1 101.5 839.1 30 889.1 30C939.1 30 1000.1 101.5 1000.1 101.5C1000.1 101.5 1061.1 173 1111.1 173C1161.1 173 1222.1 101.5 1222.1 101.5C1222.1 101.5 1283.1 30 1333.1 30C1383.1 30 1444.1 101.5 1444.1 101.5C1444.1 101.5 1505.1 173 1555.1 173C1605.1 173 1666.1 101.5 1666.1 101.5" stroke="black" stroke-opacity="0.65" stroke-width="2"/>
<path d="M-104.9 29H1391.1" stroke="black" stroke-opacity="0.4" stroke-dasharray="10 10"/>
<path d="M-104.9 175H1391.1" stroke="#28313A" stroke-dasharray="10 10"/>
<path d="M333.6 201V1" stroke="black" stroke-opacity="0.4" stroke-dasharray="4 4"/>
<path d="M555.6 201V1" stroke="black" stroke-opacity="0.4" stroke-dasharray="4 4"/>
<path d="M778.1 200.5V0.5" stroke="black" stroke-opacity="0.4" stroke-dasharray="4 4"/>
<path d="M1000.6 201V1" stroke="black" stroke-opacity="0.4" stroke-dasharray="4 4"/>
<path d="M1223.3 204V1" stroke="black" stroke-opacity="0.4" stroke-width="0.5" stroke-dasharray="4 4"/>
<path d="M1332.6 201V1" stroke="black" stroke-opacity="0.4" stroke-width="0.5" stroke-dasharray="4 4"/>
<path d="M111.6 201V1" stroke="black" stroke-opacity="0.4" stroke-dasharray="4 4"/>
<path d="M0.599609 201V1" stroke="black" stroke-opacity="0.4" stroke-dasharray="4 4"/>
<path d="M222.6 201V1" stroke="black" stroke-opacity="0.4" stroke-dasharray="4 4"/>
<path d="M444.6 201V1" stroke="black" stroke-opacity="0.4"/>
<path d="M43.8994 135.1C43.5994 135.1 43.1994 135 42.8994 134.9C42.5994 134.8 42.3994 134.6 42.1994 134.3H42.0994C42.0994 134.6 42.1994 134.9 42.1994 135.2V137.4H41.3994V129.6H42.0994L42.1994 130.3C42.3994 130 42.6994 129.8 42.8994 129.7C43.1994 129.6 43.4994 129.5 43.8994 129.5C44.5994 129.5 45.1994 129.7 45.4994 130.2C45.8994 130.7 46.0994 131.4 46.0994 132.2C46.0994 133.1 45.8994 133.8 45.4994 134.3C45.1994 134.9 44.5994 135.1 43.8994 135.1ZM43.7994 130.2C43.2994 130.2 42.8994 130.4 42.5994 130.7C42.3994 131 42.1994 131.5 42.1994 132.1V132.3C42.1994 133.1 42.2994 133.6 42.5994 133.9C42.8994 134.2 43.2994 134.4 43.7994 134.4C44.2994 134.4 44.5994 134.2 44.8994 133.8C45.1994 133.4 45.2994 132.9 45.2994 132.3C45.2994 131.6 45.1994 131.1 44.8994 130.8C44.6994 130.4 44.2994 130.2 43.7994 130.2ZM51.1994 135V131.5C51.1994 131.1 51.0994 130.7 50.8994 130.5C50.6994 130.3 50.3994 130.2 49.9994 130.2C49.3994 130.2 48.9994 130.4 48.7994 130.7C48.4994 131 48.3994 131.5 48.3994 132.2V135H47.5994V127.4H48.3994V129.7C48.3994 130 48.3994 130.2 48.3994 130.4C48.5994 130.1 48.7994 129.9 49.0994 129.8C49.3994 129.6 49.6994 129.6 50.0994 129.6C50.7994 129.6 51.1994 129.8 51.5994 130.1C51.8994 130.4 52.0994 130.9 52.0994 131.6V135.1H51.1994V135ZM56.9994 135L56.7994 134.2C56.4994 134.5 56.2994 134.8 55.9994 134.9C55.6994 135 55.3994 135.1 54.9994 135.1C54.4994 135.1 54.0994 135 53.6994 134.7C53.3994 134.4 53.2994 134 53.2994 133.5C53.2994 132.4 54.1994 131.9 55.8994 131.8H56.7994V131.5C56.7994 131.1 56.6994 130.8 56.4994 130.6C56.2994 130.4 55.9994 130.3 55.5994 130.3C55.1994 130.3 54.5994 130.4 54.0994 130.7L53.8994 130.1C54.1994 130 54.4994 129.8 54.7994 129.8C55.0994 129.7 55.3994 129.7 55.6994 129.7C56.2994 129.7 56.7994 129.8 57.0994 130.1C57.3994 130.4 57.5994 130.8 57.5994 131.5V135.2H56.9994V135ZM55.1994 134.4C55.6994 134.4 56.0994 134.3 56.3994 134C56.6994 133.7 56.7994 133.3 56.7994 132.8V132.3H55.9994C55.3994 132.3 54.8994 132.4 54.5994 132.6C54.2994 132.8 54.1994 133.1 54.1994 133.4C54.1994 133.7 54.2994 133.9 54.4994 134.1C54.5994 134.4 54.8994 134.4 55.1994 134.4ZM62.6994 133.5C62.6994 134 62.4994 134.4 62.0994 134.7C61.6994 135 61.1994 135.1 60.4994 135.1C59.7994 135.1 59.1994 135 58.7994 134.8V134C59.0994 134.1 59.2994 134.2 59.5994 134.3C59.8994 134.4 60.1994 134.4 60.4994 134.4C60.8994 134.4 61.1994 134.3 61.4994 134.2C61.6994 134.1 61.7994 133.9 61.7994 133.6C61.7994 133.4 61.6994 133.2 61.4994 133.1C61.2994 132.9 60.9994 132.8 60.3994 132.6C59.8994 132.4 59.4994 132.3 59.2994 132.1C59.0994 132 58.8994 131.8 58.7994 131.6C58.6994 131.4 58.5994 131.2 58.5994 131C58.5994 130.6 58.7994 130.2 59.0994 130C59.4994 129.7 59.8994 129.6 60.5994 129.6C61.1994 129.6 61.6994 129.7 62.2994 130L61.9994 130.7C61.4994 130.5 60.9994 130.4 60.4994 130.4C60.0994 130.4 59.7994 130.5 59.5994 130.6C59.3994 130.7 59.2994 130.9 59.2994 131.1C59.2994 131.2 59.2994 131.4 59.3994 131.5C59.4994 131.6 59.5994 131.7 59.7994 131.8C59.9994 131.9 60.2994 132 60.6994 132.2C61.2994 132.4 61.7994 132.7 61.9994 132.9C62.5994 132.9 62.6994 133.2 62.6994 133.5ZM66.2994 135.1C65.4994 135.1 64.8994 134.9 64.3994 134.4C63.8994 133.9 63.6994 133.2 63.6994 132.4C63.6994 131.5 63.8994 130.9 64.2994 130.3C64.6994 129.8 65.2994 129.5 65.9994 129.5C66.6994 129.5 67.1994 129.7 67.5994 130.2C67.9994 130.6 68.1994 131.2 68.1994 131.9V132.4H64.4994C64.4994 133 64.6994 133.5 64.9994 133.8C65.2994 134.1 65.6994 134.3 66.2994 134.3C66.8994 134.3 67.3994 134.2 67.9994 133.9V134.6C67.6994 134.7 67.3994 134.8 67.1994 134.9C66.9994 135.1 66.6994 135.1 66.2994 135.1ZM66.0994 130.2C65.6994 130.2 65.2994 130.3 65.0994 130.6C64.7994 130.9 64.6994 131.3 64.6994 131.8H67.4994C67.4994 131.3 67.3994 130.9 67.1994 130.6C66.8994 130.4 66.4994 130.2 66.0994 130.2Z" fill="black" fill-opacity="0.65"/>
<path d="M1.59961 142.5L11.5996 148.3V136.8L1.59961 142.5ZM223.6 142.5L213.6 136.7V148.2L223.6 142.5ZM10.5996 143.5H112.6V141.5H10.5996V143.5ZM112.6 143.5H214.6V141.5H112.6V143.5Z" fill="black" fill-opacity="0.4"/>
<path d="M678.099 97.2999C677.699 97.7999 677.099 98.0999 676.399 98.0999C675.699 98.0999 675.099 97.8999 674.799 97.3999C674.399 96.8999 674.199 96.1999 674.199 95.3999C674.199 94.4999 674.399 93.7999 674.799 93.2999C675.199 92.7999 675.699 92.5999 676.399 92.5999C677.099 92.5999 677.699 92.8999 678.099 93.3999H678.199V92.9999V92.5999V90.3999H678.999V97.9999H678.299L678.099 97.2999ZM676.499 97.3999C677.099 97.3999 677.399 97.2999 677.699 96.9999C677.999 96.6999 678.099 96.1999 678.099 95.4999V95.2999C678.099 94.4999 677.999 93.9999 677.699 93.6999C677.399 93.3999 676.999 93.1999 676.499 93.1999C675.999 93.1999 675.699 93.3999 675.399 93.7999C675.099 94.1999 674.999 94.6999 674.999 95.3999C674.999 96.0999 675.099 96.5999 675.399 96.8999C675.699 97.1999 675.999 97.3999 676.499 97.3999ZM681.399 97.9999H680.599V92.5999H681.399V97.9999ZM680.499 91.1999C680.499 90.9999 680.499 90.8999 680.599 90.7999C680.699 90.6999 680.799 90.6999 680.899 90.6999C680.999 90.6999 681.099 90.6999 681.199 90.7999C681.299 90.8999 681.299 90.9999 681.299 91.1999C681.299 91.3999 681.199 91.4999 681.199 91.5999C681.099 91.6999 680.999 91.6999 680.899 91.6999C680.799 91.6999 680.599 91.6999 680.599 91.5999C680.599 91.4999 680.499 91.3999 680.499 91.1999ZM686.599 96.4999C686.599 96.9999 686.399 97.3999 686.099 97.6999C685.699 97.9999 685.199 98.0999 684.499 98.0999C683.799 98.0999 683.199 97.9999 682.799 97.7999V96.9999C683.099 97.0999 683.299 97.1999 683.599 97.2999C683.899 97.3999 684.199 97.3999 684.399 97.3999C684.799 97.3999 685.199 97.2999 685.399 97.1999C685.599 97.0999 685.699 96.8999 685.699 96.5999C685.699 96.3999 685.599 96.1999 685.399 96.0999C685.199 95.9999 684.899 95.7999 684.299 95.5999C683.799 95.3999 683.499 95.2999 683.199 95.0999C682.999 94.9999 682.799 94.7999 682.699 94.5999C682.599 94.3999 682.599 94.1999 682.599 93.9999C682.599 93.5999 682.799 93.1999 683.099 92.9999C683.499 92.6999 683.899 92.5999 684.599 92.5999C685.199 92.5999 685.699 92.6999 686.299 92.9999L685.999 93.6999C685.499 93.4999 684.999 93.3999 684.499 93.3999C684.099 93.3999 683.799 93.4999 683.599 93.5999C683.399 93.6999 683.299 93.8999 683.299 94.0999C683.299 94.1999 683.299 94.3999 683.399 94.4999C683.499 94.5999 683.599 94.6999 683.799 94.7999C683.999 94.8999 684.299 94.9999 684.699 95.1999C685.299 95.3999 685.799 95.6999 685.999 95.8999C686.399 95.8999 686.599 96.1999 686.599 96.4999ZM689.599 97.3999C689.699 97.3999 689.899 97.3999 689.999 97.3999C690.099 97.3999 690.199 97.3999 690.299 97.2999V97.9999C690.199 97.9999 690.099 98.0999 689.899 98.0999C689.699 98.0999 689.599 98.0999 689.399 98.0999C688.399 98.0999 687.799 97.5999 687.799 96.4999V93.2999H686.999V92.8999L687.799 92.5999L688.099 91.4999H688.599V92.6999H690.099V93.2999H688.599V96.3999C688.599 96.6999 688.699 96.9999 688.799 97.0999C689.099 97.2999 689.299 97.3999 689.599 97.3999ZM694.699 97.9999L694.499 97.1999C694.199 97.4999 693.999 97.7999 693.699 97.8999C693.399 97.9999 693.099 98.0999 692.699 98.0999C692.199 98.0999 691.799 97.9999 691.399 97.6999C690.999 97.3999 690.999 96.9999 690.999 96.4999C690.999 95.3999 691.899 94.8999 693.599 94.7999H694.499V94.4999C694.499 94.0999 694.399 93.7999 694.199 93.5999C693.999 93.3999 693.699 93.2999 693.299 93.2999C692.899 93.2999 692.299 93.3999 691.799 93.6999L691.499 93.0999C691.799 92.9999 691.999 92.7999 692.399 92.7999C692.699 92.6999 692.999 92.6999 693.299 92.6999C693.899 92.6999 694.399 92.7999 694.699 93.0999C694.999 93.3999 695.199 93.7999 695.199 94.4999V97.9999H694.699ZM692.899 97.3999C693.399 97.3999 693.799 97.2999 694.099 96.9999C694.399 96.6999 694.499 96.2999 694.499 95.7999V95.2999H693.699C693.099 95.2999 692.599 95.3999 692.299 95.5999C691.999 95.7999 691.899 96.0999 691.899 96.3999C691.899 96.6999 691.999 96.8999 692.199 97.0999C692.299 97.3999 692.599 97.3999 692.899 97.3999ZM700.599 97.9999V94.4999C700.599 94.0999 700.499 93.6999 700.299 93.4999C700.099 93.2999 699.799 93.1999 699.399 93.1999C698.799 93.1999 698.399 93.3999 698.199 93.6999C697.899 93.9999 697.799 94.4999 697.799 95.1999V97.9999H696.999V92.5999H697.699L697.799 93.2999C697.999 92.9999 698.199 92.7999 698.499 92.6999C698.799 92.5999 699.099 92.4999 699.499 92.4999C700.099 92.4999 700.599 92.6999 700.899 92.9999C701.199 93.2999 701.399 93.7999 701.399 94.4999V97.9999H700.599ZM705.299 98.0999C704.499 98.0999 703.899 97.8999 703.499 97.3999C703.099 96.8999 702.899 96.1999 702.899 95.3999C702.899 94.4999 703.099 93.7999 703.599 93.2999C703.999 92.7999 704.599 92.5999 705.399 92.5999C705.699 92.5999 705.899 92.5999 706.199 92.6999C706.499 92.7999 706.699 92.7999 706.799 92.8999L706.499 93.5999C706.299 93.4999 706.099 93.4999 705.899 93.3999C705.699 93.3999 705.499 93.2999 705.299 93.2999C704.199 93.2999 703.699 93.9999 703.699 95.3999C703.699 96.0999 703.799 96.5999 704.099 96.8999C704.399 97.1999 704.799 97.3999 705.299 97.3999C705.699 97.3999 706.199 97.2999 706.699 97.0999V97.7999C706.299 97.9999 705.799 98.0999 705.299 98.0999ZM710.199 98.0999C709.399 98.0999 708.799 97.8999 708.299 97.3999C707.899 96.8999 707.599 96.1999 707.599 95.3999C707.599 94.4999 707.799 93.8999 708.199 93.2999C708.599 92.7999 709.199 92.4999 709.899 92.4999C710.599 92.4999 711.099 92.6999 711.499 93.1999C711.899 93.5999 712.099 94.1999 712.099 94.8999V95.3999H708.399C708.399 95.9999 708.599 96.4999 708.899 96.7999C709.199 97.0999 709.599 97.2999 710.199 97.2999C710.799 97.2999 711.299 97.1999 711.899 96.8999V97.5999C711.599 97.6999 711.299 97.7999 711.099 97.8999C710.799 98.0999 710.499 98.0999 710.199 98.0999ZM709.899 93.1999C709.499 93.1999 709.099 93.2999 708.899 93.5999C708.599 93.8999 708.499 94.2999 708.499 94.7999H711.299C711.299 94.2999 711.199 93.8999 710.899 93.5999C710.699 93.3999 710.399 93.1999 709.899 93.1999ZM720.699 95.2999C720.699 96.1999 720.499 96.8999 719.999 97.2999C719.599 97.7999 718.999 97.9999 718.199 97.9999C717.699 97.9999 717.299 97.8999 716.899 97.6999C716.499 97.4999 716.199 97.1999 715.999 96.6999C715.799 96.2999 715.699 95.7999 715.699 95.1999C715.699 94.2999 715.899 93.5999 716.399 93.1999C716.799 92.6999 717.399 92.4999 718.199 92.4999C718.999 92.4999 719.599 92.6999 719.999 93.1999C720.499 93.7999 720.699 94.4999 720.699 95.2999ZM716.599 95.2999C716.599 95.9999 716.699 96.4999 716.999 96.8999C717.299 97.2999 717.699 97.3999 718.199 97.3999C718.699 97.3999 719.099 97.1999 719.399 96.8999C719.699 96.4999 719.799 95.9999 719.799 95.2999C719.799 94.5999 719.699 94.0999 719.399 93.7999C719.099 93.3999 718.699 93.2999 718.199 93.2999C717.699 93.2999 717.299 93.4999 716.999 93.7999C716.799 94.0999 716.599 94.5999 716.599 95.2999ZM723.299 97.9999L721.299 92.5999H722.199L723.399 95.7999C723.699 96.4999 723.799 96.9999 723.899 97.1999C723.899 96.9999 724.099 96.6999 724.199 96.0999C724.399 95.5999 724.799 94.3999 725.499 92.5999H726.399L724.399 97.9999H723.299ZM729.399 98.0999C728.599 98.0999 727.999 97.8999 727.499 97.3999C726.999 96.8999 726.799 96.1999 726.799 95.3999C726.799 94.4999 726.999 93.8999 727.399 93.2999C727.799 92.7999 728.399 92.4999 729.099 92.4999C729.799 92.4999 730.299 92.6999 730.699 93.1999C731.099 93.5999 731.299 94.1999 731.299 94.8999V95.3999H727.599C727.599 95.9999 727.799 96.4999 728.099 96.7999C728.399 97.0999 728.799 97.2999 729.399 97.2999C729.999 97.2999 730.599 97.1999 731.099 96.8999V97.5999C730.799 97.6999 730.499 97.7999 730.299 97.8999C730.099 98.0999 729.799 98.0999 729.399 98.0999ZM729.199 93.1999C728.799 93.1999 728.399 93.2999 728.199 93.5999C727.899 93.8999 727.799 94.2999 727.799 94.7999H730.599C730.599 94.2999 730.499 93.8999 730.299 93.5999C729.899 93.3999 729.599 93.1999 729.199 93.1999ZM735.199 92.5999C735.399 92.5999 735.599 92.5999 735.799 92.6999L735.699 93.4999C735.499 93.4999 735.299 93.3999 735.099 93.3999C734.699 93.3999 734.299 93.5999 733.999 93.8999C733.699 94.2999 733.499 94.6999 733.499 95.1999V97.9999H732.699V92.5999H733.399L733.499 93.5999C733.699 93.2999 733.899 92.9999 734.199 92.7999C734.599 92.5999 734.899 92.5999 735.199 92.5999ZM741.199 97.3999C741.299 97.3999 741.499 97.3999 741.599 97.3999C741.699 97.3999 741.799 97.3999 741.899 97.2999V97.9999C741.799 97.9999 741.699 98.0999 741.499 98.0999C741.299 98.0999 741.199 98.0999 740.999 98.0999C739.999 98.0999 739.499 97.5999 739.499 96.4999V93.2999H738.699V92.8999L739.499 92.5999L739.799 91.4999H740.299V92.6999H741.899V93.2999H740.299V96.3999C740.299 96.6999 740.399 96.9999 740.499 97.0999C740.699 97.2999 740.899 97.3999 741.199 97.3999ZM743.799 97.9999H742.999V92.5999H743.799V97.9999ZM742.899 91.1999C742.899 90.9999 742.899 90.8999 742.999 90.7999C743.099 90.6999 743.199 90.6999 743.299 90.6999C743.399 90.6999 743.599 90.6999 743.599 90.7999C743.699 90.8999 743.699 90.9999 743.699 91.1999C743.699 91.3999 743.699 91.4999 743.599 91.5999C743.499 91.6999 743.399 91.6999 743.299 91.6999C743.199 91.6999 742.999 91.6999 742.999 91.5999C742.999 91.4999 742.899 91.3999 742.899 91.1999ZM752.299 97.9999V94.4999C752.299 94.0999 752.199 93.7999 751.999 93.4999C751.799 93.2999 751.499 93.1999 751.199 93.1999C750.699 93.1999 750.299 93.2999 750.099 93.5999C749.899 93.8999 749.699 94.2999 749.699 94.8999V97.8999H748.899V94.3999C748.899 93.9999 748.799 93.6999 748.599 93.3999C748.399 93.1999 748.099 93.0999 747.699 93.0999C747.199 93.0999 746.799 93.2999 746.599 93.5999C746.399 93.8999 746.199 94.3999 746.199 95.0999V97.9999H745.399V92.5999H746.099L746.199 93.2999C746.399 92.9999 746.599 92.7999 746.899 92.6999C747.199 92.5999 747.499 92.4999 747.799 92.4999C748.599 92.4999 749.199 92.7999 749.399 93.3999C749.599 93.0999 749.799 92.8999 750.099 92.6999C750.399 92.4999 750.799 92.4999 751.099 92.4999C751.699 92.4999 752.199 92.6999 752.499 92.9999C752.799 93.2999 752.999 93.7999 752.999 94.4999V97.9999H752.299ZM757.099 98.0999C756.299 98.0999 755.699 97.8999 755.199 97.3999C754.699 96.8999 754.499 96.1999 754.499 95.3999C754.499 94.4999 754.699 93.8999 755.099 93.2999C755.499 92.7999 756.099 92.4999 756.799 92.4999C757.499 92.4999 757.999 92.6999 758.399 93.1999C758.799 93.5999 758.999 94.1999 758.999 94.8999V95.3999H755.299C755.299 95.9999 755.499 96.4999 755.799 96.7999C756.099 97.0999 756.499 97.2999 757.099 97.2999C757.699 97.2999 758.299 97.1999 758.799 96.8999V97.5999C758.499 97.6999 758.199 97.7999 757.999 97.8999C757.799 98.0999 757.399 98.0999 757.099 98.0999ZM756.899 93.1999C756.499 93.1999 756.099 93.2999 755.899 93.5999C755.599 93.8999 755.499 94.2999 755.499 94.7999H758.299C758.299 94.2999 758.199 93.8999 757.999 93.5999C757.599 93.3999 757.299 93.1999 756.899 93.1999Z" fill="black" fill-opacity="0.65"/>
<path d="M661.6 155.9L660.8 156.1C661.1 156.4 661.4 156.6 661.5 156.9C661.6 157.2 661.7 157.5 661.7 157.9C661.7 158.4 661.6 158.8 661.3 159.2C661 159.5 660.6 159.6 660.1 159.6C659 159.6 658.4 158.7 658.4 157V156.1H658C657.6 156.1 657.3 156.2 657.1 156.4C656.9 156.6 656.8 156.9 656.8 157.3C656.8 157.7 656.9 158.3 657.2 158.8L656.6 159C656.5 158.7 656.3 158.4 656.3 158.1C656.2 157.8 656.2 157.5 656.2 157.2C656.2 156.6 656.3 156.1 656.6 155.8C656.9 155.5 657.3 155.3 658 155.3H661.7V155.9H661.6ZM661 157.7C661 157.2 660.9 156.8 660.6 156.5C660.3 156.2 659.9 156.1 659.4 156.1H659V156.9C659 157.5 659.1 158 659.3 158.3C659.5 158.6 659.8 158.7 660.1 158.7C660.4 158.7 660.6 158.6 660.8 158.4C660.9 158.2 661 158 661 157.7ZM661.6 146.8H658.1C657.7 146.8 657.3 146.9 657.1 147.1C656.9 147.3 656.8 147.6 656.8 148C656.8 148.5 656.9 148.9 657.2 149.1C657.5 149.3 657.9 149.5 658.5 149.5H661.5V150.3H658C657.6 150.3 657.2 150.4 657 150.6C656.8 150.8 656.7 151.1 656.7 151.5C656.7 152 656.9 152.4 657.2 152.6C657.5 152.8 658 153 658.7 153H661.5V153.8H656.2V153.1L656.9 153C656.6 152.8 656.4 152.6 656.3 152.4C656.1 152.1 656.1 151.8 656.1 151.5C656.1 150.7 656.4 150.1 657 149.9C656.7 149.7 656.5 149.5 656.3 149.2C656.1 148.9 656.1 148.6 656.1 148.2C656.1 147.6 656.3 147.1 656.6 146.8C656.9 146.5 657.4 146.3 658.1 146.3H661.6V146.8ZM661.7 141.8C661.7 142.1 661.6 142.5 661.5 142.8C661.4 143.1 661.2 143.3 660.9 143.5V143.6C661.2 143.6 661.5 143.5 661.8 143.5H664V144.3H656.2V143.6L656.9 143.5C656.6 143.3 656.4 143 656.3 142.8C656.2 142.5 656.1 142.2 656.1 141.8C656.1 141.1 656.3 140.5 656.8 140.2C657.3 139.8 658 139.6 658.8 139.6C659.6 139.6 660.4 139.8 660.9 140.2C661.4 140.5 661.7 141.1 661.7 141.8ZM656.8 141.9C656.8 142.4 657 142.8 657.2 143.1C657.5 143.3 658 143.5 658.7 143.5H658.9C659.7 143.5 660.2 143.4 660.5 143.1C660.8 142.8 661 142.4 661 141.9C661 141.4 660.8 141.1 660.4 140.8C660 140.5 659.5 140.4 658.9 140.4C658.2 140.4 657.7 140.5 657.4 140.8C657 141.1 656.8 141.4 656.8 141.9ZM661.6 137.3V138.1H654V137.3H661.6ZM661.6 134.8V135.6H656.3V134.8H661.6ZM654.8 135.7C654.6 135.7 654.5 135.7 654.4 135.6C654.3 135.5 654.3 135.4 654.3 135.3C654.3 135.2 654.3 135.1 654.4 135C654.5 134.9 654.6 134.9 654.8 134.9C655 134.9 655.1 134.9 655.2 135C655.3 135.1 655.3 135.2 655.3 135.3C655.3 135.4 655.3 135.6 655.2 135.6C655.1 135.6 655 135.7 654.8 135.7ZM661 131.3C661 131.2 661 131 661 130.9C661 130.8 660.9 130.7 660.9 130.6H661.5C661.5 130.7 661.6 130.8 661.6 131C661.6 131.2 661.6 131.3 661.6 131.5C661.6 132.5 661.1 133.1 660 133.1H656.8V133.9H656.4L656.1 133.1L655 132.8V132.3H656.2V130.7H656.8V132.3H660C660.3 132.3 660.6 132.2 660.7 132.1C660.9 131.8 661 131.6 661 131.3ZM656.2 128.8H659.7C660.1 128.8 660.5 128.7 660.7 128.5C660.9 128.3 661 128 661 127.6C661 127 660.8 126.6 660.5 126.4C660.2 126.1 659.7 126 659 126H656.2V125.2H661.5V125.9L660.8 126C661.1 126.2 661.3 126.4 661.4 126.7C661.5 127 661.6 127.3 661.6 127.7C661.6 128.4 661.4 128.8 661.1 129.2C660.8 129.5 660.3 129.7 659.6 129.7H656.1V128.8H656.2ZM660.9 119.8C661.4 120.2 661.7 120.8 661.7 121.5C661.7 122.2 661.5 122.7 661 123.1C660.5 123.5 659.8 123.7 659 123.7C658.2 123.7 657.4 123.5 656.9 123.1C656.4 122.7 656.2 122.2 656.2 121.5C656.2 120.8 656.5 120.2 657 119.8V119.7H656.6H656.2H654V119H661.6V119.7L660.9 119.8ZM661 121.4C661 120.8 660.8 120.4 660.5 120.2C660.2 119.9 659.7 119.8 659 119.8H658.8C658 119.8 657.5 119.9 657.2 120.2C656.9 120.5 656.7 120.9 656.7 121.4C656.7 121.9 656.9 122.2 657.3 122.5C657.7 122.8 658.2 122.9 658.9 122.9C659.6 122.9 660.1 122.8 660.5 122.5C660.8 122.2 661 121.9 661 121.4ZM661.7 115C661.7 115.8 661.5 116.4 661 116.9C660.5 117.4 659.8 117.6 659 117.6C658.1 117.6 657.4 117.4 656.9 117C656.4 116.6 656.1 116 656.1 115.3C656.1 114.6 656.3 114.1 656.8 113.7C657.2 113.3 657.8 113.1 658.6 113.1H659.1V116.8C659.7 116.8 660.2 116.6 660.5 116.3C660.8 116 661 115.6 661 115C661 114.4 660.9 113.9 660.6 113.3H661.3C661.4 113.6 661.5 113.9 661.6 114.1C661.7 114.3 661.7 114.6 661.7 115ZM656.8 115.2C656.8 115.6 656.9 116 657.2 116.2C657.5 116.5 657.9 116.6 658.4 116.6V113.8C657.9 113.8 657.5 113.9 657.2 114.1C657 114.5 656.8 114.8 656.8 115.2Z" fill="black" fill-opacity="0.65"/>
<path d="M343.2 184.4C343.3 184.4 343.5 184.4 343.6 184.4C343.7 184.4 343.8 184.4 343.9 184.3V184.9C343.8 184.9 343.7 185 343.5 185C343.3 185 343.2 185 343 185C342 185 341.4 184.5 341.4 183.4V180.2H340.6V179.8L341.4 179.5L341.7 178.4H342.2V179.6H343.8V180.2H342.2V183.3C342.2 183.6 342.3 183.9 342.4 184C342.7 184.3 342.9 184.4 343.2 184.4ZM347.4 179.6C347.6 179.6 347.9 179.6 348 179.7L347.9 180.5C347.7 180.5 347.5 180.4 347.3 180.4C346.9 180.4 346.5 180.6 346.2 180.9C345.9 181.3 345.7 181.7 345.7 182.2V185.1H345V179.7H345.7L345.8 180.7C346 180.4 346.2 180.1 346.5 179.9C346.8 179.6 347.1 179.6 347.4 179.6ZM353.7 182.3C353.7 183.2 353.5 183.9 353 184.3C352.6 184.8 352 185 351.2 185C350.7 185 350.3 184.9 349.9 184.7C349.5 184.5 349.2 184.2 349 183.7C348.8 183.3 348.7 182.8 348.7 182.2C348.7 181.3 348.9 180.6 349.4 180.2C349.8 179.7 350.4 179.5 351.2 179.5C351.9 179.5 352.5 179.7 353 180.2C353.5 180.8 353.7 181.5 353.7 182.3ZM349.6 182.3C349.6 183 349.7 183.5 350 183.9C350.3 184.3 350.7 184.4 351.2 184.4C351.7 184.4 352.1 184.2 352.4 183.9C352.7 183.5 352.8 183 352.8 182.3C352.8 181.6 352.7 181.1 352.4 180.8C352.1 180.4 351.7 180.3 351.2 180.3C350.7 180.3 350.3 180.5 350 180.8C349.7 181.1 349.6 181.6 349.6 182.3ZM355.9 179.6V183.1C355.9 183.5 356 183.9 356.2 184.1C356.4 184.3 356.7 184.4 357.1 184.4C357.7 184.4 358.1 184.2 358.3 183.9C358.6 183.6 358.7 183.1 358.7 182.4V179.6H359.5V185H358.8L358.7 184.3C358.5 184.6 358.3 184.8 358 184.9C357.7 185 357.4 185.1 357 185.1C356.3 185.1 355.9 184.9 355.5 184.6C355.2 184.3 355 183.8 355 183.1V179.6H355.9ZM365.6 179.6V180.1L364.6 180.2C364.7 180.3 364.8 180.5 364.8 180.6C364.9 180.8 364.9 181 364.9 181.2C364.9 181.7 364.7 182.1 364.4 182.5C364 182.8 363.6 183 362.9 183C362.7 183 362.6 183 362.4 183C362.1 183.2 361.9 183.4 361.9 183.7C361.9 183.8 362 184 362.1 184C362.2 184.1 362.4 184.1 362.7 184.1H363.6C364.2 184.1 364.6 184.2 364.9 184.5C365.2 184.7 365.4 185.1 365.4 185.6C365.4 186.2 365.2 186.6 364.7 187C364.2 187.3 363.5 187.5 362.6 187.5C361.9 187.5 361.4 187.4 361 187.1C360.6 186.8 360.4 186.5 360.4 186C360.4 185.7 360.5 185.4 360.7 185.2C360.9 185 361.2 184.8 361.6 184.7C361.5 184.6 361.3 184.5 361.3 184.4C361.2 184.3 361.2 184.1 361.2 183.9C361.2 183.7 361.3 183.5 361.4 183.4C361.5 183.3 361.7 183.1 361.9 183C361.6 182.9 361.4 182.7 361.2 182.4C361 182.1 360.9 181.8 360.9 181.5C360.9 180.9 361.1 180.5 361.4 180.1C361.8 179.8 362.2 179.6 362.9 179.6C363.2 179.6 363.4 179.6 363.7 179.7H365.6V179.6ZM361.4 185.9C361.4 186.2 361.5 186.4 361.8 186.6C362 186.7 362.4 186.8 362.8 186.8C363.5 186.8 364 186.7 364.3 186.5C364.6 186.3 364.8 186 364.8 185.7C364.8 185.4 364.7 185.2 364.5 185.1C364.3 185 364 184.9 363.5 184.9H362.5C362.1 184.9 361.8 185 361.6 185.2C361.5 185.3 361.4 185.6 361.4 185.9ZM361.8 181.4C361.8 181.8 361.9 182.1 362.1 182.3C362.3 182.5 362.6 182.6 363 182.6C363.8 182.6 364.2 182.2 364.2 181.4C364.2 180.6 363.8 180.2 363 180.2C362.6 180.2 362.3 180.3 362.1 180.5C361.9 180.7 361.8 181 361.8 181.4ZM370.4 185V181.5C370.4 181.1 370.3 180.7 370.1 180.5C369.9 180.3 369.6 180.2 369.2 180.2C368.6 180.2 368.2 180.4 368 180.7C367.7 181 367.6 181.5 367.6 182.2V185H366.8V177.4H367.6V179.7C367.6 180 367.6 180.2 367.6 180.4C367.8 180.1 368 179.9 368.3 179.8C368.6 179.6 368.9 179.6 369.3 179.6C370 179.6 370.4 179.8 370.8 180.1C371.1 180.4 371.3 180.9 371.3 181.6V185.1H370.4V185Z" fill="black" fill-opacity="0.65"/>
<path d="M340.599 174L346.399 164H334.899L340.599 174ZM339.599 101V165H341.599V101H339.599Z" fill="black" fill-opacity="0.4"/>
<path d="M455.599 26.1C454.799 26.1 454.199 25.9 453.799 25.4C453.399 24.9 453.199 24.2 453.199 23.4C453.199 22.5 453.399 21.8 453.799 21.3C454.199 20.8 454.799 20.6 455.599 20.6C455.899 20.6 456.099 20.6 456.399 20.7C456.699 20.8 456.899 20.8 456.999 20.9L456.799 21.6C456.599 21.5 456.399 21.5 456.199 21.4C455.999 21.4 455.799 21.3 455.599 21.3C454.499 21.3 453.999 22 453.999 23.4C453.999 24.1 454.099 24.6 454.399 24.9C454.699 25.3 455.099 25.4 455.599 25.4C455.999 25.4 456.499 25.3 456.999 25.1V25.8C456.599 26 456.099 26.1 455.599 26.1ZM460.699 20.6C460.899 20.6 461.199 20.6 461.299 20.7L461.199 21.5C460.999 21.5 460.799 21.4 460.599 21.4C460.199 21.4 459.799 21.6 459.499 21.9C459.199 22.3 458.999 22.7 458.999 23.2V26H458.199V20.6H458.899L458.999 21.6C459.199 21.3 459.399 21 459.699 20.8C459.999 20.6 460.299 20.6 460.699 20.6ZM464.599 26.1C463.799 26.1 463.199 25.9 462.699 25.4C462.199 24.9 461.999 24.2 461.999 23.4C461.999 22.5 462.199 21.9 462.599 21.3C462.999 20.8 463.599 20.5 464.299 20.5C464.999 20.5 465.499 20.7 465.899 21.2C466.299 21.6 466.499 22.2 466.499 22.9V23.4H462.799C462.799 24 462.999 24.5 463.299 24.8C463.599 25.1 463.999 25.3 464.599 25.3C465.199 25.3 465.699 25.2 466.299 24.9V25.6C465.999 25.7 465.699 25.8 465.499 25.9C465.199 26.1 464.899 26.1 464.599 26.1ZM464.299 21.2C463.899 21.2 463.499 21.3 463.299 21.6C462.999 21.9 462.899 22.3 462.899 22.8H465.699C465.699 22.3 465.599 21.9 465.399 21.6C465.099 21.4 464.799 21.2 464.299 21.2ZM471.399 24.5C471.399 25 471.199 25.4 470.799 25.7C470.399 26 469.899 26.1 469.199 26.1C468.499 26.1 467.899 26 467.499 25.8V25C467.799 25.1 467.999 25.2 468.299 25.3C468.599 25.4 468.899 25.4 469.199 25.4C469.599 25.4 469.899 25.3 470.199 25.2C470.399 25.1 470.499 24.9 470.499 24.6C470.499 24.4 470.399 24.2 470.199 24.1C469.999 24 469.699 23.8 469.099 23.6C468.599 23.4 468.199 23.3 467.999 23.1C467.799 23 467.599 22.8 467.499 22.6C467.399 22.4 467.299 22.2 467.299 22C467.299 21.6 467.499 21.2 467.799 21C468.199 20.7 468.599 20.6 469.299 20.6C469.899 20.6 470.399 20.7 470.999 21L470.699 21.7C470.199 21.5 469.699 21.4 469.199 21.4C468.799 21.4 468.499 21.5 468.299 21.6C468.099 21.7 467.999 21.9 467.999 22.1C467.999 22.2 467.999 22.4 468.099 22.5C468.199 22.6 468.299 22.7 468.499 22.8C468.699 22.9 468.999 23 469.399 23.2C469.999 23.4 470.499 23.7 470.699 23.9C471.199 23.9 471.399 24.2 471.399 24.5ZM474.399 25.4C474.499 25.4 474.699 25.4 474.799 25.4C474.899 25.4 474.999 25.4 475.099 25.3V26C474.999 26 474.899 26.1 474.699 26.1C474.499 26.1 474.399 26.1 474.199 26.1C473.199 26.1 472.599 25.6 472.599 24.5V21.3H471.999V20.9L472.799 20.6L473.099 19.5H473.599V20.7H475.199V21.3H473.599V24.4C473.599 24.7 473.699 25 473.799 25.1C473.899 25.3 474.099 25.4 474.399 25.4Z" fill="black" fill-opacity="0.65"/>
<path d="M452.6 30L446.8 40H458.3L452.6 30ZM453.6 102V39H451.6V102H453.6Z" fill="black" fill-opacity="0.4"/>
<path d="M232.8 64.9999L231.8 61.8999C231.7 61.6999 231.6 61.2999 231.5 60.5999C231.4 61.1999 231.3 61.5999 231.2 61.8999L230.2 64.9999H229.3L227.8 59.5999H228.6C228.9 60.8999 229.2 61.9999 229.4 62.6999C229.6 63.3999 229.7 63.8999 229.7 64.0999C229.7 63.8999 229.8 63.6999 229.9 63.3999C230 63.0999 230.1 62.8999 230.1 62.6999L231.1 59.5999H232L233 62.6999C233.2 63.2999 233.3 63.6999 233.4 64.0999C233.4 63.9999 233.4 63.7999 233.5 63.5999C233.6 63.3999 233.9 61.9999 234.5 59.6999H235.3L233.8 65.0999H232.8V64.9999ZM239.5 64.9999L239.3 64.1999C239 64.4999 238.8 64.7999 238.5 64.8999C238.2 64.9999 237.9 65.0999 237.5 65.0999C237 65.0999 236.6 64.9999 236.2 64.6999C235.9 64.3999 235.8 63.9999 235.8 63.4999C235.8 62.3999 236.7 61.8999 238.4 61.7999H239.3V61.4999C239.3 61.0999 239.2 60.7999 239 60.5999C238.8 60.3999 238.5 60.2999 238.1 60.2999C237.7 60.2999 237.2 60.3999 236.6 60.6999L236.4 60.0999C236.7 59.9999 237 59.7999 237.3 59.7999C237.6 59.6999 237.9 59.6999 238.2 59.6999C238.8 59.6999 239.3 59.7999 239.6 60.0999C239.9 60.3999 240.1 60.7999 240.1 61.4999V64.9999H239.5ZM237.7 64.3999C238.2 64.3999 238.6 64.2999 238.9 63.9999C239.2 63.6999 239.3 63.2999 239.3 62.7999V62.2999H238.5C237.9 62.2999 237.4 62.3999 237.1 62.5999C236.8 62.7999 236.7 63.0999 236.7 63.3999C236.7 63.6999 236.8 63.8999 237 64.0999C237.1 64.3999 237.4 64.3999 237.7 64.3999ZM243 64.9999L241 59.5999H241.9L243.1 62.7999C243.4 63.4999 243.5 63.9999 243.6 64.1999C243.6 63.9999 243.7 63.6999 243.9 63.0999C244.1 62.5999 244.5 61.3999 245.2 59.5999H246.1L244.1 64.9999H243ZM249.1 65.0999C248.3 65.0999 247.7 64.8999 247.2 64.3999C246.7 63.8999 246.5 63.1999 246.5 62.3999C246.5 61.4999 246.7 60.8999 247.1 60.2999C247.5 59.7999 248.1 59.4999 248.8 59.4999C249.5 59.4999 250 59.6999 250.4 60.1999C250.8 60.5999 251 61.1999 251 61.8999V62.3999H247.3C247.3 62.9999 247.5 63.4999 247.8 63.7999C248.1 64.0999 248.5 64.2999 249.1 64.2999C249.7 64.2999 250.2 64.1999 250.8 63.8999V64.5999C250.5 64.6999 250.2 64.7999 250 64.8999C249.7 65.0999 249.4 65.0999 249.1 65.0999ZM248.8 60.1999C248.4 60.1999 248 60.2999 247.8 60.5999C247.5 60.8999 247.4 61.2999 247.4 61.7999H250.2C250.2 61.2999 250.1 60.8999 249.9 60.5999C249.6 60.3999 249.3 60.1999 248.8 60.1999ZM255.8 64.9999H255V57.3999H255.8V64.9999ZM259.8 65.0999C259 65.0999 258.4 64.8999 257.9 64.3999C257.4 63.8999 257.2 63.1999 257.2 62.3999C257.2 61.4999 257.4 60.8999 257.8 60.2999C258.2 59.7999 258.8 59.4999 259.5 59.4999C260.2 59.4999 260.7 59.6999 261.1 60.1999C261.5 60.5999 261.7 61.1999 261.7 61.8999V62.3999H258C258 62.9999 258.2 63.4999 258.5 63.7999C258.8 64.0999 259.2 64.2999 259.8 64.2999C260.4 64.2999 260.9 64.1999 261.5 63.8999V64.5999C261.2 64.6999 260.9 64.7999 260.7 64.8999C260.5 65.0999 260.2 65.0999 259.8 65.0999ZM259.6 60.1999C259.2 60.1999 258.8 60.2999 258.6 60.5999C258.3 60.8999 258.2 61.2999 258.1 61.7999H260.9C260.9 61.2999 260.8 60.8999 260.6 60.5999C260.3 60.3999 260 60.1999 259.6 60.1999ZM266.8 64.9999V61.4999C266.8 61.0999 266.7 60.6999 266.5 60.4999C266.3 60.2999 266 60.1999 265.6 60.1999C265 60.1999 264.6 60.3999 264.4 60.6999C264.1 60.9999 264 61.4999 264 62.1999V64.9999H263.2V59.5999H263.9L264 60.2999C264.2 59.9999 264.4 59.7999 264.7 59.6999C265 59.5999 265.3 59.4999 265.7 59.4999C266.3 59.4999 266.8 59.6999 267.2 59.9999C267.5 60.2999 267.7 60.7999 267.7 61.4999V64.9999H266.8ZM273.7 59.5999V60.0999L272.7 60.1999C272.8 60.2999 272.9 60.4999 272.9 60.5999C273 60.7999 273 60.9999 273 61.1999C273 61.6999 272.8 62.0999 272.5 62.4999C272.1 62.7999 271.7 62.9999 271 62.9999C270.8 62.9999 270.7 62.9999 270.6 62.9999C270.3 63.1999 270.1 63.3999 270.1 63.6999C270.1 63.7999 270.2 63.9999 270.3 63.9999C270.4 64.0999 270.6 64.0999 270.9 64.0999H271.8C272.4 64.0999 272.8 64.1999 273.1 64.4999C273.4 64.6999 273.6 65.0999 273.6 65.5999C273.6 66.1999 273.4 66.5999 272.9 66.9999C272.4 67.2999 271.7 67.4999 270.8 67.4999C270.1 67.4999 269.6 67.3999 269.2 67.0999C268.8 66.7999 268.6 66.4999 268.6 65.9999C268.6 65.6999 268.7 65.3999 268.9 65.1999C269.1 64.9999 269.4 64.7999 269.8 64.6999C269.7 64.5999 269.5 64.4999 269.5 64.3999C269.4 64.2999 269.4 64.0999 269.4 63.8999C269.4 63.6999 269.5 63.4999 269.6 63.3999C269.7 63.2999 269.9 63.0999 270.1 62.9999C269.8 62.8999 269.6 62.6999 269.4 62.3999C269.2 62.0999 269.1 61.7999 269.1 61.4999C269.1 60.8999 269.3 60.4999 269.6 60.0999C270 59.7999 270.4 59.5999 271.1 59.5999C271.4 59.5999 271.6 59.5999 271.9 59.6999H273.7V59.5999ZM269.4 65.8999C269.4 66.1999 269.5 66.3999 269.8 66.5999C270 66.6999 270.4 66.7999 270.8 66.7999C271.5 66.7999 272 66.6999 272.3 66.4999C272.6 66.2999 272.8 65.9999 272.8 65.6999C272.8 65.3999 272.7 65.1999 272.5 65.0999C272.3 64.9999 272 64.8999 271.5 64.8999H270.5C270.1 64.8999 269.8 64.9999 269.6 65.1999C269.5 65.2999 269.4 65.5999 269.4 65.8999ZM269.9 61.3999C269.9 61.7999 270 62.0999 270.2 62.1999C270.4 62.3999 270.7 62.4999 271.1 62.4999C271.9 62.4999 272.3 62.0999 272.3 61.2999C272.3 60.4999 271.9 60.0999 271.1 60.0999C270.7 60.0999 270.4 60.1999 270.2 60.3999C270 60.5999 269.9 60.9999 269.9 61.3999ZM276.5 64.3999C276.6 64.3999 276.8 64.3999 276.9 64.3999C277 64.3999 277.1 64.3999 277.2 64.2999V64.9999C277.1 64.9999 277 65.0999 276.8 65.0999C276.6 65.0999 276.5 65.0999 276.3 65.0999C275.3 65.0999 274.7 64.5999 274.7 63.4999V60.2999H273.9V59.8999L274.7 59.5999L275 58.4999H275.5V59.6999H277.1V60.2999H275.5V63.3999C275.5 63.6999 275.6 63.9999 275.7 64.0999C276 64.2999 276.2 64.3999 276.5 64.3999ZM282 64.9999V61.4999C282 61.0999 281.9 60.6999 281.7 60.4999C281.5 60.2999 281.2 60.1999 280.8 60.1999C280.2 60.1999 279.8 60.3999 279.6 60.6999C279.3 60.9999 279.2 61.4999 279.2 62.1999V64.9999H278.4V57.3999H279.2V59.6999C279.2 59.9999 279.2 60.1999 279.2 60.3999C279.4 60.0999 279.6 59.8999 279.9 59.7999C280.2 59.6999 280.5 59.5999 280.9 59.5999C281.6 59.5999 282 59.7999 282.4 60.0999C282.7 60.3999 282.9 60.8999 282.9 61.5999V64.9999H282Z" fill="black" fill-opacity="0.65"/>
<path d="M216.71 61.09H217.665C217.665 62.5222 217.188 63.477 216.233 64.1453C215.373 64.8137 214.228 65.1001 212.796 65.1001C211.745 65.1001 210.6 64.9091 209.645 64.5272C208.595 64.0498 207.64 62.9996 206.876 61.09L204.585 55.9343L196.66 65.0046H191.6L203.057 52.688C202.389 51.0649 201.72 49.9192 200.861 49.1554C200.002 48.3916 198.951 48.0096 197.71 48.0096C196.66 48.0096 195.801 48.2006 195.037 48.5825C194.273 48.9644 193.891 49.5373 193.796 50.3966H192.841C192.841 49.0599 193.414 48.0096 194.368 47.2458C195.323 46.482 196.564 46.1001 198.092 46.1001C199.047 46.1001 200.002 46.2911 200.861 46.673C201.72 47.0549 202.484 47.7232 203.057 48.678C203.725 49.6328 204.68 51.6378 206.017 54.5976L207.926 58.7986C208.69 60.5172 209.454 61.7584 210.313 62.3313C211.172 62.9041 212.223 63.1905 213.368 63.1905C215.373 63.1905 216.424 62.5222 216.71 61.09Z" fill="black" fill-opacity="0.65"/>
<path d="M1.59961 74.5L11.5996 80.3V68.7L1.59961 74.5ZM443.6 74.5L433.6 68.7V80.2L443.6 74.5ZM366.6 74.5V73.5V74.5ZM10.5996 75.5H366.6V73.5H10.5996V75.5ZM366.6 75.5H434.6V73.5H366.6V75.5Z" fill="black" fill-opacity="0.4"/>
<path d="M668.6 0.5L662.8 10.5H674.3L668.6 0.5ZM669.6 200.5V9.5H667.6V200.5H669.6Z" fill="#28313A" fill-opacity="0.4"/>
<path d="M1332.6 100.5L1322.6 94.7V106.2L1332.6 100.5ZM-51.4004 103L1323.6 101.5V99.5L-51.4004 101V103Z" fill="black" fill-opacity="0.4"/>
<path d="M25.9095 134.754H26.1623C27.6793 134.754 28.8634 134.349 29.7146 133.54C30.5742 132.723 31.004 131.589 31.004 130.14C31.004 128.791 30.6037 127.721 29.8031 126.929C29.0109 126.137 27.9195 125.741 26.5289 125.741H25.9095V134.754ZM23.0526 140V137.156H22.6354C21.1269 137.156 19.7995 136.882 18.6534 136.334C17.5156 135.778 16.6223 134.948 15.9734 133.844C15.3245 132.74 15 131.513 15 130.165C15 128.859 15.295 127.683 15.8849 126.638C16.4748 125.585 17.3218 124.763 18.4258 124.173C19.5298 123.575 20.8235 123.275 22.3067 123.275H23.0526V121H25.9095V123.275H26.6806C28.1723 123.275 29.466 123.57 30.5615 124.16C31.6656 124.75 32.5041 125.568 33.0772 126.613C33.6587 127.649 33.9494 128.833 33.9494 130.165C33.9494 131.539 33.625 132.773 32.976 133.869C32.3271 134.965 31.4338 135.786 30.2961 136.334C29.1668 136.882 27.8394 137.156 26.314 137.156H25.9095V140H23.0526ZM23.0526 125.741H22.4331C21.0342 125.741 19.9386 126.141 19.1464 126.941C18.3542 127.734 17.9581 128.8 17.9581 130.14C17.9581 131.572 18.3837 132.702 19.2349 133.528C20.0861 134.345 21.2828 134.754 22.825 134.754H23.0526V125.741Z" fill="black" fill-opacity="0.4"/>
</g>
<defs>
<clipPath id="clip0">
<rect width="1333.1" height="201" fill="white"/>
</clipPath>
</defs>
</svg>
