<svg width="377" height="261" viewBox="0 0 377 261" fill="none" xmlns="http://www.w3.org/2000/svg">
<path d="M54.7969 89.7344H47.25V103H28.9688V89.7344H1.64062V76.1406L30.1406 34.4688H47.25V75.9062H54.7969V89.7344ZM28.9688 75.9062V67.9375C28.9688 66.4375 29.0156 64.4219 29.1094 61.8906C29.2344 59.3281 29.3281 57.9844 29.3906 57.8594H28.875C27.8125 60.2656 26.6094 62.5156 25.2656 64.6094L17.6719 75.9062H28.9688ZM109.125 68.8281C109.125 80.9531 107.094 89.8438 103.031 95.5C98.9688 101.125 92.75 103.938 84.375 103.938C76.1875 103.938 70.0156 101 65.8594 95.125C61.7031 89.2188 59.625 80.4531 59.625 68.8281C59.625 56.6406 61.6562 47.7031 65.7188 42.0156C69.7812 36.3281 76 33.4844 84.375 33.4844C92.5312 33.4844 98.6875 36.4531 102.844 42.3906C107.031 48.2969 109.125 57.1094 109.125 68.8281ZM78.0469 68.8281C78.0469 76.5781 78.5312 81.9062 79.5 84.8125C80.4688 87.7188 82.0938 89.1719 84.375 89.1719C86.6875 89.1719 88.3125 87.6719 89.25 84.6719C90.2188 81.6719 90.7031 76.3906 90.7031 68.8281C90.7031 61.2344 90.2188 55.9219 89.25 52.8906C88.2812 49.8281 86.6562 48.2969 84.375 48.2969C82.0938 48.2969 80.4688 49.7656 79.5 52.7031C78.5312 55.6406 78.0469 61.0156 78.0469 68.8281ZM167.297 89.7344H159.75V103H141.469V89.7344H114.141V76.1406L142.641 34.4688H159.75V75.9062H167.297V89.7344ZM141.469 75.9062V67.9375C141.469 66.4375 141.516 64.4219 141.609 61.8906C141.734 59.3281 141.828 57.9844 141.891 57.8594H141.375C140.312 60.2656 139.109 62.5156 137.766 64.6094L130.172 75.9062H141.469ZM172.781 95.2188C172.781 92.3438 173.625 90.125 175.312 88.5625C177.031 87 179.516 86.2188 182.766 86.2188C185.859 86.2188 188.234 87 189.891 88.5625C191.547 90.125 192.375 92.3438 192.375 95.2188C192.375 98.0312 191.516 100.234 189.797 101.828C188.109 103.391 185.766 104.172 182.766 104.172C179.672 104.172 177.234 103.391 175.453 101.828C173.672 100.266 172.781 98.0625 172.781 95.2188ZM172.781 58.1875C172.781 55.3438 173.641 53.1406 175.359 51.5781C177.078 50.0156 179.547 49.2344 182.766 49.2344C185.859 49.2344 188.234 50.0156 189.891 51.5781C191.547 53.1406 192.375 55.3438 192.375 58.1875C192.375 61 191.531 63.2031 189.844 64.7969C188.156 66.3906 185.797 67.1875 182.766 67.1875C179.578 67.1875 177.109 66.3906 175.359 64.7969C173.641 63.2031 172.781 61 172.781 58.1875Z" fill="#637895"/>
<path d="M26.1094 171.594C26.1094 173.719 25.5703 175.609 24.4922 177.266C23.4141 178.906 21.8594 180.188 19.8281 181.109C17.7969 182.016 15.4141 182.469 12.6797 182.469C10.3984 182.469 8.48438 182.312 6.9375 182C5.39062 181.672 3.78125 181.109 2.10938 180.312V172.062C3.875 172.969 5.71094 173.68 7.61719 174.195C9.52344 174.695 11.2734 174.945 12.8672 174.945C14.2422 174.945 15.25 174.711 15.8906 174.242C16.5312 173.758 16.8516 173.141 16.8516 172.391C16.8516 171.922 16.7188 171.516 16.4531 171.172C16.2031 170.812 15.7891 170.453 15.2109 170.094C14.6484 169.734 13.1328 169 10.6641 167.891C8.42969 166.875 6.75 165.891 5.625 164.938C4.51562 163.984 3.6875 162.891 3.14062 161.656C2.60938 160.422 2.34375 158.961 2.34375 157.273C2.34375 154.117 3.49219 151.656 5.78906 149.891C8.08594 148.125 11.2422 147.242 15.2578 147.242C18.8047 147.242 22.4219 148.062 26.1094 149.703L23.2734 156.852C20.0703 155.383 17.3047 154.648 14.9766 154.648C13.7734 154.648 12.8984 154.859 12.3516 155.281C11.8047 155.703 11.5312 156.227 11.5312 156.852C11.5312 157.523 11.875 158.125 12.5625 158.656C13.2656 159.188 15.1562 160.156 18.2344 161.562C21.1875 162.891 23.2344 164.32 24.375 165.852C25.5312 167.367 26.1094 169.281 26.1094 171.594ZM56.2266 168.664C56.2266 173.008 55.0547 176.398 52.7109 178.836C50.3828 181.258 47.1172 182.469 42.9141 182.469C38.8828 182.469 35.6719 181.227 33.2812 178.742C30.9062 176.258 29.7188 172.898 29.7188 168.664C29.7188 164.336 30.8828 160.977 33.2109 158.586C35.5547 156.18 38.8359 154.977 43.0547 154.977C45.6641 154.977 47.9688 155.531 49.9688 156.641C51.9688 157.75 53.5078 159.344 54.5859 161.422C55.6797 163.484 56.2266 165.898 56.2266 168.664ZM39.0234 168.664C39.0234 170.945 39.3281 172.688 39.9375 173.891C40.5469 175.078 41.5703 175.672 43.0078 175.672C44.4297 175.672 45.4297 175.078 46.0078 173.891C46.6016 172.688 46.8984 170.945 46.8984 168.664C46.8984 166.398 46.6016 164.688 46.0078 163.531C45.4141 162.375 44.3984 161.797 42.9609 161.797C41.5547 161.797 40.5469 162.375 39.9375 163.531C39.3281 164.672 39.0234 166.383 39.0234 168.664ZM94.0781 182V167.562C94.0781 165.766 93.8281 164.422 93.3281 163.531C92.8438 162.625 92.0703 162.172 91.0078 162.172C89.6016 162.172 88.5703 162.773 87.9141 163.977C87.2578 165.18 86.9297 167.062 86.9297 169.625V182H77.7422V167.562C77.7422 165.766 77.5078 164.422 77.0391 163.531C76.5703 162.625 75.8125 162.172 74.7656 162.172C73.3281 162.172 72.2812 162.812 71.625 164.094C70.9688 165.375 70.6406 167.469 70.6406 170.375V182H61.4766V155.445H68.3906L69.5391 158.727H70.0781C70.7812 157.508 71.7969 156.578 73.125 155.938C74.4688 155.297 75.9922 154.977 77.6953 154.977C81.5234 154.977 84.2109 156.141 85.7578 158.469H86.4844C87.2344 157.375 88.2734 156.523 89.6016 155.914C90.9453 155.289 92.4219 154.977 94.0312 154.977C97.1719 154.977 99.4922 155.781 100.992 157.391C102.492 159 103.242 161.445 103.242 164.727V182H94.0781ZM122.297 182.469C117.875 182.469 114.438 181.297 111.984 178.953C109.547 176.594 108.328 173.242 108.328 168.898C108.328 164.414 109.461 160.977 111.727 158.586C113.992 156.18 117.227 154.977 121.43 154.977C125.43 154.977 128.516 156.023 130.688 158.117C132.875 160.195 133.969 163.195 133.969 167.117V171.195H117.586C117.648 172.68 118.188 173.844 119.203 174.688C120.234 175.531 121.633 175.953 123.398 175.953C125.008 175.953 126.484 175.805 127.828 175.508C129.188 175.195 130.656 174.672 132.234 173.938V180.523C130.797 181.258 129.312 181.766 127.781 182.047C126.25 182.328 124.422 182.469 122.297 182.469ZM121.758 161.211C120.68 161.211 119.773 161.555 119.039 162.242C118.32 162.914 117.898 163.977 117.773 165.43H125.648C125.617 164.148 125.25 163.125 124.547 162.359C123.859 161.594 122.93 161.211 121.758 161.211ZM152.156 175.227C153.391 175.227 154.867 174.922 156.586 174.312V180.992C155.352 181.523 154.172 181.898 153.047 182.117C151.938 182.352 150.633 182.469 149.133 182.469C146.055 182.469 143.836 181.719 142.477 180.219C141.117 178.703 140.438 176.383 140.438 173.258V162.312H137.227V158.586L141.305 155.703L143.672 150.125H149.672V155.445H156.188V162.312H149.672V172.648C149.672 174.367 150.5 175.227 152.156 175.227ZM177.938 182V167.516C177.938 163.953 176.883 162.172 174.773 162.172C173.273 162.172 172.164 162.805 171.445 164.07C170.742 165.32 170.391 167.406 170.391 170.328V182H161.227V145.531H170.391V150.711C170.391 153.055 170.266 155.727 170.016 158.727H170.438C171.312 157.352 172.352 156.383 173.555 155.82C174.758 155.258 176.156 154.977 177.75 154.977C180.719 154.977 183.023 155.836 184.664 157.555C186.32 159.258 187.148 161.648 187.148 164.727V182H177.938ZM202.594 182H193.43V155.445H202.594V182ZM193.195 148.836C193.195 147.461 193.578 146.438 194.344 145.766C195.109 145.094 196.344 144.758 198.047 144.758C199.75 144.758 200.992 145.102 201.773 145.789C202.555 146.477 202.945 147.492 202.945 148.836C202.945 151.523 201.312 152.867 198.047 152.867C194.812 152.867 193.195 151.523 193.195 148.836ZM225.75 182V167.516C225.75 165.75 225.492 164.422 224.977 163.531C224.477 162.625 223.664 162.172 222.539 162.172C220.992 162.172 219.875 162.789 219.188 164.023C218.5 165.258 218.156 167.375 218.156 170.375V182H208.992V155.445H215.906L217.055 158.727H217.594C218.375 157.477 219.453 156.539 220.828 155.914C222.219 155.289 223.812 154.977 225.609 154.977C228.547 154.977 230.828 155.828 232.453 157.531C234.094 159.234 234.914 161.633 234.914 164.727V182H225.75ZM266.203 155.445V159.875L262.57 161.211C263.07 162.117 263.32 163.172 263.32 164.375C263.32 167.234 262.312 169.453 260.297 171.031C258.297 172.609 255.305 173.398 251.32 173.398C250.336 173.398 249.555 173.336 248.977 173.211C248.758 173.617 248.648 174 248.648 174.359C248.648 174.812 249.016 175.164 249.75 175.414C250.484 175.648 251.445 175.766 252.633 175.766H257.039C262.992 175.766 265.969 178.273 265.969 183.289C265.969 186.523 264.586 189.039 261.82 190.836C259.07 192.633 255.203 193.531 250.219 193.531C246.453 193.531 243.547 192.898 241.5 191.633C239.469 190.383 238.453 188.578 238.453 186.219C238.453 183.047 240.422 181 244.359 180.078C243.547 179.734 242.836 179.18 242.227 178.414C241.633 177.648 241.336 176.891 241.336 176.141C241.336 175.312 241.562 174.586 242.016 173.961C242.469 173.32 243.414 172.562 244.852 171.688C243.477 171.078 242.391 170.125 241.594 168.828C240.812 167.531 240.422 165.953 240.422 164.094C240.422 161.203 241.406 158.961 243.375 157.367C245.344 155.773 248.156 154.977 251.812 154.977C252.297 154.977 253.133 155.031 254.32 155.141C255.508 155.25 256.383 155.352 256.945 155.445H266.203ZM246.188 185.305C246.188 186.055 246.594 186.656 247.406 187.109C248.219 187.578 249.305 187.812 250.664 187.812C252.883 187.812 254.656 187.531 255.984 186.969C257.328 186.422 258 185.711 258 184.836C258 184.133 257.594 183.633 256.781 183.336C255.969 183.055 254.805 182.914 253.289 182.914H249.703C248.719 182.914 247.883 183.141 247.195 183.594C246.523 184.062 246.188 184.633 246.188 185.305ZM249.07 164.141C249.07 166.859 250.016 168.219 251.906 168.219C252.781 168.219 253.453 167.883 253.922 167.211C254.406 166.539 254.648 165.531 254.648 164.188C254.648 161.438 253.734 160.062 251.906 160.062C250.016 160.062 249.07 161.422 249.07 164.141ZM291.938 182H282.773V155.445H291.938V182ZM282.539 148.836C282.539 147.461 282.922 146.438 283.688 145.766C284.453 145.094 285.688 144.758 287.391 144.758C289.094 144.758 290.336 145.102 291.117 145.789C291.898 146.477 292.289 147.492 292.289 148.836C292.289 151.523 290.656 152.867 287.391 152.867C284.156 152.867 282.539 151.523 282.539 148.836ZM318.844 173.844C318.844 176.688 317.875 178.836 315.938 180.289C314 181.742 311.219 182.469 307.594 182.469C305.625 182.469 303.914 182.359 302.461 182.141C301.008 181.938 299.523 181.555 298.008 180.992V173.656C299.43 174.281 300.984 174.797 302.672 175.203C304.375 175.609 305.891 175.812 307.219 175.812C309.203 175.812 310.195 175.359 310.195 174.453C310.195 173.984 309.914 173.57 309.352 173.211C308.805 172.836 307.195 172.117 304.523 171.055C302.086 170.055 300.383 168.922 299.414 167.656C298.445 166.375 297.961 164.758 297.961 162.805C297.961 160.336 298.914 158.414 300.82 157.039C302.727 155.664 305.422 154.977 308.906 154.977C310.656 154.977 312.297 155.172 313.828 155.562C315.375 155.938 316.977 156.492 318.633 157.227L316.148 163.133C314.93 162.586 313.641 162.125 312.281 161.75C310.922 161.359 309.812 161.164 308.953 161.164C307.453 161.164 306.703 161.531 306.703 162.266C306.703 162.719 306.961 163.109 307.477 163.438C308.008 163.75 309.523 164.398 312.023 165.383C313.883 166.148 315.266 166.898 316.172 167.633C317.094 168.367 317.766 169.234 318.188 170.234C318.625 171.219 318.844 172.422 318.844 173.844ZM35.7656 247V232.562C35.7656 230.766 35.5156 229.422 35.0156 228.531C34.5312 227.625 33.7578 227.172 32.6953 227.172C31.2891 227.172 30.2578 227.773 29.6016 228.977C28.9453 230.18 28.6172 232.062 28.6172 234.625V247H19.4297V232.562C19.4297 230.766 19.1953 229.422 18.7266 228.531C18.2578 227.625 17.5 227.172 16.4531 227.172C15.0156 227.172 13.9688 227.812 13.3125 229.094C12.6562 230.375 12.3281 232.469 12.3281 235.375V247H3.16406V220.445H10.0781L11.2266 223.727H11.7656C12.4688 222.508 13.4844 221.578 14.8125 220.938C16.1562 220.297 17.6797 219.977 19.3828 219.977C23.2109 219.977 25.8984 221.141 27.4453 223.469H28.1719C28.9219 222.375 29.9609 221.523 31.2891 220.914C32.6328 220.289 34.1094 219.977 35.7188 219.977C38.8594 219.977 41.1797 220.781 42.6797 222.391C44.1797 224 44.9297 226.445 44.9297 229.727V247H35.7656ZM60.375 247H51.2109V220.445H60.375V247ZM50.9766 213.836C50.9766 212.461 51.3594 211.438 52.125 210.766C52.8906 210.094 54.125 209.758 55.8281 209.758C57.5312 209.758 58.7734 210.102 59.5547 210.789C60.3359 211.477 60.7266 212.492 60.7266 213.836C60.7266 216.523 59.0938 217.867 55.8281 217.867C52.5938 217.867 50.9766 216.523 50.9766 213.836ZM87.2812 238.844C87.2812 241.688 86.3125 243.836 84.375 245.289C82.4375 246.742 79.6562 247.469 76.0312 247.469C74.0625 247.469 72.3516 247.359 70.8984 247.141C69.4453 246.938 67.9609 246.555 66.4453 245.992V238.656C67.8672 239.281 69.4219 239.797 71.1094 240.203C72.8125 240.609 74.3281 240.812 75.6562 240.812C77.6406 240.812 78.6328 240.359 78.6328 239.453C78.6328 238.984 78.3516 238.57 77.7891 238.211C77.2422 237.836 75.6328 237.117 72.9609 236.055C70.5234 235.055 68.8203 233.922 67.8516 232.656C66.8828 231.375 66.3984 229.758 66.3984 227.805C66.3984 225.336 67.3516 223.414 69.2578 222.039C71.1641 220.664 73.8594 219.977 77.3438 219.977C79.0938 219.977 80.7344 220.172 82.2656 220.562C83.8125 220.938 85.4141 221.492 87.0703 222.227L84.5859 228.133C83.3672 227.586 82.0781 227.125 80.7188 226.75C79.3594 226.359 78.25 226.164 77.3906 226.164C75.8906 226.164 75.1406 226.531 75.1406 227.266C75.1406 227.719 75.3984 228.109 75.9141 228.438C76.4453 228.75 77.9609 229.398 80.4609 230.383C82.3203 231.148 83.7031 231.898 84.6094 232.633C85.5312 233.367 86.2031 234.234 86.625 235.234C87.0625 236.219 87.2812 237.422 87.2812 238.844ZM112.875 238.844C112.875 241.688 111.906 243.836 109.969 245.289C108.031 246.742 105.25 247.469 101.625 247.469C99.6562 247.469 97.9453 247.359 96.4922 247.141C95.0391 246.938 93.5547 246.555 92.0391 245.992V238.656C93.4609 239.281 95.0156 239.797 96.7031 240.203C98.4062 240.609 99.9219 240.812 101.25 240.812C103.234 240.812 104.227 240.359 104.227 239.453C104.227 238.984 103.945 238.57 103.383 238.211C102.836 237.836 101.227 237.117 98.5547 236.055C96.1172 235.055 94.4141 233.922 93.4453 232.656C92.4766 231.375 91.9922 229.758 91.9922 227.805C91.9922 225.336 92.9453 223.414 94.8516 222.039C96.7578 220.664 99.4531 219.977 102.938 219.977C104.688 219.977 106.328 220.172 107.859 220.562C109.406 220.938 111.008 221.492 112.664 222.227L110.18 228.133C108.961 227.586 107.672 227.125 106.312 226.75C104.953 226.359 103.844 226.164 102.984 226.164C101.484 226.164 100.734 226.531 100.734 227.266C100.734 227.719 100.992 228.109 101.508 228.438C102.039 228.75 103.555 229.398 106.055 230.383C107.914 231.148 109.297 231.898 110.203 232.633C111.125 233.367 111.797 234.234 112.219 235.234C112.656 236.219 112.875 237.422 112.875 238.844ZM127.172 247H118.008V220.445H127.172V247ZM117.773 213.836C117.773 212.461 118.156 211.438 118.922 210.766C119.688 210.094 120.922 209.758 122.625 209.758C124.328 209.758 125.57 210.102 126.352 210.789C127.133 211.477 127.523 212.492 127.523 213.836C127.523 216.523 125.891 217.867 122.625 217.867C119.391 217.867 117.773 216.523 117.773 213.836ZM150.328 247V232.516C150.328 230.75 150.07 229.422 149.555 228.531C149.055 227.625 148.242 227.172 147.117 227.172C145.57 227.172 144.453 227.789 143.766 229.023C143.078 230.258 142.734 232.375 142.734 235.375V247H133.57V220.445H140.484L141.633 223.727H142.172C142.953 222.477 144.031 221.539 145.406 220.914C146.797 220.289 148.391 219.977 150.188 219.977C153.125 219.977 155.406 220.828 157.031 222.531C158.672 224.234 159.492 226.633 159.492 229.727V247H150.328ZM190.781 220.445V224.875L187.148 226.211C187.648 227.117 187.898 228.172 187.898 229.375C187.898 232.234 186.891 234.453 184.875 236.031C182.875 237.609 179.883 238.398 175.898 238.398C174.914 238.398 174.133 238.336 173.555 238.211C173.336 238.617 173.227 239 173.227 239.359C173.227 239.812 173.594 240.164 174.328 240.414C175.062 240.648 176.023 240.766 177.211 240.766H181.617C187.57 240.766 190.547 243.273 190.547 248.289C190.547 251.523 189.164 254.039 186.398 255.836C183.648 257.633 179.781 258.531 174.797 258.531C171.031 258.531 168.125 257.898 166.078 256.633C164.047 255.383 163.031 253.578 163.031 251.219C163.031 248.047 165 246 168.938 245.078C168.125 244.734 167.414 244.18 166.805 243.414C166.211 242.648 165.914 241.891 165.914 241.141C165.914 240.312 166.141 239.586 166.594 238.961C167.047 238.32 167.992 237.562 169.43 236.688C168.055 236.078 166.969 235.125 166.172 233.828C165.391 232.531 165 230.953 165 229.094C165 226.203 165.984 223.961 167.953 222.367C169.922 220.773 172.734 219.977 176.391 219.977C176.875 219.977 177.711 220.031 178.898 220.141C180.086 220.25 180.961 220.352 181.523 220.445H190.781ZM170.766 250.305C170.766 251.055 171.172 251.656 171.984 252.109C172.797 252.578 173.883 252.812 175.242 252.812C177.461 252.812 179.234 252.531 180.562 251.969C181.906 251.422 182.578 250.711 182.578 249.836C182.578 249.133 182.172 248.633 181.359 248.336C180.547 248.055 179.383 247.914 177.867 247.914H174.281C173.297 247.914 172.461 248.141 171.773 248.594C171.102 249.062 170.766 249.633 170.766 250.305ZM173.648 229.141C173.648 231.859 174.594 233.219 176.484 233.219C177.359 233.219 178.031 232.883 178.5 232.211C178.984 231.539 179.227 230.531 179.227 229.188C179.227 226.438 178.312 225.062 176.484 225.062C174.594 225.062 173.648 226.422 173.648 229.141ZM193.688 243.109C193.688 241.672 194.109 240.562 194.953 239.781C195.812 239 197.055 238.609 198.68 238.609C200.227 238.609 201.414 239 202.242 239.781C203.07 240.562 203.484 241.672 203.484 243.109C203.484 244.516 203.055 245.617 202.195 246.414C201.352 247.195 200.18 247.586 198.68 247.586C197.133 247.586 195.914 247.195 195.023 246.414C194.133 245.633 193.688 244.531 193.688 243.109Z" fill="#637895"/>
</svg>
