<svg width="19" height="19" viewBox="0 0 19 19" fill="none" xmlns="http://www.w3.org/2000/svg">
<path d="M8.06736 16C9.85431 15.9996 11.5898 15.4054 12.9974 14.312L17.423 18.708L18.8466 17.294L14.4209 12.898C15.5223 11.4997 16.1209 9.77544 16.1213 8C16.1213 3.589 12.5081 0 8.06736 0C3.62663 0 0.0134277 3.589 0.0134277 8C0.0134277 12.411 3.62663 16 8.06736 16ZM8.06736 2C11.3987 2 14.1078 4.691 14.1078 8C14.1078 11.309 11.3987 14 8.06736 14C4.73605 14 2.02691 11.309 2.02691 8C2.02691 4.691 4.73605 2 8.06736 2Z" fill="#F3A738"/>
</svg>
