<svg width="22" height="23" viewBox="0 0 22 23" fill="none" xmlns="http://www.w3.org/2000/svg">
<path d="M11.0001 7.20003C10.2485 7.20003 9.51383 7.42289 8.88892 7.84044C8.26401 8.25799 7.77696 8.85147 7.48935 9.54583C7.20173 10.2402 7.12648 11.0042 7.2731 11.7414C7.41973 12.4785 7.78164 13.1556 8.31308 13.687C8.84452 14.2185 9.52162 14.5804 10.2587 14.727C10.9959 14.8736 11.7599 14.7984 12.4543 14.5108C13.1486 14.2232 13.7421 13.7361 14.1597 13.1112C14.5772 12.4863 14.8001 11.7516 14.8001 11C14.8001 9.99221 14.3997 9.02566 13.6871 8.31302C12.9745 7.60038 12.0079 7.20003 11.0001 7.20003ZM11.0001 13.3C10.5452 13.3 10.1005 13.1651 9.72228 12.9124C9.34404 12.6597 9.04925 12.3005 8.87516 11.8802C8.70108 11.4599 8.65554 10.9975 8.74428 10.5513C8.83303 10.1052 9.05208 9.69534 9.37374 9.37368C9.6954 9.05202 10.1052 8.83297 10.5514 8.74422C10.9975 8.65548 11.46 8.70102 11.8803 8.87511C12.3005 9.04919 12.6597 9.34398 12.9125 9.72222C13.1652 10.1004 13.3001 10.5451 13.3001 11C13.3001 11.61 13.0578 12.195 12.6264 12.6264C12.1951 13.0577 11.6101 13.3 11.0001 13.3ZM19.2901 10.16L21.6601 8.16003L21.4501 7.51003C21.2094 6.79894 20.9014 6.11249 20.5301 5.46003C20.1519 4.81084 19.7097 4.20114 19.2101 3.64003L18.7501 3.13003L15.8801 4.24003L14.4101 3.40003L13.9101 0.400028L13.2401 0.260028C11.7626 -0.0472881 10.2376 -0.0472881 8.76009 0.260028L8.09009 0.400028L7.59009 3.40003L6.12009 4.24003L3.25009 3.17003L2.79009 3.68003C2.29047 4.24114 1.84827 4.85084 1.47009 5.50003C1.0988 6.15249 0.790734 6.83894 0.550088 7.55003L0.340088 8.20003L2.71009 10.2V11.88L0.340088 13.88L0.550088 14.53C0.790734 15.2411 1.0988 15.9276 1.47009 16.58C1.84827 17.2292 2.29047 17.8389 2.79009 18.4L3.25009 18.91L6.12009 17.84L7.59009 18.68L8.09009 21.68L8.76009 21.82C10.2376 22.1273 11.7626 22.1273 13.2401 21.82L13.9101 21.68L14.4101 18.68L15.8801 17.84L18.7501 18.91L19.2101 18.4C19.7097 17.8389 20.1519 17.2292 20.5301 16.58C20.9014 15.9276 21.2094 15.2411 21.4501 14.53L21.6601 13.88L19.2901 11.88V10.16ZM19.9101 14.3C19.7201 14.7997 19.4928 15.2844 19.2301 15.75C18.9594 16.214 18.6517 16.6555 18.3101 17.07L16.4001 16.35L15.7401 16.1L15.1301 16.46L13.6601 17.3L13.0501 17.65L12.9301 18.35L12.6001 20.35C12.0707 20.433 11.5359 20.4765 11.0001 20.48C10.4643 20.4765 9.92945 20.433 9.40009 20.35L9.07009 18.35L8.95009 17.65L8.34009 17.3L6.87009 16.46L6.26009 16.1L5.60009 16.35L3.69009 17.07C3.34846 16.6555 3.0408 16.214 2.77009 15.75C2.50735 15.2844 2.28004 14.7997 2.09009 14.3L3.66009 13L4.21009 12.55V9.45003L3.66009 9.00003L2.09009 7.70003C2.28004 7.20031 2.50735 6.71561 2.77009 6.25003C3.0408 5.78603 3.34846 5.3446 3.69009 4.93003L5.60009 5.65003L6.26009 5.90003L6.87009 5.54003L8.34009 4.70003L9.00009 4.35003L9.12009 3.65003L9.45009 1.65003C9.96247 1.56276 10.4805 1.51263 11.0001 1.50003C11.5359 1.50357 12.0707 1.54703 12.6001 1.63003L12.9301 3.63003L13.0501 4.33003L13.6601 4.68003L15.1301 5.52003L15.7401 5.88003L16.4001 5.63003L18.3101 4.91003C18.6493 5.32645 18.9568 5.76768 19.2301 6.23003C19.4928 6.69561 19.7201 7.18031 19.9101 7.68003L18.3401 9.00003L17.7901 9.45003V12.55L18.3401 13L19.9101 14.3Z" fill="#495055"/>
</svg>
