<svg width="24" height="30" viewBox="0 0 24 30" fill="none" xmlns="http://www.w3.org/2000/svg">
<path d="M22.8398 6.15234L17.1036 0.410156C16.8398 0.146484 16.4824 0 16.1075 0H15.75V7.5H23.25V7.14258C23.25 6.77344 23.1036 6.41602 22.8398 6.15234ZM13.875 7.96875V0H2.15625C1.37695 0 0.75 0.626953 0.75 1.40625V28.5938C0.75 29.373 1.37695 30 2.15625 30H21.8438C22.623 30 23.25 29.373 23.25 28.5938V9.375H15.2812C14.5078 9.375 13.875 8.74219 13.875 7.96875ZM4.5 4.21875C4.5 3.95977 4.70977 3.75 4.96875 3.75H9.65625C9.91519 3.75 10.125 3.95977 10.125 4.21875V5.15625C10.125 5.41523 9.91519 5.625 9.65625 5.625H4.96875C4.70977 5.625 4.5 5.41523 4.5 5.15625V4.21875ZM4.5 8.90625V7.96875C4.5 7.70977 4.70977 7.5 4.96875 7.5H9.65625C9.91519 7.5 10.125 7.70977 10.125 7.96875V8.90625C10.125 9.16523 9.91519 9.375 9.65625 9.375H4.96875C4.70977 9.375 4.5 9.16523 4.5 8.90625ZM12.9375 24.368V25.7812C12.9375 26.0403 12.7277 26.25 12.4688 26.25H11.5312C11.2723 26.25 11.0625 26.0403 11.0625 25.7812V24.358C10.401 24.324 9.75759 24.0932 9.22444 23.693C8.99588 23.5213 8.98416 23.1791 9.19097 22.9817L9.87947 22.3248C10.0418 22.1701 10.2832 22.1631 10.4731 22.282C10.6998 22.4239 10.957 22.5 11.2242 22.5H12.8713C13.2521 22.5 13.5627 22.1531 13.5627 21.7271C13.5627 21.3785 13.3511 21.0714 13.0488 20.9812L10.4121 20.1902C9.32288 19.8633 8.56172 18.818 8.56172 17.6479C8.56172 16.2112 9.67791 15.044 11.0619 15.007V13.5938C11.0619 13.3348 11.2717 13.125 11.5307 13.125H12.4682C12.7271 13.125 12.9369 13.3348 12.9369 13.5938V15.017C13.5984 15.051 14.2417 15.2813 14.775 15.682C15.0035 15.8537 15.0152 16.1959 14.8084 16.3933L14.1199 17.0502C13.9576 17.2049 13.7162 17.2119 13.5263 17.093C13.2997 16.9506 13.0424 16.875 12.7752 16.875H11.1281C10.7472 16.875 10.4367 17.2219 10.4367 17.6479C10.4367 17.9965 10.6482 18.3036 10.9506 18.3938L13.5873 19.1848C14.6766 19.5117 15.4377 20.557 15.4377 21.7271C15.4377 23.1644 14.3214 24.331 12.9375 24.368Z" fill="#425160"/>
</svg>
