<svg width="20" height="19" viewBox="0 0 20 19" fill="none" xmlns="http://www.w3.org/2000/svg">
<path d="M8.83494 16C10.6219 15.9996 12.3573 15.4054 13.765 14.312L18.1906 18.708L19.6141 17.294L15.1885 12.898C16.2899 11.4997 16.8884 9.77544 16.8889 8C16.8889 3.589 13.2757 0 8.83494 0C4.3942 0 0.781006 3.589 0.781006 8C0.781006 12.411 4.3942 16 8.83494 16ZM8.83494 2C12.1663 2 14.8754 4.691 14.8754 8C14.8754 11.309 12.1663 14 8.83494 14C5.50363 14 2.79449 11.309 2.79449 8C2.79449 4.691 5.50363 2 8.83494 2Z" fill="#F3A738"/>
</svg>
