<svg width="255" height="64" viewBox="0 0 255 64" fill="none" xmlns="http://www.w3.org/2000/svg">
<g clip-path="url(#clip0)">
<path d="M0.109375 31.442L17.9481 0.106276L53.9194 0L50.356 6.24215L21.5646 6.32654L17.9168 12.6906L46.677 12.6031L43.198 18.8452L14.3378 18.9296L10.887 24.8873L39.7566 24.8561L36.0807 31.442" fill="#9FAEC2"/>
<path d="M35.9713 32.9268L53.9569 64H46.7177L32.3735 39.1595L25.0999 39.0814L39.4721 63.95L32.4485 64L17.9856 39.1595L10.7745 39.0845L25.128 63.9437H17.9075L0 32.9268" fill="#637895"/>
<path d="M41.207 25.6376L37.5342 32.2235L55.5198 63.2968L73.5055 32.1454L55.3729 0.781494L51.8095 7.02364L66.1724 32.1454L62.5684 38.3782L48.1305 13.3846L44.6515 19.6267L58.9894 44.6297L55.4448 50.7937" fill="#435160"/>
<path d="M79.142 15.9492H90.3728V18.5374H82.3021V21.4599H90.0884V23.748H82.3021V26.6862H90.3728V29.2931H79.142V15.9492Z" fill="#435160"/>
<path d="M91.7418 15.9492H94.902V26.6425H102.591V29.2962H91.7418V15.9492Z" fill="#435160"/>
<path d="M103.832 15.9492H115.063V18.5374H106.993V21.4599H114.779V23.748H106.993V26.6862H115.063V29.2931H103.832V15.9492Z" fill="#435160"/>
<path d="M116.035 22.6227C116.035 18.428 119.024 15.5054 123.343 15.5054C126.266 15.5054 129.27 16.8088 129.92 20.7316H126.885C126.313 19.0156 124.994 18.2529 123.343 18.2529C120.977 18.2529 119.164 20.0471 119.164 22.6227C119.164 25.1796 120.974 26.9926 123.343 26.9926C124.997 26.9926 126.313 26.2299 126.885 24.4982H129.92C129.27 28.4367 126.297 29.7401 123.343 29.7401C119.024 29.7401 116.035 26.8175 116.035 22.6227Z" fill="#435160"/>
<path d="M143.617 18.603H138.613V29.2962H135.434V18.603H130.445V15.9492H143.617V18.603Z" fill="#435160"/>
<path d="M154.551 29.2931L152.36 25.3203H148.056V29.2931H144.896V15.9492H151.903C155.479 15.9492 157.367 17.6184 157.367 20.7316C157.367 22.5915 156.461 23.9418 155.095 24.6889L157.702 29.2962H154.551V29.2931ZM148.053 22.8915H151.722C153.326 22.8915 154.217 22.1601 154.217 20.7473C154.217 19.3344 153.326 18.603 151.722 18.603H148.053V22.8915Z" fill="#435160"/>
<path d="M158.761 15.9492H161.921V29.2931H158.761V15.9492Z" fill="#435160"/>
<path d="M163.053 22.6227C163.053 18.428 166.041 15.5054 170.361 15.5054C173.284 15.5054 176.287 16.8088 176.938 20.7316H173.903C173.33 19.0156 172.011 18.2529 170.361 18.2529C167.995 18.2529 166.182 20.0471 166.182 22.6227C166.182 25.1796 167.992 26.9926 170.361 26.9926C172.015 26.9926 173.33 26.2299 173.903 24.4982H176.938C176.287 28.4367 173.315 29.7401 170.361 29.7401C166.038 29.7401 163.053 26.8175 163.053 22.6227Z" fill="#435160"/>
<path d="M182.086 15.9492H186.137L189.441 25.3078H189.678L192.982 15.9492H197.033V29.2931H193.998V21.2568H193.729L190.791 29.2962H188.328L185.39 21.2568H185.121V29.2962H182.086V15.9492Z" fill="#435160"/>
<path d="M198.168 22.6227C198.168 18.428 201.137 15.5054 205.492 15.5054C209.861 15.5054 212.831 18.428 212.831 22.6227C212.831 26.8175 209.861 29.7401 205.492 29.7401C201.137 29.7401 198.168 26.8175 198.168 22.6227ZM209.686 22.6227C209.686 20.0002 207.876 18.2529 205.492 18.2529C203.125 18.2529 201.297 20.0002 201.297 22.6227C201.297 25.2452 203.122 26.9926 205.492 26.9926C207.873 26.9894 209.686 25.2421 209.686 22.6227Z" fill="#435160"/>
<path d="M226.034 18.603H221.03V29.2962H217.851V18.603H212.862V15.9492H226.034V18.603Z" fill="#435160"/>
<path d="M226.053 22.6227C226.053 18.428 229.022 15.5054 233.376 15.5054C237.746 15.5054 240.716 18.428 240.716 22.6227C240.716 26.8175 237.746 29.7401 233.376 29.7401C229.022 29.7401 226.053 26.8175 226.053 22.6227ZM237.571 22.6227C237.571 20.0002 235.761 18.2529 233.376 18.2529C231.01 18.2529 229.182 20.0002 229.182 22.6227C229.182 25.2452 231.007 26.9926 233.376 26.9926C235.758 26.9894 237.571 25.2421 237.571 22.6227Z" fill="#435160"/>
<path d="M251.506 29.2931L249.315 25.3203H245.011V29.2931H241.85V15.9492H248.858C252.434 15.9492 254.322 17.6184 254.322 20.7316C254.322 22.5915 253.416 23.9418 252.05 24.6889L254.657 29.2962H251.506V29.2931ZM245.007 22.8915H248.677C250.281 22.8915 251.171 22.1601 251.171 20.7473C251.171 19.3344 250.281 18.603 248.677 18.603H245.007V22.8915Z" fill="#435160"/>
<path d="M78.8387 34.7039H82.0333L84.1619 44.6657H84.4464L86.9876 34.7039H89.6414L92.2014 44.6657H92.489L94.602 34.7039H97.8121L94.8239 48.0477H90.5354L88.4692 39.6269H88.166L86.0999 48.0477H81.827L78.8387 34.7039Z" fill="#637895"/>
<path d="M112.397 34.7039V48.0477H109.218V42.6964H102.595V48.0509H99.4344V34.707H102.595V40.0614H109.218V34.707H112.397V34.7039Z" fill="#637895"/>
<path d="M114.082 41.3774C114.082 37.1826 117.051 34.26 121.405 34.26C125.775 34.26 128.745 37.1826 128.745 41.3774C128.745 45.5721 125.775 48.4947 121.405 48.4947C117.051 48.4947 114.082 45.5721 114.082 41.3774ZM125.6 41.3774C125.6 38.7549 123.79 37.0076 121.405 37.0076C119.039 37.0076 117.211 38.7549 117.211 41.3774C117.211 43.9999 119.039 45.7472 121.405 45.7472C123.79 45.7441 125.6 43.9968 125.6 41.3774Z" fill="#637895"/>
<path d="M130.448 34.7039H133.611V45.3971H141.301V48.0509H130.451V34.7039H130.448Z" fill="#637895"/>
<path d="M143.111 34.7039H154.342V37.292H146.271V40.2146H154.054V42.5026H146.271V45.4409H154.342V48.0477H143.111V34.7039Z" fill="#637895"/>
<path d="M155.901 43.9186H158.761C158.874 45.1751 159.905 45.9691 162.097 45.9847C164.163 45.9847 165.291 45.2845 165.291 44.2374C165.291 43.3153 164.544 42.8558 162.956 42.5839L161.303 42.2963C158.777 41.8524 156.267 41.1835 156.267 38.2766C156.267 35.751 158.396 34.2568 162.128 34.2568C165.607 34.2568 168.023 35.479 168.054 38.7861H165.21C165.004 37.5795 164.066 36.7668 162.065 36.7668C160.256 36.7668 159.302 37.3857 159.302 38.4204C159.302 39.2299 159.952 39.7394 161.321 39.9926L162.769 40.2458C165.31 40.7053 168.442 41.1366 168.442 44.328C168.442 46.9818 166.266 48.4916 162.103 48.4916C158.03 48.4947 155.886 47.0475 155.901 43.9186Z" fill="#637895"/>
<path d="M179.735 45.8095H173.159L172.333 48.0507H169.061L174.225 34.7068H178.672L183.852 48.0507H180.564L179.735 45.8095ZM178.844 43.4089L176.747 37.7044H176.144L174.046 43.4089H178.844Z" fill="#637895"/>
<path d="M185.296 34.7039H188.456V45.3971H196.146V48.0509H185.296V34.7039Z" fill="#637895"/>
<path d="M197.962 34.7039H209.193V37.292H201.122V40.2146H208.908V42.5026H201.122V45.4409H209.193V48.0477H197.962V34.7039Z" fill="#637895"/>
<path d="M215.725 34.7039H218.885V48.0477H215.725V34.7039Z" fill="#9FAEC2"/>
<path d="M220.823 34.7039H224.493L230.688 43.681H230.991V34.7039H234.089V48.0477H230.485L224.209 39.0705H223.921V48.0477H220.823V34.7039Z" fill="#9FAEC2"/>
<path d="M235.777 41.3774C235.777 37.1826 238.765 34.26 243.085 34.26C246.008 34.26 249.012 35.5635 249.662 39.4863H246.627C246.055 37.7702 244.736 37.0076 243.085 37.0076C240.719 37.0076 238.906 38.8017 238.906 41.3774C238.906 43.9342 240.716 45.7472 243.085 45.7472C244.739 45.7472 246.055 44.9845 246.627 43.2528H249.662C249.012 47.1913 246.039 48.4947 243.085 48.4947C238.762 48.4947 235.777 45.5721 235.777 41.3774Z" fill="#9FAEC2"/>
<path d="M251.3 46.6347C251.3 45.7126 252.062 44.95 252.984 44.95C253.922 44.95 254.685 45.7126 254.685 46.6347C254.685 47.5412 253.922 48.3039 252.984 48.3039C252.062 48.3039 251.3 47.5412 251.3 46.6347Z" fill="#9FAEC2"/>
</g>
<defs>
<clipPath id="clip0">
<rect width="254.685" height="64" fill="white"/>
</clipPath>
</defs>
</svg>
