<svg width="34" height="30" viewBox="0 0 34 30" fill="none" xmlns="http://www.w3.org/2000/svg">
<path d="M16.8749 6.73825L4.07036 18.0299C3.97544 18.1154 3.85415 18.1552 3.74985 18.2261V29.0625C3.74985 29.3111 3.84862 29.5496 4.02444 29.7254C4.20025 29.9012 4.43871 30 4.68735 30H12.1874C12.436 30 12.6744 29.9012 12.8503 29.7254C13.0261 29.5496 13.1249 29.3111 13.1249 29.0625V21.5625C13.1249 21.3138 13.2236 21.0754 13.3994 20.8996C13.5753 20.7237 13.8137 20.625 14.0624 20.625H19.6874C19.936 20.625 20.1744 20.7237 20.3503 20.8996C20.5261 21.0754 20.6249 21.3138 20.6249 21.5625V29.0625C20.6249 29.3111 20.7236 29.5496 20.8994 29.7254C21.0753 29.9012 21.3137 30 21.5624 30H29.0624C29.311 30 29.5494 29.9012 29.7253 29.7254C29.9011 29.5496 29.9999 29.3111 29.9999 29.0625V18.2285C29.9002 18.1605 29.7819 18.1218 29.6916 18.041L16.8749 6.73825ZM33.4387 13.8445L18.4422 0.602316C18.013 0.214251 17.455 -0.000610352 16.8763 -0.000610352C16.2977 -0.000610352 15.7396 0.214251 15.3104 0.602316L0.310397 13.8445C0.218769 13.9268 0.144249 14.0263 0.0910944 14.1374C0.0379398 14.2485 0.00719236 14.369 0.000608423 14.4919C-0.00597551 14.6149 0.0117331 14.738 0.0527227 14.8541C0.0937122 14.9702 0.157179 15.0771 0.239499 15.1687L1.49399 16.5644C1.57627 16.6561 1.6758 16.7306 1.78688 16.7837C1.89797 16.8369 2.01844 16.8676 2.14141 16.8742C2.26438 16.8808 2.38745 16.8631 2.50358 16.8221C2.6197 16.7811 2.72662 16.7176 2.81821 16.6353L16.2549 4.78298C16.4262 4.63188 16.6467 4.5485 16.8751 4.5485C17.1035 4.5485 17.3241 4.63188 17.4954 4.78298L30.9321 16.6347C31.0237 16.7171 31.1306 16.7805 31.2467 16.8215C31.3628 16.8625 31.4859 16.8802 31.6089 16.8736C31.7318 16.867 31.8523 16.8363 31.9634 16.7831C32.0745 16.73 32.174 16.6555 32.2563 16.5638L33.5102 15.1681C33.6762 14.9831 33.7619 14.7397 33.7485 14.4915C33.7351 14.2433 33.6237 14.0106 33.4387 13.8445Z" fill="#435160"/>
</svg>
