<svg width="11" height="18" viewBox="0 0 11 18" fill="none" xmlns="http://www.w3.org/2000/svg">
<path fill-rule="evenodd" clip-rule="evenodd" d="M9.45675 0.249756C9.38112 0.254944 9.36187 0.254318 9.28699 0.267193C9.11861 0.296257 8.95666 0.360073 8.81378 0.453827C8.74153 0.501204 8.67846 0.556332 8.61546 0.615147L1.11514 8.11547C1.06339 8.17091 1.04895 8.18353 1.00301 8.2441C0.951446 8.3121 0.906882 8.38542 0.870193 8.46255C0.709936 8.7995 0.709936 9.19933 0.870193 9.53628C0.906882 9.61341 0.951446 9.68672 1.00301 9.75473C1.04895 9.81523 1.06339 9.82792 1.11514 9.88329L8.61546 17.3836C8.6709 17.4354 8.68359 17.4499 8.74409 17.4957C8.90297 17.6163 9.09048 17.6977 9.28699 17.7316C9.42731 17.7558 9.5715 17.7558 9.71182 17.7316C9.82401 17.7123 9.93346 17.6775 10.0363 17.6286C10.4268 17.4429 10.6987 17.0577 10.7429 16.6276C10.7604 16.4576 10.7426 16.2844 10.6909 16.1216C10.6478 15.9859 10.5815 15.8578 10.4955 15.7444C10.4495 15.6839 10.4351 15.6712 10.3833 15.6158L3.76694 8.99938L10.3833 2.38297L10.4416 2.32059C10.4894 2.26184 10.503 2.24815 10.5447 2.18465C10.6227 2.06565 10.6802 1.93333 10.7139 1.79507C10.7409 1.68444 10.7526 1.57019 10.7487 1.45643C10.734 1.02423 10.489 0.621397 10.1121 0.409451C9.98802 0.339697 9.85208 0.291382 9.71182 0.267193C9.63694 0.254318 9.61769 0.254944 9.54206 0.249756C9.51362 0.249756 9.48519 0.249756 9.45675 0.249756Z" fill="#F3F3F3"/>
</svg>
