<svg width="11" height="18" viewBox="0 0 11 18" fill="none" xmlns="http://www.w3.org/2000/svg">
<path fill-rule="evenodd" clip-rule="evenodd" d="M1.54276 17.7503C1.61839 17.7451 1.63764 17.7457 1.71252 17.7329C1.8809 17.7038 2.04285 17.64 2.18573 17.5462C2.25798 17.4989 2.32105 17.4437 2.38405 17.3849L9.88437 9.88459C9.93612 9.82915 9.95056 9.81653 9.9965 9.75596C10.0481 9.68796 10.0926 9.61464 10.1293 9.53752C10.2896 9.20056 10.2896 8.80073 10.1293 8.46378C10.0926 8.38665 10.0481 8.31334 9.9965 8.24534C9.95056 8.18483 9.93612 8.17214 9.88437 8.11677L2.38405 0.616446C2.32861 0.564694 2.31592 0.550193 2.25542 0.504316C2.09654 0.383748 1.90903 0.30237 1.71252 0.268431C1.5722 0.244305 1.42801 0.244305 1.28769 0.268431C1.1755 0.287807 1.06606 0.322558 0.96324 0.371435C0.572722 0.557131 0.300836 0.942335 0.256584 1.37248C0.239146 1.54249 0.25696 1.71562 0.308649 1.8785C0.351714 2.01419 0.418029 2.14226 0.504032 2.25564C0.549972 2.31621 0.56441 2.32883 0.616162 2.38427L7.23257 9.00068L0.616162 15.6171L0.55791 15.6795C0.510096 15.7382 0.496469 15.7519 0.454843 15.8154C0.376777 15.9344 0.319274 16.0667 0.285585 16.205C0.258647 16.3156 0.246897 16.4299 0.250772 16.5436C0.265522 16.9758 0.510533 17.3787 0.887424 17.5906C1.01149 17.6604 1.14744 17.7087 1.28769 17.7329C1.36257 17.7457 1.38182 17.7451 1.45745 17.7503C1.48589 17.7503 1.51433 17.7503 1.54276 17.7503Z" fill="#F3F3F3"/>
</svg>
