<svg width="14" height="14" viewBox="0 0 14 14" fill="none" xmlns="http://www.w3.org/2000/svg">
<path d="M6.99998 0.333252C5.68144 0.333252 4.39251 0.724245 3.29618 1.45679C2.19985 2.18933 1.34537 3.23052 0.840786 4.4487C0.336202 5.66687 0.204179 7.00731 0.461414 8.30052C0.718649 9.59373 1.35359 10.7816 2.28594 11.714C3.21829 12.6463 4.40617 13.2813 5.69938 13.5385C6.99259 13.7957 8.33303 13.6637 9.55121 13.1591C10.7694 12.6545 11.8106 11.8 12.5431 10.7037C13.2757 9.60739 13.6666 8.31846 13.6666 6.99992C13.6666 6.12444 13.4942 5.25753 13.1592 4.4487C12.8241 3.63986 12.3331 2.90493 11.714 2.28587C11.095 1.66682 10.36 1.17575 9.55121 0.840722C8.74237 0.50569 7.87546 0.333252 6.99998 0.333252ZM6.99998 10.3333C6.87868 10.3333 6.76009 10.2973 6.65923 10.2299C6.55837 10.1625 6.47976 10.0667 6.43334 9.95463C6.38691 9.84256 6.37477 9.71924 6.39843 9.60026C6.4221 9.48129 6.48051 9.372 6.56629 9.28623C6.65207 9.20045 6.76135 9.14204 6.88033 9.11837C6.9993 9.0947 7.12262 9.10685 7.23469 9.15327C7.34677 9.19969 7.44256 9.27831 7.50995 9.37917C7.57734 9.48003 7.61332 9.59861 7.61332 9.71992C7.61332 9.88258 7.5487 10.0386 7.43367 10.1536C7.31865 10.2686 7.16265 10.3333 6.99998 10.3333ZM7.39332 7.97992H6.60665L6.36665 3.66659H7.66665L7.39332 7.97992Z" fill="#257EE7"/>
</svg>
