<svg width="24" height="24" viewBox="0 0 24 24" fill="none" xmlns="http://www.w3.org/2000/svg">
<path d="M12 2C10.0222 2 8.08879 2.58649 6.4443 3.6853C4.79981 4.78412 3.51809 6.3459 2.76121 8.17317C2.00433 10.0004 1.8063 12.0111 2.19215 13.9509C2.578 15.8907 3.53041 17.6725 4.92894 19.0711C6.32746 20.4696 8.10929 21.422 10.0491 21.8079C11.9889 22.1937 13.9996 21.9957 15.8268 21.2388C17.6541 20.4819 19.2159 19.2002 20.3147 17.5557C21.4135 15.9112 22 13.9778 22 12C22 10.6868 21.7413 9.38642 21.2388 8.17317C20.7363 6.95991 19.9997 5.85752 19.0711 4.92893C18.1425 4.00035 17.0401 3.26375 15.8268 2.7612C14.6136 2.25866 13.3132 2 12 2ZM12 6.85C12.182 6.85 12.3598 6.90396 12.5111 7.00505C12.6624 7.10614 12.7803 7.24982 12.85 7.41793C12.9196 7.58604 12.9378 7.77102 12.9023 7.94948C12.8668 8.12795 12.7792 8.29187 12.6505 8.42054C12.5219 8.5492 12.358 8.63682 12.1795 8.67232C12.001 8.70782 11.816 8.6896 11.6479 8.61997C11.4798 8.55034 11.3361 8.43242 11.2351 8.28113C11.134 8.12983 11.08 7.95196 11.08 7.77C11.08 7.526 11.1769 7.292 11.3495 7.11946C11.522 6.94693 11.756 6.85 12 6.85ZM14.5 17H9.5V15.6H11.25V11.9H9.5V10.5H12.75V15.6H14.5V17Z" fill="#495055"/>
</svg>
