<svg width="40" height="33" viewBox="0 0 40 33" fill="none" xmlns="http://www.w3.org/2000/svg">
<path d="M38.6786 28L22.4467 2C21.1992 0 18.0704 0 16.8209 2L0.589016 28C-0.657093 29.9963 0.902911 32.5 3.40122 32.5H35.8657C38.3599 32.5 39.9287 30 38.6786 28ZM19.6338 28.5C19.2056 28.5 18.7871 28.3827 18.4311 28.1629C18.0751 27.9432 17.7976 27.6308 17.6338 27.2654C17.4699 26.8999 17.4271 26.4978 17.5106 26.1098C17.5941 25.7219 17.8003 25.3655 18.1031 25.0858C18.4058 24.8061 18.7915 24.6156 19.2115 24.5384C19.6314 24.4613 20.0667 24.5009 20.4622 24.6522C20.8578 24.8036 21.1959 25.06 21.4338 25.3889C21.6716 25.7178 21.7986 26.1044 21.7986 26.5C21.7986 27.0304 21.5705 27.5391 21.1645 27.9142C20.7586 28.2893 20.2079 28.5 19.6338 28.5ZM22.2207 13.5994L21.3548 21.5994C21.3281 21.8462 21.2031 22.075 21.0041 22.2414C20.8051 22.4078 20.5463 22.5 20.2778 22.5H18.9925C18.724 22.5 18.4652 22.4078 18.2662 22.2414C18.0671 22.075 17.9422 21.8462 17.9155 21.5994L17.0496 13.5994C17.0346 13.4606 17.0512 13.3204 17.0983 13.1879C17.1454 13.0554 17.222 12.9334 17.3232 12.8299C17.4244 12.7264 17.5479 12.6435 17.6857 12.5867C17.8236 12.5299 17.9729 12.5004 18.1238 12.5H21.1437C21.2949 12.5 21.4445 12.5293 21.5827 12.5859C21.7209 12.6426 21.8447 12.7254 21.9462 12.829C22.0477 12.9325 22.1245 13.0546 22.1718 13.1873C22.2191 13.32 22.2357 13.4604 22.2207 13.5994Z" fill="url(#paint0_linear)"/>
<defs>
<linearGradient id="paint0_linear" x1="-4.71912" y1="20.4999" x2="18.822" y2="49.1668" gradientUnits="userSpaceOnUse">
<stop stop-color="#F6BF52"/>
<stop offset="1" stop-color="#F3A738"/>
</linearGradient>
</defs>
</svg>
