<svg width="16" height="16" viewBox="0 0 16 16" fill="none" xmlns="http://www.w3.org/2000/svg">
<path d="M12.2188 9.87525H13.1562C13.2806 9.87525 13.3998 9.92463 13.4877 10.0125C13.5756 10.1004 13.625 10.2197 13.625 10.344V14.094C13.625 14.467 13.4768 14.8246 13.2131 15.0884C12.9494 15.3521 12.5917 15.5002 12.2188 15.5002H1.90625C1.53329 15.5002 1.1756 15.3521 0.911881 15.0884C0.648158 14.8246 0.5 14.467 0.5 14.094L0.5 3.78149C0.5 3.40853 0.648158 3.05085 0.911881 2.78713C1.1756 2.5234 1.53329 2.37524 1.90625 2.37524H6.59375C6.71807 2.37524 6.8373 2.42463 6.92521 2.51254C7.01311 2.60045 7.0625 2.71967 7.0625 2.84399V3.78149C7.0625 3.90581 7.01311 4.02504 6.92521 4.11295C6.8373 4.20086 6.71807 4.25024 6.59375 4.25024H2.375V13.6252H11.75V10.344C11.75 10.2197 11.7994 10.1004 11.8873 10.0125C11.9752 9.92463 12.0944 9.87525 12.2188 9.87525Z" fill="#9FAEC1"/>
<path d="M15.5 1.20325V4.95325C15.5 5.58225 14.7382 5.89075 14.2988 5.4513L13.2526 4.4051L6.11911 11.5383C5.98725 11.6702 5.80841 11.7442 5.62194 11.7442C5.43547 11.7442 5.25663 11.6702 5.12477 11.5383L4.46178 10.8753C4.32993 10.7435 4.25586 10.5646 4.25586 10.3782C4.25586 10.1917 4.32993 10.0128 4.46178 9.88098L11.5965 2.74661L10.5503 1.70129C10.1093 1.25891 10.4216 0.500122 11.0468 0.500122H14.7968C14.9833 0.500122 15.1622 0.574201 15.294 0.706063C15.4259 0.837924 15.5 1.01677 15.5 1.20325Z" fill="#9FAEC1"/>
</svg>
