<svg width="6" height="10" viewBox="0 0 6 10" fill="none" xmlns="http://www.w3.org/2000/svg">
<path fill-rule="evenodd" clip-rule="evenodd" d="M5.31035 9.66666C5.27001 9.66389 5.25974 9.66423 5.21981 9.65736C5.13001 9.64186 5.04364 9.60783 4.96743 9.55782C4.9289 9.53256 4.89526 9.50315 4.86166 9.47179L0.86149 5.47162C0.833889 5.44205 0.826188 5.43531 0.801687 5.40301C0.774186 5.36674 0.750418 5.32764 0.730851 5.28651C0.64538 5.1068 0.64538 4.89356 0.730851 4.71385C0.750418 4.67271 0.774186 4.63361 0.801687 4.59734C0.826188 4.56508 0.833889 4.55831 0.86149 4.52877L4.86166 0.528603C4.89123 0.501002 4.898 0.493268 4.93026 0.468801C5.015 0.404498 5.11501 0.361096 5.21981 0.342995C5.29465 0.330128 5.37155 0.330128 5.44639 0.342995C5.50622 0.353329 5.56459 0.371863 5.61943 0.397931C5.8277 0.496969 5.97271 0.702411 5.99631 0.931821C6.00561 1.02249 5.99611 1.11483 5.96854 1.2017C5.94557 1.27407 5.91021 1.34237 5.86434 1.40284C5.83984 1.43514 5.83214 1.44188 5.80453 1.47144L2.27578 5.0002L5.80453 8.52895L5.8356 8.56221C5.8611 8.59355 5.86837 8.60085 5.89057 8.63472C5.93221 8.69819 5.96287 8.76876 5.98084 8.84249C5.99521 8.9015 6.00148 8.96243 5.99941 9.0231C5.99154 9.25361 5.86087 9.46845 5.65986 9.58149C5.59369 9.61869 5.52119 9.64446 5.44639 9.65736C5.40645 9.66423 5.39618 9.66389 5.35585 9.66666C5.34068 9.66666 5.32551 9.66666 5.31035 9.66666Z" fill="#110F24" fill-opacity="0.4"/>
</svg>
