<svg width="29" height="30" viewBox="0 0 29 30" fill="none" xmlns="http://www.w3.org/2000/svg">
<rect x="1" y="2" width="26" height="26" rx="5" fill="#F3F3F3"/>
<path fill-rule="evenodd" clip-rule="evenodd" d="M10.0174 10.8752C9.69192 11.2007 9.69192 11.7283 10.0174 12.0537L12.9636 15L10.0174 17.9463C9.69192 18.2717 9.69192 18.7993 10.0174 19.1248C10.3428 19.4502 10.8704 19.4502 11.1959 19.1248L14.1421 16.1785L17.0884 19.1248C17.4139 19.4502 17.9415 19.4502 18.2669 19.1248C18.5924 18.7994 18.5924 18.2717 18.2669 17.9463L15.3206 15L18.2669 12.0537C18.5924 11.7283 18.5924 11.2006 18.2669 10.8752C17.9415 10.5498 17.4139 10.5498 17.0884 10.8752L14.1421 13.8215L11.1959 10.8752C10.8704 10.5498 10.3428 10.5498 10.0174 10.8752Z" fill="#110F24" fill-opacity="0.4"/>
</svg>
