<svg width="140" height="35" viewBox="0 0 140 35" fill="none" xmlns="http://www.w3.org/2000/svg">
<path d="M0.588013 17.1949L10.3436 0.0581197L30.0154 0L28.0666 3.41367L12.3213 3.45983L10.3265 6.94017L26.0547 6.89231L24.1521 10.306L8.36921 10.3521L6.48203 13.6103L22.2701 13.5932L20.2598 17.1949" fill="#9FAEC2"/>
<path d="M20.2 18.0069L30.0359 35H26.0769L18.2325 21.4154L14.2547 21.3727L22.1145 34.9727L18.2735 35L10.3641 21.4154L6.42051 21.3744L14.2701 34.9692H10.3214L0.528198 18.0069" fill="#637895"/>
<path d="M23.0632 14.0205L21.0547 17.6222L30.8906 34.6154L40.7265 17.5795L30.8102 0.427353L28.8615 3.84103L36.7162 17.5795L34.7453 20.988L26.8496 7.31966L24.947 10.7333L32.788 24.4068L30.8496 27.7778" fill="#435160"/>
<path d="M43.4719 8.53503H49.6138V9.95041H45.2001V11.5487H49.4582V12.8H45.2001V14.4068H49.6138V15.8325H43.4719V8.53503Z" fill="#435160"/>
<path d="M50.3623 8.53503H52.0905V14.3829H56.2956V15.8342H50.3623V8.53503Z" fill="#435160"/>
<path d="M56.9744 8.53503H63.1162V9.95041H58.7026V11.5487H62.9607V12.8H58.7026V14.4068H63.1162V15.8325H56.9744V8.53503Z" fill="#435160"/>
<path d="M63.6479 12.1846C63.6479 9.8906 65.2821 8.2923 67.6445 8.2923C69.2428 8.2923 70.8856 9.00513 71.2411 11.1504H69.5813C69.2685 10.212 68.5471 9.79487 67.6445 9.79487C66.3505 9.79487 65.3591 10.7761 65.3591 12.1846C65.3591 13.5829 66.3488 14.5744 67.6445 14.5744C68.5488 14.5744 69.2685 14.1573 69.5813 13.2103H71.2411C70.8856 15.3641 69.2599 16.0769 67.6445 16.0769C65.2821 16.0769 63.6479 14.4786 63.6479 12.1846Z" fill="#435160"/>
<path d="M78.7317 9.98631H75.995V15.8342H74.2565V9.98631H71.5283V8.53503H78.7317V9.98631Z" fill="#435160"/>
<path d="M84.7111 15.8325L83.5128 13.6598H81.159V15.8325H79.4308V8.53503H83.2633C85.2188 8.53503 86.2513 9.44785 86.2513 11.1504C86.2513 12.1675 85.7556 12.906 85.0086 13.3145L86.4342 15.8342H84.7111V15.8325ZM81.1573 12.3316H83.1641C84.041 12.3316 84.5282 11.9316 84.5282 11.159C84.5282 10.3863 84.041 9.98631 83.1641 9.98631H81.1573V12.3316Z" fill="#435160"/>
<path d="M87.0137 8.53503H88.7419V15.8325H87.0137V8.53503Z" fill="#435160"/>
<path d="M89.3607 12.1846C89.3607 9.8906 90.9949 8.2923 93.3573 8.2923C94.9556 8.2923 96.5983 9.00513 96.9539 11.1504H95.2941C94.9812 10.212 94.2599 9.79487 93.3573 9.79487C92.0633 9.79487 91.0718 10.7761 91.0718 12.1846C91.0718 13.5829 92.0616 14.5744 93.3573 14.5744C94.2616 14.5744 94.9812 14.1573 95.2941 13.2103H96.9539C96.5983 15.3641 94.9727 16.0769 93.3573 16.0769C90.9932 16.0769 89.3607 14.4786 89.3607 12.1846Z" fill="#435160"/>
<path d="M99.7693 8.53503H101.985L103.792 13.653H103.921L105.728 8.53503H107.944V15.8325H106.284V11.4376H106.137L104.53 15.8342H103.183L101.576 11.4376H101.429V15.8342H99.7693V8.53503Z" fill="#435160"/>
<path d="M108.564 12.1846C108.564 9.8906 110.188 8.2923 112.569 8.2923C114.959 8.2923 116.583 9.8906 116.583 12.1846C116.583 14.4786 114.959 16.0769 112.569 16.0769C110.188 16.0769 108.564 14.4786 108.564 12.1846ZM114.863 12.1846C114.863 10.7504 113.873 9.79487 112.569 9.79487C111.275 9.79487 110.275 10.7504 110.275 12.1846C110.275 13.6188 111.273 14.5744 112.569 14.5744C113.872 14.5726 114.863 13.6171 114.863 12.1846Z" fill="#435160"/>
<path d="M123.804 9.98631H121.067V15.8342H119.328V9.98631H116.6V8.53503H123.804V9.98631Z" fill="#435160"/>
<path d="M123.814 12.1846C123.814 9.8906 125.438 8.2923 127.819 8.2923C130.209 8.2923 131.833 9.8906 131.833 12.1846C131.833 14.4786 130.209 16.0769 127.819 16.0769C125.438 16.0769 123.814 14.4786 123.814 12.1846ZM130.113 12.1846C130.113 10.7504 129.123 9.79487 127.819 9.79487C126.525 9.79487 125.525 10.7504 125.525 12.1846C125.525 13.6188 126.523 14.5744 127.819 14.5744C129.122 14.5726 130.113 13.6171 130.113 12.1846Z" fill="#435160"/>
<path d="M137.733 15.8325L136.535 13.6598H134.181V15.8325H132.453V8.53503H136.286C138.241 8.53503 139.274 9.44785 139.274 11.1504C139.274 12.1675 138.778 12.906 138.031 13.3145L139.457 15.8342H137.733V15.8325ZM134.18 12.3316H136.186C137.063 12.3316 137.551 11.9316 137.551 11.159C137.551 10.3863 137.063 9.98631 136.186 9.98631H134.18V12.3316Z" fill="#435160"/>
<path d="M43.306 18.7914H45.053L46.2171 24.2393H46.3727L47.7624 18.7914H49.2137L50.6137 24.2393H50.771L51.9265 18.7914H53.6821L52.0479 26.0889H49.7026L48.5727 21.4838H48.4069L47.277 26.0889H44.9402L43.306 18.7914Z" fill="#637895"/>
<path d="M61.6582 18.7914V26.0889H59.9198V23.1624H56.2975V26.0906H54.5693V18.7932H56.2975V21.7214H59.9198V18.7932H61.6582V18.7914Z" fill="#637895"/>
<path d="M62.5795 22.441C62.5795 20.147 64.2034 18.5487 66.5846 18.5487C68.9743 18.5487 70.5983 20.147 70.5983 22.441C70.5983 24.735 68.9743 26.3333 66.5846 26.3333C64.2034 26.3333 62.5795 24.735 62.5795 22.441ZM68.8786 22.441C68.8786 21.0068 67.8889 20.0513 66.5846 20.0513C65.2906 20.0513 64.2906 21.0068 64.2906 22.441C64.2906 23.8752 65.2906 24.8308 66.5846 24.8308C67.8889 24.8291 68.8786 23.8735 68.8786 22.441Z" fill="#637895"/>
<path d="M71.5299 18.7914H73.2598V24.6393H77.465V26.0906H71.5316V18.7914H71.5299Z" fill="#637895"/>
<path d="M78.4548 18.7914H84.5967V20.2068H80.183V21.8051H84.4395V23.0564H80.183V24.6632H84.5967V26.0889H78.4548V18.7914Z" fill="#637895"/>
<path d="M85.4496 23.8308H87.0137C87.0753 24.5179 87.6394 24.9521 88.8377 24.9607C89.9676 24.9607 90.5847 24.5778 90.5847 24.0051C90.5847 23.5008 90.1761 23.2496 89.3077 23.1009L88.4035 22.9436C87.0223 22.7009 85.6496 22.335 85.6496 20.7453C85.6496 19.3641 86.8137 18.547 88.8548 18.547C90.7573 18.547 92.0787 19.2154 92.0958 21.0239H90.5402C90.4274 20.3641 89.9146 19.9197 88.8206 19.9197C87.8308 19.9197 87.3095 20.2581 87.3095 20.8239C87.3095 21.2667 87.665 21.5453 88.4137 21.6838L89.2052 21.8222C90.5949 22.0735 92.3077 22.3094 92.3077 24.0547C92.3077 25.506 91.118 26.3316 88.8411 26.3316C86.6137 26.3333 85.4411 25.5419 85.4496 23.8308Z" fill="#637895"/>
<path d="M98.4838 24.8649H94.8873L94.436 26.0906H92.6462L95.4702 18.7932H97.9027L100.735 26.0906H98.9368L98.4838 24.8649ZM97.9967 23.5521L96.8497 20.4325H96.5197L95.3727 23.5521H97.9967Z" fill="#637895"/>
<path d="M101.525 18.7914H103.253V24.6393H107.458V26.0906H101.525V18.7914Z" fill="#637895"/>
<path d="M108.451 18.7914H114.593V20.2068H110.18V21.8051H114.438V23.0564H110.18V24.6632H114.593V26.0889H108.451V18.7914Z" fill="#637895"/>
<path d="M118.166 18.7914H119.894V26.0889H118.166V18.7914Z" fill="#9FAEC2"/>
<path d="M120.954 18.7914H122.961L126.349 23.7008H126.515V18.7914H128.209V26.0889H126.238L122.805 21.1795H122.648V26.0889H120.954V18.7914Z" fill="#9FAEC2"/>
<path d="M129.132 22.441C129.132 20.147 130.766 18.5487 133.128 18.5487C134.727 18.5487 136.369 19.2615 136.725 21.4068H135.065C134.752 20.4684 134.031 20.0513 133.128 20.0513C131.834 20.0513 130.843 21.0325 130.843 22.441C130.843 23.8393 131.833 24.8308 133.128 24.8308C134.033 24.8308 134.752 24.4137 135.065 23.4667H136.725C136.369 25.6205 134.744 26.3333 133.128 26.3333C130.764 26.3333 129.132 24.735 129.132 22.441Z" fill="#9FAEC2"/>
<path d="M137.621 25.3162C137.621 24.812 138.038 24.3949 138.542 24.3949C139.055 24.3949 139.472 24.812 139.472 25.3162C139.472 25.812 139.055 26.229 138.542 26.229C138.038 26.229 137.621 25.812 137.621 25.3162Z" fill="#9FAEC2"/>
</svg>
