<svg width="350" height="123" viewBox="0 0 350 123" fill="none" xmlns="http://www.w3.org/2000/svg">
<path d="M0.173481 60.6152L28.4626 10.9221L85.5068 10.7536L79.8559 20.6526L34.1978 20.7864L28.413 30.8787L74.0216 30.7399L68.5046 40.6389L22.7374 40.7727L17.2649 50.2206L63.047 50.171L57.2177 60.6152" fill="#9FAEC2"/>
<path d="M57.0442 62.9697L85.5663 112.246H74.0861L51.3388 72.8538L39.804 72.7299L62.596 112.167L51.4578 112.246L28.5221 72.8538L17.0865 72.7349L39.8487 112.157H28.3982L0 62.9697" fill="#637895"/>
<path d="M65.347 51.4103L59.5226 61.8545L88.0447 111.131L116.567 61.7306L87.8118 11.9929L82.1609 21.8918L104.938 61.7306L99.2226 71.6147L76.3266 31.9792L70.8095 41.8781L93.5469 81.5285L87.9258 91.3036" fill="#435160"/>
<g clip-path="url(#clip0)">
<path d="M125.723 10.8613H140.066V14.1667H129.758V17.8993H139.703V20.8214H129.758V24.5739H140.066V27.9032H125.723V10.8613Z" fill="#435160"/>
<path d="M141.814 10.8613H145.85V24.518H155.671V27.9072H141.814V10.8613Z" fill="#435160"/>
<path d="M157.255 10.8613H171.599V14.1667H161.291V17.8993H171.236V20.8214H161.291V24.5739H171.599V27.9032H157.255V10.8613Z" fill="#435160"/>
<path d="M172.84 19.3843C172.84 14.027 176.657 10.2944 182.174 10.2944C185.906 10.2944 189.743 11.9591 190.573 16.9691H186.697C185.966 14.7775 184.281 13.8034 182.174 13.8034C179.152 13.8034 176.836 16.0948 176.836 19.3843C176.836 22.6497 179.148 24.9651 182.174 24.9651C184.285 24.9651 185.966 23.991 186.697 21.7795H190.573C189.743 26.8094 185.946 28.4741 182.174 28.4741C176.657 28.4741 172.84 24.7415 172.84 19.3843Z" fill="#435160"/>
<path d="M208.066 14.2505H201.675V27.9072H197.615V14.2505H191.243V10.8613H208.066V14.2505Z" fill="#435160"/>
<path d="M222.03 27.9032L219.232 22.8294H213.735V27.9032H209.699V10.8613H218.649C223.216 10.8613 225.627 12.9931 225.627 16.9691C225.627 19.3444 224.469 21.0689 222.725 22.023L226.054 27.9072H222.03V27.9032ZM213.731 19.7276H218.417C220.465 19.7276 221.603 18.7935 221.603 16.9891C221.603 15.1847 220.465 14.2505 218.417 14.2505H213.731V19.7276Z" fill="#435160"/>
<path d="M227.407 10.8613H231.443V27.9032H227.407V10.8613Z" fill="#435160"/>
<path d="M232.888 19.3843C232.888 14.027 236.705 10.2944 242.222 10.2944C245.954 10.2944 249.79 11.9591 250.621 16.9691H246.745C246.014 14.7775 244.329 13.8034 242.222 13.8034C239.2 13.8034 236.884 16.0948 236.884 19.3843C236.884 22.6497 239.196 24.9651 242.222 24.9651C244.333 24.9651 246.014 23.991 246.745 21.7795H250.621C249.79 26.8094 245.994 28.4741 242.222 28.4741C236.701 28.4741 232.888 24.7415 232.888 19.3843Z" fill="#435160"/>
<path d="M257.196 10.8613H262.369L266.589 22.8134H266.892L271.112 10.8613H276.285V27.9032H272.409V17.6398H272.066L268.313 27.9072H265.168L261.415 17.6398H261.072V27.9072H257.196V10.8613Z" fill="#435160"/>
<path d="M277.734 19.3843C277.734 14.027 281.527 10.2944 287.088 10.2944C292.669 10.2944 296.461 14.027 296.461 19.3843C296.461 24.7415 292.669 28.4741 287.088 28.4741C281.527 28.4741 277.734 24.7415 277.734 19.3843ZM292.445 19.3843C292.445 16.035 290.134 13.8034 287.088 13.8034C284.066 13.8034 281.731 16.035 281.731 19.3843C281.731 22.7336 284.062 24.9651 287.088 24.9651C290.13 24.9611 292.445 22.7296 292.445 19.3843Z" fill="#435160"/>
<path d="M313.323 14.2505H306.932V27.9072H302.872V14.2505H296.501V10.8613H313.323V14.2505Z" fill="#435160"/>
<path d="M313.347 19.3843C313.347 14.027 317.14 10.2944 322.701 10.2944C328.281 10.2944 332.074 14.027 332.074 19.3843C332.074 24.7415 328.281 28.4741 322.701 28.4741C317.14 28.4741 313.347 24.7415 313.347 19.3843ZM328.058 19.3843C328.058 16.035 325.747 13.8034 322.701 13.8034C319.679 13.8034 317.343 16.035 317.343 19.3843C317.343 22.7336 319.675 24.9651 322.701 24.9651C325.743 24.9611 328.058 22.7296 328.058 19.3843Z" fill="#435160"/>
<path d="M345.854 27.9032L343.056 22.8294H337.559V27.9032H333.523V10.8613H342.473C347.04 10.8613 349.451 12.9931 349.451 16.9691C349.451 19.3444 348.293 21.0689 346.549 22.023L349.878 27.9072H345.854V27.9032ZM337.555 19.7276H342.242C344.289 19.7276 345.427 18.7935 345.427 16.9891C345.427 15.1847 344.289 14.2505 342.242 14.2505H337.555V19.7276Z" fill="#435160"/>
<path d="M125.335 34.8134H129.415L132.134 47.536H132.497L135.743 34.8134H139.132L142.401 47.536H142.768L145.467 34.8134H149.567L145.75 51.8553H140.273L137.635 41.1008H137.247L134.609 51.8553H129.152L125.335 34.8134Z" fill="#637895"/>
<path d="M168.194 34.8134V51.8553H164.134V45.021H155.675V51.8593H151.639V34.8174H155.675V41.6557H164.134V34.8174H168.194V34.8134Z" fill="#637895"/>
<path d="M170.345 43.3363C170.345 37.9791 174.138 34.2465 179.699 34.2465C185.279 34.2465 189.072 37.9791 189.072 43.3363C189.072 48.6936 185.279 52.4262 179.699 52.4262C174.138 52.4262 170.345 48.6936 170.345 43.3363ZM185.056 43.3363C185.056 39.987 182.744 37.7555 179.699 37.7555C176.677 37.7555 174.341 39.987 174.341 43.3363C174.341 46.6856 176.677 48.9172 179.699 48.9172C182.744 48.9132 185.056 46.6816 185.056 43.3363Z" fill="#637895"/>
<path d="M191.247 34.8134H195.287V48.4701H205.108V51.8593H191.251V34.8134H191.247Z" fill="#637895"/>
<path d="M207.419 34.8134H221.762V38.1188H211.455V41.8513H221.395V44.7735H211.455V48.526H221.762V51.8553H207.419V34.8134Z" fill="#637895"/>
<path d="M223.755 46.5819H227.407C227.551 48.1867 228.868 49.2006 231.667 49.2206C234.305 49.2206 235.747 48.3264 235.747 46.9891C235.747 45.8114 234.792 45.2246 232.764 44.8773L230.653 44.51C227.427 43.9432 224.222 43.0889 224.222 39.3763C224.222 36.1507 226.94 34.2426 231.707 34.2426C236.15 34.2426 239.236 35.8034 239.275 40.027H235.643C235.379 38.4861 234.182 37.4481 231.627 37.4481C229.315 37.4481 228.098 38.2386 228.098 39.5599C228.098 40.5939 228.928 41.2446 230.677 41.5679L232.525 41.8913C235.77 42.4781 239.77 43.029 239.77 47.1048C239.77 50.4941 236.992 52.4222 231.675 52.4222C226.473 52.4262 223.735 50.5779 223.755 46.5819Z" fill="#637895"/>
<path d="M254.194 48.997H245.794L244.741 51.8593H240.561L247.156 34.8174H252.836L259.451 51.8593H255.251L254.194 48.997ZM253.056 45.9312L250.377 38.6457H249.607L246.928 45.9312H253.056Z" fill="#637895"/>
<path d="M261.295 34.8134H265.331V48.4701H275.152V51.8593H261.295V34.8134Z" fill="#637895"/>
<path d="M277.471 34.8134H291.814V38.1188H281.507V41.8513H291.451V44.7735H281.507V48.526H291.814V51.8553H277.471V34.8134Z" fill="#637895"/>
<path d="M300.158 34.8134H304.194V51.8553H300.158V34.8134Z" fill="#9FAEC2"/>
<path d="M306.669 34.8134H311.355L319.267 46.2785H319.655V34.8134H323.611V51.8553H319.008L310.992 40.3903H310.625V51.8553H306.669V34.8134Z" fill="#9FAEC2"/>
<path d="M325.766 43.3363C325.766 37.9791 329.583 34.2465 335.1 34.2465C338.832 34.2465 342.669 35.9112 343.499 40.9212H339.623C338.892 38.7296 337.208 37.7555 335.1 37.7555C332.078 37.7555 329.762 40.0469 329.762 43.3363C329.762 46.6018 332.074 48.9172 335.1 48.9172C337.212 48.9172 338.892 47.9431 339.623 45.7315H343.499C342.669 50.7615 338.872 52.4262 335.1 52.4262C329.579 52.4262 325.766 48.6936 325.766 43.3363Z" fill="#9FAEC2"/>
<path d="M345.591 50.0509C345.591 48.8733 346.565 47.8992 347.743 47.8992C348.94 47.8992 349.914 48.8733 349.914 50.0509C349.914 51.2086 348.94 52.1827 347.743 52.1827C346.565 52.1827 345.591 51.2086 345.591 50.0509Z" fill="#9FAEC2"/>
<path d="M132.672 73.1847H125.993V72.0453L129.302 68.4364C129.779 67.9042 130.118 67.4608 130.318 67.106C130.523 66.7467 130.625 66.3874 130.625 66.0281C130.625 65.5551 130.491 65.173 130.223 64.8819C129.959 64.5909 129.602 64.4453 129.152 64.4453C128.615 64.4453 128.199 64.609 127.903 64.9365C127.608 65.264 127.46 65.712 127.46 66.2805H125.802C125.802 65.6756 125.939 65.1321 126.211 64.65C126.489 64.1633 126.882 63.7858 127.392 63.5175C127.906 63.2491 128.497 63.115 129.165 63.115C130.13 63.115 130.889 63.3583 131.444 63.845C132.004 64.3271 132.283 64.9956 132.283 65.8507C132.283 66.3465 132.142 66.8672 131.86 67.413C131.583 67.9542 131.126 68.5705 130.489 69.2619L128.06 71.8611H132.672V73.1847Z" fill="#637895"/>
<path d="M134.378 68.259L134.917 63.2514H140.252V64.6841H136.295L136.022 67.0583C136.481 66.7945 137 66.6626 137.577 66.6626C138.523 66.6626 139.258 66.965 139.781 67.5699C140.309 68.1748 140.572 68.989 140.572 70.0123C140.572 71.022 140.281 71.827 139.699 72.4274C139.117 73.0232 138.319 73.3211 137.304 73.3211C136.395 73.3211 135.64 73.0641 135.039 72.5502C134.444 72.0317 134.121 71.3495 134.071 70.5035H135.674C135.738 70.9856 135.91 71.3563 136.192 71.6155C136.474 71.8702 136.843 71.9976 137.298 71.9976C137.807 71.9976 138.203 71.8157 138.485 71.4518C138.771 71.088 138.915 70.5922 138.915 69.9645C138.915 69.3596 138.758 68.8821 138.444 68.5319C138.13 68.1771 137.698 67.9997 137.148 67.9997C136.847 67.9997 136.593 68.0407 136.383 68.1225C136.174 68.1998 135.947 68.3545 135.701 68.5864L134.378 68.259Z" fill="#637895"/>
<path d="M148.486 64.1724L144.516 73.1847H142.776L146.74 64.5818H141.603V63.2514H148.486V64.1724Z" fill="#637895"/>
<path d="M150.26 68.259L150.799 63.2514H156.134V64.6841H152.177L151.904 67.0583C152.364 66.7945 152.882 66.6626 153.46 66.6626C154.406 66.6626 155.14 66.965 155.663 67.5699C156.191 68.1748 156.455 68.989 156.455 70.0123C156.455 71.022 156.164 71.827 155.581 72.4274C154.999 73.0232 154.201 73.3211 153.187 73.3211C152.277 73.3211 151.522 73.0641 150.922 72.5502C150.326 72.0317 150.003 71.3495 149.953 70.5035H151.556C151.62 70.9856 151.793 71.3563 152.075 71.6155C152.357 71.8702 152.725 71.9976 153.18 71.9976C153.689 71.9976 154.085 71.8157 154.367 71.4518C154.654 71.088 154.797 70.5922 154.797 69.9645C154.797 69.3596 154.64 68.8821 154.326 68.5319C154.012 68.1771 153.58 67.9997 153.03 67.9997C152.73 67.9997 152.475 68.0407 152.266 68.1225C152.057 68.1998 151.829 68.3545 151.584 68.5864L150.26 68.259Z" fill="#637895"/>
<path d="M163.741 63.2514L166.606 70.8651L169.465 63.2514H171.696V73.1847H169.976V69.91L170.147 65.5301L167.213 73.1847H165.979L163.052 65.5369L163.222 69.91V73.1847H161.503V63.2514H163.741Z" fill="#637895"/>
<path d="M173.272 69.4256C173.272 68.7024 173.415 68.052 173.701 67.4744C173.988 66.8922 174.39 66.4465 174.909 66.1372C175.427 65.8234 176.023 65.6665 176.696 65.6665C177.692 65.6665 178.5 65.9872 179.118 66.6284C179.741 67.2697 180.078 68.1203 180.128 69.18L180.135 69.5689C180.135 70.2966 179.994 70.947 179.712 71.52C179.434 72.0931 179.034 72.5366 178.511 72.8504C177.993 73.1642 177.392 73.3211 176.71 73.3211C175.669 73.3211 174.834 72.9755 174.206 72.2841C173.583 71.5883 173.272 70.6627 173.272 69.5075V69.4256ZM174.929 69.5689C174.929 70.3284 175.086 70.9242 175.4 71.3563C175.714 71.7838 176.151 71.9976 176.71 71.9976C177.269 71.9976 177.704 71.7793 178.013 71.3427C178.327 70.906 178.484 70.267 178.484 69.4256C178.484 68.6797 178.322 68.0884 177.999 67.6518C177.681 67.2152 177.247 66.9969 176.696 66.9969C176.155 66.9969 175.725 67.2129 175.407 67.645C175.089 68.0725 174.929 68.7138 174.929 69.5689Z" fill="#637895"/>
<path d="M185.402 67.3175C185.183 67.2811 184.958 67.2629 184.726 67.2629C183.967 67.2629 183.455 67.554 183.191 68.1362V73.1847H181.533V65.8029H183.116L183.157 66.6284C183.557 65.9872 184.112 65.6665 184.822 65.6665C185.058 65.6665 185.254 65.6983 185.408 65.762L185.402 67.3175Z" fill="#637895"/>
<path d="M186.022 69.4392C186.022 68.2931 186.291 67.3789 186.828 66.6967C187.369 66.0099 188.085 65.6665 188.977 65.6665C189.818 65.6665 190.48 65.9599 190.962 66.5466L191.037 65.8029H192.531V72.9595C192.531 73.9283 192.228 74.6924 191.624 75.2518C191.023 75.8113 190.211 76.091 189.188 76.091C188.647 76.091 188.117 75.9773 187.598 75.7499C187.084 75.527 186.693 75.2336 186.425 74.8698L187.21 73.8737C187.719 74.4786 188.347 74.7811 189.093 74.7811C189.643 74.7811 190.077 74.631 190.396 74.3308C190.714 74.0352 190.873 73.5986 190.873 73.0209V72.5229C190.396 73.055 189.759 73.3211 188.963 73.3211C188.099 73.3211 187.391 72.9777 186.841 72.291C186.295 71.6042 186.022 70.6536 186.022 69.4392ZM187.673 69.5825C187.673 70.3239 187.824 70.9083 188.124 71.3358C188.428 71.7588 188.849 71.9703 189.386 71.9703C190.054 71.9703 190.55 71.6838 190.873 71.1107V67.8633C190.559 67.3039 190.068 67.0241 189.4 67.0241C188.854 67.0241 188.428 67.2402 188.124 67.6723C187.824 68.1043 187.673 68.7411 187.673 69.5825Z" fill="#637895"/>
<path d="M198.651 73.1847C198.578 73.0437 198.514 72.814 198.46 72.4956C197.932 73.046 197.286 73.3211 196.522 73.3211C195.781 73.3211 195.176 73.1096 194.707 72.6866C194.239 72.2637 194.005 71.7406 194.005 71.1175C194.005 70.3307 194.296 69.728 194.878 69.3096C195.465 68.8866 196.301 68.6751 197.388 68.6751H198.405V68.1908C198.405 67.8087 198.298 67.504 198.084 67.2766C197.871 67.0446 197.545 66.9286 197.109 66.9286C196.731 66.9286 196.422 67.0241 196.181 67.2152C195.94 67.4016 195.819 67.6404 195.819 67.9315H194.161C194.161 67.5267 194.296 67.1492 194.564 66.799C194.832 66.4442 195.196 66.1668 195.656 65.9667C196.119 65.7666 196.636 65.6665 197.204 65.6665C198.068 65.6665 198.757 65.8848 199.271 66.3214C199.785 66.7535 200.049 67.363 200.063 68.1498V71.4791C200.063 72.1431 200.156 72.673 200.342 73.0687V73.1847H198.651ZM196.829 71.9908C197.156 71.9908 197.463 71.9112 197.75 71.752C198.041 71.5928 198.259 71.379 198.405 71.1107V69.7189H197.511C196.897 69.7189 196.436 69.8258 196.126 70.0396C195.817 70.2534 195.662 70.5558 195.662 70.947C195.662 71.2653 195.767 71.52 195.976 71.7111C196.19 71.8975 196.474 71.9908 196.829 71.9908Z" fill="#637895"/>
<path d="M203.337 65.8029L203.385 66.6557C203.931 65.9962 204.647 65.6665 205.534 65.6665C207.072 65.6665 207.854 66.5466 207.881 68.3067V73.1847H206.223V68.4022C206.223 67.9338 206.121 67.5881 205.916 67.3653C205.716 67.1378 205.386 67.0241 204.927 67.0241C204.258 67.0241 203.76 67.3266 203.433 67.9315V73.1847H201.775V65.8029H203.337Z" fill="#637895"/>
<path d="M213.714 71.1789C213.714 70.8833 213.591 70.6581 213.346 70.5035C213.105 70.3489 212.702 70.2124 212.138 70.0942C211.574 69.9759 211.104 69.8258 210.726 69.6439C209.898 69.2437 209.484 68.6638 209.484 67.9042C209.484 67.2675 209.753 66.7353 210.289 66.3078C210.826 65.8803 211.508 65.6665 212.336 65.6665C213.218 65.6665 213.93 65.8848 214.471 66.3214C215.017 66.7581 215.29 67.3243 215.29 68.0202H213.632C213.632 67.7018 213.514 67.438 213.278 67.2288C213.041 67.015 212.727 66.9082 212.336 66.9082C211.972 66.9082 211.674 66.9923 211.442 67.1606C211.215 67.3289 211.101 67.554 211.101 67.836C211.101 68.0907 211.208 68.2885 211.422 68.4295C211.636 68.5705 212.068 68.7138 212.718 68.8593C213.368 69.0003 213.878 69.1709 214.246 69.371C214.619 69.5666 214.894 69.8031 215.072 70.0805C215.254 70.358 215.345 70.6945 215.345 71.0902C215.345 71.7543 215.07 72.2932 214.519 72.7071C213.969 73.1164 213.248 73.3211 212.357 73.3211C211.752 73.3211 211.213 73.212 210.74 72.9936C210.267 72.7753 209.898 72.4752 209.634 72.0931C209.371 71.7111 209.239 71.2994 209.239 70.8583H210.849C210.872 71.2494 211.019 71.5519 211.292 71.7656C211.565 71.9749 211.927 72.0795 212.377 72.0795C212.814 72.0795 213.146 71.9976 213.373 71.8339C213.6 71.6656 213.714 71.4473 213.714 71.1789Z" fill="#637895"/>
<path d="M228.014 69.9509C227.914 71.0106 227.522 71.8384 226.84 72.4342C226.158 73.0255 225.251 73.3211 224.118 73.3211C223.327 73.3211 222.629 73.1346 222.024 72.7617C221.423 72.3842 220.959 71.8498 220.632 71.1585C220.304 70.4671 220.134 69.6644 220.12 68.7502V67.8223C220.12 66.8854 220.286 66.0599 220.618 65.3459C220.95 64.6318 221.426 64.0815 222.044 63.6949C222.667 63.3083 223.386 63.115 224.2 63.115C225.296 63.115 226.178 63.4129 226.847 64.0087C227.516 64.6045 227.905 65.4459 228.014 66.5329H226.294C226.213 65.8189 226.003 65.3049 225.667 64.9911C225.335 64.6727 224.846 64.5135 224.2 64.5135C223.45 64.5135 222.872 64.7887 222.467 65.339C222.067 65.8848 221.862 66.6876 221.853 67.7473V68.6274C221.853 69.7008 222.044 70.5194 222.426 71.0834C222.813 71.6474 223.377 71.9294 224.118 71.9294C224.796 71.9294 225.305 71.777 225.646 71.4723C225.987 71.1675 226.204 70.6604 226.294 69.9509H228.014Z" fill="#637895"/>
<path d="M231.036 66.608C231.577 65.9803 232.262 65.6665 233.089 65.6665C234.663 65.6665 235.461 66.5648 235.484 68.3613V73.1847H233.826V68.4227C233.826 67.9133 233.715 67.554 233.492 67.3448C233.274 67.131 232.951 67.0241 232.523 67.0241C231.859 67.0241 231.363 67.3198 231.036 67.911V73.1847H229.378V62.7056H231.036V66.608Z" fill="#637895"/>
<path d="M236.855 69.4256C236.855 68.7024 236.999 68.052 237.285 67.4744C237.572 66.8922 237.974 66.4465 238.493 66.1372C239.011 65.8234 239.607 65.6665 240.28 65.6665C241.276 65.6665 242.084 65.9872 242.702 66.6284C243.325 67.2697 243.662 68.1203 243.712 69.18L243.719 69.5689C243.719 70.2966 243.578 70.947 243.296 71.52C243.018 72.0931 242.618 72.5366 242.095 72.8504C241.576 73.1642 240.976 73.3211 240.294 73.3211C239.252 73.3211 238.418 72.9755 237.79 72.2841C237.167 71.5883 236.855 70.6627 236.855 69.5075V69.4256ZM238.513 69.5689C238.513 70.3284 238.67 70.9242 238.984 71.3563C239.298 71.7838 239.734 71.9976 240.294 71.9976C240.853 71.9976 241.288 71.7793 241.597 71.3427C241.911 70.906 242.068 70.267 242.068 69.4256C242.068 68.6797 241.906 68.0884 241.583 67.6518C241.265 67.2152 240.831 66.9969 240.28 66.9969C239.739 66.9969 239.309 67.2129 238.991 67.645C238.672 68.0725 238.513 68.7138 238.513 69.5689Z" fill="#637895"/>
<path d="M246.884 73.1847H245.226V65.8029H246.884V73.1847ZM245.124 63.8859C245.124 63.6312 245.204 63.4197 245.363 63.2514C245.527 63.0831 245.758 62.999 246.059 62.999C246.359 62.999 246.591 63.0831 246.755 63.2514C246.918 63.4197 247 63.6312 247 63.8859C247 64.136 246.918 64.3453 246.755 64.5135C246.591 64.6773 246.359 64.7591 246.059 64.7591C245.758 64.7591 245.527 64.6773 245.363 64.5135C245.204 64.3453 245.124 64.136 245.124 63.8859Z" fill="#637895"/>
<path d="M251.728 71.9976C252.142 71.9976 252.485 71.8771 252.758 71.636C253.031 71.395 253.177 71.097 253.195 70.7423H254.757C254.739 71.2017 254.596 71.6315 254.327 72.0317C254.059 72.4274 253.695 72.7412 253.236 72.9732C252.776 73.2051 252.281 73.3211 251.748 73.3211C250.716 73.3211 249.897 72.9868 249.292 72.3182C248.688 71.6497 248.385 70.7264 248.385 69.5484V69.3778C248.385 68.2544 248.685 67.3562 249.286 66.683C249.886 66.0053 250.705 65.6665 251.742 65.6665C252.619 65.6665 253.333 65.9235 253.884 66.4374C254.439 66.9468 254.73 67.6177 254.757 68.45H253.195C253.177 68.027 253.031 67.6791 252.758 67.4062C252.49 67.1333 252.146 66.9969 251.728 66.9969C251.191 66.9969 250.777 67.1924 250.486 67.5836C250.195 67.9702 250.047 68.5592 250.043 69.3505V69.6166C250.043 70.4171 250.186 71.0152 250.473 71.4109C250.764 71.802 251.182 71.9976 251.728 71.9976Z" fill="#637895"/>
<path d="M259.26 73.3211C258.209 73.3211 257.356 72.9914 256.701 72.3319C256.051 71.6678 255.726 70.7855 255.726 69.6848V69.4802C255.726 68.7434 255.867 68.0861 256.149 67.5085C256.435 66.9264 256.836 66.4738 257.35 66.1509C257.863 65.828 258.437 65.6665 259.069 65.6665C260.074 65.6665 260.849 65.9872 261.395 66.6284C261.945 67.2697 262.221 68.1771 262.221 69.3505V70.0191H257.397C257.447 70.6286 257.65 71.1107 258.004 71.4655C258.364 71.8202 258.814 71.9976 259.355 71.9976C260.115 71.9976 260.733 71.6906 261.211 71.0766L262.105 71.9294C261.809 72.3705 261.413 72.7139 260.918 72.9595C260.426 73.2006 259.874 73.3211 259.26 73.3211ZM259.062 66.9969C258.607 66.9969 258.239 67.156 257.957 67.4744C257.679 67.7928 257.502 68.2362 257.425 68.8048H260.583V68.682C260.547 68.1271 260.399 67.7086 260.14 67.4267C259.881 67.1401 259.521 66.9969 259.062 66.9969Z" fill="#637895"/>
<path d="M270.803 69.3574H268.879V73.1847H267.153V63.2514H270.646C271.792 63.2514 272.677 63.5084 273.3 64.0223C273.923 64.5363 274.235 65.2799 274.235 66.2532C274.235 66.9173 274.073 67.4744 273.75 67.9247C273.432 68.3704 272.986 68.7138 272.413 68.9548L274.644 73.096V73.1847H272.795L270.803 69.3574ZM268.879 67.9724H270.653C271.235 67.9724 271.69 67.8269 272.017 67.5358C272.345 67.2402 272.509 66.8377 272.509 66.3283C272.509 65.7961 272.356 65.3845 272.052 65.0934C271.751 64.8023 271.301 64.6523 270.701 64.6432H268.879V67.9724Z" fill="#637895"/>
<path d="M275.401 69.4392C275.401 68.3022 275.665 67.3903 276.193 66.7035C276.72 66.0122 277.428 65.6665 278.314 65.6665C279.097 65.6665 279.729 65.9394 280.211 66.4852V62.7056H281.869V73.1847H280.368L280.286 72.4206C279.79 73.0209 279.129 73.3211 278.301 73.3211C277.437 73.3211 276.736 72.9732 276.2 72.2773C275.667 71.5814 275.401 70.6354 275.401 69.4392ZM277.059 69.5825C277.059 70.333 277.202 70.9197 277.489 71.3427C277.78 71.7611 278.192 71.9703 278.724 71.9703C279.401 71.9703 279.897 71.6678 280.211 71.0629V67.911C279.906 67.3198 279.415 67.0241 278.737 67.0241C278.201 67.0241 277.787 67.2379 277.496 67.6654C277.205 68.0884 277.059 68.7274 277.059 69.5825Z" fill="#637895"/>
<path d="M133.839 86.3182C133.739 87.3779 133.348 88.2057 132.665 88.8015C131.983 89.3928 131.076 89.6884 129.943 89.6884C129.152 89.6884 128.454 89.5019 127.849 89.129C127.248 88.7515 126.785 88.217 126.457 87.5257C126.13 86.8344 125.959 86.0316 125.945 85.1174V84.1896C125.945 83.2527 126.111 82.4272 126.443 81.7131C126.775 80.9991 127.251 80.4487 127.869 80.0621C128.492 79.6755 129.211 79.4822 130.025 79.4822C131.121 79.4822 132.004 79.7801 132.672 80.376C133.341 80.9718 133.73 81.8132 133.839 82.9002H132.12C132.038 82.1861 131.828 81.6722 131.492 81.3584C131.16 81.04 130.671 80.8808 130.025 80.8808C129.275 80.8808 128.697 81.156 128.292 81.7063C127.892 82.2521 127.687 83.0548 127.678 84.1146V84.9946C127.678 86.068 127.869 86.8867 128.251 87.4507C128.638 88.0147 129.202 88.2966 129.943 88.2966C130.621 88.2966 131.13 88.1443 131.471 87.8395C131.813 87.5348 132.029 87.0277 132.12 86.3182H133.839Z" fill="#637895"/>
<path d="M139.638 89.5519C139.565 89.4109 139.501 89.1813 139.447 88.8629C138.919 89.4132 138.273 89.6884 137.509 89.6884C136.768 89.6884 136.163 89.4769 135.694 89.0539C135.226 88.6309 134.992 88.1079 134.992 87.4848C134.992 86.6979 135.283 86.0953 135.865 85.6769C136.452 85.2539 137.289 85.0424 138.376 85.0424H139.392V84.558C139.392 84.176 139.285 83.8712 139.071 83.6438C138.858 83.4119 138.532 83.2959 138.096 83.2959C137.718 83.2959 137.409 83.3914 137.168 83.5824C136.927 83.7689 136.806 84.0077 136.806 84.2988H135.149C135.149 83.894 135.283 83.5165 135.551 83.1663C135.819 82.8115 136.183 82.5341 136.643 82.334C137.107 82.1338 137.623 82.0338 138.191 82.0338C139.056 82.0338 139.745 82.2521 140.259 82.6887C140.772 83.1208 141.036 83.7302 141.05 84.5171V87.8464C141.05 88.5104 141.143 89.0403 141.33 89.436V89.5519H139.638ZM137.816 88.358C138.144 88.358 138.451 88.2784 138.737 88.1193C139.028 87.9601 139.247 87.7463 139.392 87.478V86.0862H138.498C137.884 86.0862 137.423 86.1931 137.113 86.4069C136.804 86.6206 136.65 86.9231 136.65 87.3142C136.65 87.6326 136.754 87.8873 136.963 88.0783C137.177 88.2648 137.461 88.358 137.816 88.358Z" fill="#637895"/>
<path d="M144.345 82.1702L144.393 82.9411C144.911 82.3362 145.621 82.0338 146.521 82.0338C147.508 82.0338 148.184 82.4113 148.548 83.1663C149.084 82.4113 149.839 82.0338 150.813 82.0338C151.627 82.0338 152.232 82.2589 152.627 82.7092C153.028 83.1595 153.232 83.8235 153.241 84.7013V89.5519H151.584V84.749C151.584 84.2806 151.481 83.9372 151.277 83.7189C151.072 83.5006 150.733 83.3914 150.26 83.3914C149.883 83.3914 149.573 83.4937 149.332 83.6984C149.096 83.8985 148.93 84.1623 148.834 84.4898L148.841 89.5519H147.183V84.6945C147.16 83.8258 146.717 83.3914 145.853 83.3914C145.189 83.3914 144.718 83.662 144.441 84.2033V89.5519H142.783V82.1702H144.345Z" fill="#637895"/>
<path d="M154.633 85.8065C154.633 84.6695 154.897 83.7575 155.424 83.0708C155.952 82.3794 156.659 82.0338 157.546 82.0338C158.329 82.0338 158.961 82.3067 159.443 82.8524V79.0729H161.101V89.5519H159.6L159.518 88.7878C159.022 89.3882 158.36 89.6884 157.533 89.6884C156.668 89.6884 155.968 89.3405 155.431 88.6446C154.899 87.9487 154.633 87.0027 154.633 85.8065ZM156.291 85.9498C156.291 86.7002 156.434 87.2869 156.721 87.7099C157.012 88.1284 157.423 88.3376 157.956 88.3376C158.633 88.3376 159.129 88.0351 159.443 87.4302V84.2783C159.138 83.687 158.647 83.3914 157.969 83.3914C157.433 83.3914 157.019 83.6052 156.728 84.0327C156.436 84.4557 156.291 85.0947 156.291 85.9498Z" fill="#637895"/>
<path d="M166.081 89.6884C165.03 89.6884 164.177 89.3586 163.523 88.6992C162.872 88.0351 162.547 87.1528 162.547 86.0521V85.8474C162.547 85.1106 162.688 84.4534 162.97 83.8758C163.256 83.2936 163.657 82.8411 164.171 82.5182C164.685 82.1952 165.258 82.0338 165.89 82.0338C166.895 82.0338 167.671 82.3544 168.216 82.9957C168.767 83.637 169.042 84.5444 169.042 85.7178V86.3864H164.218C164.268 86.9959 164.471 87.478 164.826 87.8327C165.185 88.1875 165.635 88.3649 166.176 88.3649C166.936 88.3649 167.555 88.0579 168.032 87.4439L168.926 88.2966C168.63 88.7378 168.234 89.0812 167.739 89.3268C167.248 89.5679 166.695 89.6884 166.081 89.6884ZM165.883 83.3641C165.428 83.3641 165.06 83.5233 164.778 83.8417C164.5 84.1601 164.323 84.6035 164.246 85.172H167.404V85.0492C167.368 84.4943 167.22 84.0759 166.961 83.7939C166.702 83.5074 166.342 83.3641 165.883 83.3641Z" fill="#637895"/>
<path d="M171.873 82.1702L171.921 83.023C172.467 82.3635 173.183 82.0338 174.07 82.0338C175.607 82.0338 176.389 82.9138 176.417 84.674V89.5519H174.759V84.7695C174.759 84.301 174.657 83.9554 174.452 83.7325C174.252 83.5051 173.922 83.3914 173.463 83.3914C172.794 83.3914 172.296 83.6939 171.969 84.2988V89.5519H170.311V82.1702H171.873Z" fill="#637895"/>
<path d="M181.329 85.9975H177.747V84.6604H181.329V85.9975Z" fill="#637895"/>
<path d="M190.648 87.0959L192.176 79.6187H193.889L191.596 89.5519H189.945L188.056 82.2998L186.125 89.5519H184.467L182.175 79.6187H183.887L185.429 87.0823L187.326 79.6187H188.772L190.648 87.0959Z" fill="#637895"/>
<path d="M197.573 87.1778L199.074 82.1702H200.84L197.907 90.6708C197.457 91.9125 196.693 92.5333 195.615 92.5333C195.374 92.5333 195.107 92.4923 194.816 92.4105V91.1279L195.13 91.1484C195.549 91.1484 195.862 91.071 196.072 90.9164C196.285 90.7663 196.454 90.5116 196.577 90.1523L196.815 89.5178L194.223 82.1702H196.01L197.573 87.1778Z" fill="#637895"/>
<path d="M201.379 85.7929C201.379 85.0697 201.523 84.4193 201.809 83.8417C202.096 83.2595 202.498 82.8138 203.017 82.5045C203.535 82.1907 204.131 82.0338 204.804 82.0338C205.8 82.0338 206.608 82.3544 207.226 82.9957C207.849 83.637 208.186 84.4875 208.236 85.5473L208.243 85.9361C208.243 86.6638 208.102 87.3142 207.82 87.8873C207.542 88.4604 207.142 88.9038 206.619 89.2176C206.1 89.5315 205.5 89.6884 204.818 89.6884C203.776 89.6884 202.942 89.3427 202.314 88.6514C201.691 87.9555 201.379 87.03 201.379 85.8747V85.7929ZM203.037 85.9361C203.037 86.6957 203.194 87.2915 203.508 87.7236C203.822 88.1511 204.258 88.3649 204.818 88.3649C205.377 88.3649 205.812 88.1465 206.121 87.7099C206.435 87.2733 206.592 86.6343 206.592 85.7929C206.592 85.047 206.43 84.4557 206.107 84.0191C205.789 83.5824 205.355 83.3641 204.804 83.3641C204.263 83.3641 203.833 83.5802 203.515 84.0122C203.196 84.4398 203.037 85.0811 203.037 85.9361Z" fill="#637895"/>
<path d="M211.204 82.1702L211.251 82.9411C211.77 82.3362 212.479 82.0338 213.38 82.0338C214.367 82.0338 215.042 82.4113 215.406 83.1663C215.943 82.4113 216.698 82.0338 217.671 82.0338C218.485 82.0338 219.09 82.2589 219.486 82.7092C219.886 83.1595 220.091 83.8235 220.1 84.7013V89.5519H218.442V84.749C218.442 84.2806 218.34 83.9372 218.135 83.7189C217.93 83.5006 217.591 83.3914 217.118 83.3914C216.741 83.3914 216.432 83.4937 216.191 83.6984C215.954 83.8985 215.788 84.1623 215.693 84.4898L215.699 89.5519H214.042V84.6945C214.019 83.8258 213.575 83.3914 212.711 83.3914C212.047 83.3914 211.577 83.662 211.299 84.2033V89.5519H209.641V82.1702H211.204Z" fill="#637895"/>
<path d="M223.566 89.5519H221.908V82.1702H223.566V89.5519ZM221.805 80.2532C221.805 79.9985 221.885 79.787 222.044 79.6187C222.208 79.4504 222.44 79.3663 222.74 79.3663C223.04 79.3663 223.272 79.4504 223.436 79.6187C223.6 79.787 223.682 79.9985 223.682 80.2532C223.682 80.5033 223.6 80.7125 223.436 80.8808C223.272 81.0445 223.04 81.1264 222.74 81.1264C222.44 81.1264 222.208 81.0445 222.044 80.8808C221.885 80.7125 221.805 80.5033 221.805 80.2532Z" fill="#637895"/>
<path d="M226.915 82.1702L226.963 83.023C227.509 82.3635 228.225 82.0338 229.112 82.0338C230.649 82.0338 231.432 82.9138 231.459 84.674V89.5519H229.801V84.7695C229.801 84.301 229.699 83.9554 229.494 83.7325C229.294 83.5051 228.964 83.3914 228.505 83.3914C227.836 83.3914 227.338 83.6939 227.011 84.2988V89.5519H225.353V82.1702H226.915Z" fill="#637895"/>
<path d="M232.864 85.8065C232.864 84.6604 233.133 83.7462 233.669 83.0639C234.211 82.3772 234.927 82.0338 235.818 82.0338C236.66 82.0338 237.322 82.3271 237.804 82.9138L237.879 82.1702H239.373V89.3268C239.373 90.2956 239.07 91.0597 238.465 91.6191C237.865 92.1785 237.053 92.4582 236.03 92.4582C235.489 92.4582 234.959 92.3445 234.44 92.1171C233.926 91.8943 233.535 91.6009 233.267 91.237L234.051 90.241C234.561 90.8459 235.188 91.1484 235.934 91.1484C236.485 91.1484 236.919 90.9983 237.237 90.6981C237.556 90.4025 237.715 89.9658 237.715 89.3882V88.8902C237.237 89.4223 236.601 89.6884 235.805 89.6884C234.941 89.6884 234.233 89.345 233.683 88.6582C233.137 87.9714 232.864 87.0209 232.864 85.8065ZM234.515 85.9498C234.515 86.6911 234.665 87.2756 234.966 87.7031C235.27 88.1261 235.691 88.3376 236.228 88.3376C236.896 88.3376 237.392 88.051 237.715 87.478V84.2306C237.401 83.6711 236.91 83.3914 236.241 83.3914C235.696 83.3914 235.27 83.6074 234.966 84.0395C234.665 84.4716 234.515 85.1084 234.515 85.9498Z" fill="#637895"/>
<path d="M241.317 91.7897L240.423 91.2575C240.687 90.8436 240.867 90.482 240.962 90.1728C241.062 89.868 241.115 89.5565 241.119 89.2381V87.9487H242.613L242.607 89.1426C242.602 89.6247 242.479 90.1068 242.238 90.5889C242.002 91.0756 241.695 91.4758 241.317 91.7897Z" fill="#637895"/>
<path d="M247.792 89.5519V79.6187H250.725C251.603 79.6187 252.381 79.8143 253.058 80.2054C253.741 80.5965 254.268 81.1514 254.641 81.87C255.014 82.5887 255.201 83.4119 255.201 84.3397V84.8377C255.201 85.7792 255.012 86.607 254.634 87.3211C254.261 88.0351 253.727 88.5854 253.031 88.972C252.34 89.3586 251.546 89.5519 250.65 89.5519H247.792ZM249.518 81.0104V88.1738H250.643C251.548 88.1738 252.242 87.8918 252.724 87.3279C253.211 86.7593 253.459 85.9452 253.468 84.8855V84.3329C253.468 83.255 253.233 82.4317 252.765 81.8632C252.297 81.2947 251.617 81.0104 250.725 81.0104H249.518Z" fill="#637895"/>
<path d="M262.726 85.1174H258.646V88.1738H263.415V89.5519H256.92V79.6187H263.367V81.0104H258.646V83.753H262.726V85.1174Z" fill="#637895"/>
<path d="M272.522 89.5519H270.871V81.5767L268.436 82.409V81.0104L272.311 79.5846H272.522V89.5519Z" fill="#637895"/>
<path d="M280.675 85.3972C280.12 85.9839 279.472 86.2772 278.731 86.2772C277.857 86.2772 277.161 85.9725 276.643 85.3631C276.124 84.749 275.865 83.944 275.865 82.948C275.865 82.293 275.997 81.6995 276.261 81.1673C276.525 80.6352 276.9 80.2213 277.387 79.9257C277.873 79.6301 278.437 79.4822 279.079 79.4822C280.079 79.4822 280.873 79.8552 281.46 80.6011C282.046 81.347 282.34 82.3453 282.34 83.5961V84.06C282.34 85.852 281.935 87.2187 281.125 88.1602C280.316 89.1017 279.108 89.5792 277.503 89.5929H277.305V88.2216H277.544C278.521 88.2079 279.272 87.9737 279.795 87.5189C280.318 87.0595 280.611 86.3523 280.675 85.3972ZM279.079 84.981C279.411 84.981 279.722 84.8855 280.013 84.6945C280.304 84.5034 280.529 84.2396 280.689 83.9031V83.255C280.689 82.5227 280.539 81.9337 280.238 81.488C279.938 81.0423 279.549 80.8194 279.072 80.8194C278.594 80.8194 278.212 81.0173 277.926 81.4129C277.644 81.8041 277.503 82.2998 277.503 82.9002C277.503 83.5233 277.646 84.0259 277.932 84.4079C278.219 84.79 278.601 84.981 279.079 84.981Z" fill="#637895"/>
<path d="M288.616 85.3972C288.061 85.9839 287.413 86.2772 286.672 86.2772C285.799 86.2772 285.103 85.9725 284.584 85.3631C284.066 84.749 283.806 83.944 283.806 82.948C283.806 82.293 283.938 81.6995 284.202 81.1673C284.466 80.6352 284.841 80.2213 285.328 79.9257C285.814 79.6301 286.378 79.4822 287.02 79.4822C288.02 79.4822 288.814 79.8552 289.401 80.6011C289.987 81.347 290.281 82.3453 290.281 83.5961V84.06C290.281 85.852 289.876 87.2187 289.066 88.1602C288.257 89.1017 287.049 89.5792 285.444 89.5929H285.246V88.2216H285.485C286.463 88.2079 287.213 87.9737 287.736 87.5189C288.259 87.0595 288.552 86.3523 288.616 85.3972ZM287.02 84.981C287.352 84.981 287.663 84.8855 287.954 84.6945C288.245 84.5034 288.471 84.2396 288.63 83.9031V83.255C288.63 82.5227 288.48 81.9337 288.179 81.488C287.879 81.0423 287.49 80.8194 287.013 80.8194C286.535 80.8194 286.153 81.0173 285.867 81.4129C285.585 81.8041 285.444 82.2998 285.444 82.9002C285.444 83.5233 285.587 84.0259 285.874 84.4079C286.16 84.79 286.542 84.981 287.02 84.981Z" fill="#637895"/>
<path d="M293.774 83.828H294.783C295.293 83.8235 295.695 83.6916 295.991 83.4323C296.291 83.1731 296.441 82.7979 296.441 82.3067C296.441 81.8337 296.316 81.4675 296.066 81.2083C295.82 80.9445 295.443 80.8126 294.934 80.8126C294.488 80.8126 294.122 80.9422 293.835 81.2015C293.549 81.4562 293.405 81.7904 293.405 82.2043H291.748C291.748 81.6949 291.882 81.231 292.15 80.8126C292.423 80.3941 292.8 80.069 293.283 79.837C293.769 79.6005 294.313 79.4822 294.913 79.4822C295.905 79.4822 296.682 79.7324 297.246 80.2327C297.815 80.7284 298.099 81.4198 298.099 82.3067C298.099 82.7524 297.956 83.1731 297.669 83.5688C297.387 83.9599 297.021 84.2556 296.571 84.4557C297.117 84.6422 297.531 84.9355 297.813 85.3358C298.099 85.736 298.242 86.2136 298.242 86.7684C298.242 87.6599 297.935 88.3694 297.321 88.897C296.712 89.4246 295.909 89.6884 294.913 89.6884C293.958 89.6884 293.176 89.4337 292.566 88.9243C291.957 88.4149 291.652 87.7372 291.652 86.8912H293.31C293.31 87.3279 293.455 87.6826 293.746 87.9555C294.042 88.2284 294.438 88.3649 294.934 88.3649C295.448 88.3649 295.852 88.2284 296.148 87.9555C296.444 87.6826 296.591 87.2869 296.591 86.7684C296.591 86.2454 296.437 85.8429 296.127 85.5609C295.818 85.2789 295.359 85.1379 294.749 85.1379H293.774V83.828Z" fill="#637895"/>
<path d="M305.406 86.0112H306.641V87.3415H305.406V89.5519H303.748V87.3415H299.457L299.409 86.3318L303.693 79.6187H305.406V86.0112ZM301.149 86.0112H303.748V81.8632L303.625 82.0815L301.149 86.0112Z" fill="#637895"/>
<path d="M127.204 107.674V110.31H125.971V103.215H128.685C129.478 103.215 130.106 103.422 130.571 103.834C131.039 104.247 131.273 104.792 131.273 105.471C131.273 106.167 131.044 106.708 130.585 107.094C130.131 107.481 129.492 107.674 128.67 107.674H127.204ZM127.204 106.685H128.685C129.124 106.685 129.458 106.583 129.689 106.378C129.92 106.17 130.035 105.871 130.035 105.481C130.035 105.098 129.918 104.792 129.684 104.565C129.45 104.334 129.128 104.216 128.719 104.209H127.204V106.685Z" fill="#637895"/>
<path d="M133.407 105.613C133.794 105.164 134.283 104.94 134.874 104.94C135.998 104.94 136.568 105.582 136.584 106.865V110.31H135.4V106.909C135.4 106.545 135.32 106.289 135.161 106.139C135.005 105.986 134.775 105.91 134.469 105.91C133.995 105.91 133.641 106.121 133.407 106.544V110.31H132.223V102.825H133.407V105.613Z" fill="#637895"/>
<path d="M137.564 107.625C137.564 107.109 137.666 106.644 137.871 106.232C138.075 105.816 138.363 105.497 138.733 105.277C139.104 105.052 139.529 104.94 140.01 104.94C140.721 104.94 141.298 105.169 141.74 105.627C142.185 106.085 142.425 106.693 142.461 107.45L142.466 107.728C142.466 108.247 142.365 108.712 142.164 109.121C141.966 109.531 141.68 109.847 141.306 110.072C140.936 110.296 140.507 110.408 140.02 110.408C139.276 110.408 138.68 110.161 138.231 109.667C137.786 109.17 137.564 108.509 137.564 107.684V107.625ZM138.748 107.728C138.748 108.27 138.86 108.696 139.084 109.004C139.308 109.31 139.62 109.462 140.02 109.462C140.419 109.462 140.73 109.307 140.951 108.995C141.175 108.683 141.287 108.226 141.287 107.625C141.287 107.093 141.171 106.67 140.941 106.358C140.713 106.046 140.403 105.891 140.01 105.891C139.623 105.891 139.316 106.045 139.089 106.353C138.862 106.659 138.748 107.117 138.748 107.728Z" fill="#637895"/>
<path d="M144.566 105.038L144.6 105.647C144.99 105.176 145.502 104.94 146.135 104.94C147.234 104.94 147.792 105.569 147.812 106.826V110.31H146.628V106.894C146.628 106.56 146.555 106.313 146.408 106.154C146.265 105.991 146.03 105.91 145.702 105.91C145.224 105.91 144.868 106.126 144.635 106.558V110.31H143.45V105.038H144.566Z" fill="#637895"/>
<path d="M151.345 110.408C150.594 110.408 149.985 110.172 149.517 109.701C149.053 109.227 148.821 108.597 148.821 107.811V107.664C148.821 107.138 148.921 106.669 149.123 106.256C149.327 105.84 149.613 105.517 149.98 105.286C150.347 105.056 150.757 104.94 151.208 104.94C151.926 104.94 152.48 105.169 152.87 105.627C153.263 106.085 153.46 106.734 153.46 107.572V108.049H150.014C150.05 108.485 150.195 108.829 150.448 109.082C150.705 109.336 151.026 109.462 151.413 109.462C151.956 109.462 152.397 109.243 152.738 108.805L153.377 109.414C153.166 109.729 152.883 109.974 152.529 110.15C152.178 110.322 151.783 110.408 151.345 110.408ZM151.203 105.891C150.879 105.891 150.615 106.004 150.414 106.232C150.216 106.459 150.089 106.776 150.034 107.182H152.29V107.094C152.264 106.698 152.159 106.399 151.973 106.198C151.788 105.993 151.532 105.891 151.203 105.891Z" fill="#637895"/>
<path d="M155.097 109.063C155.318 109.063 155.488 109.126 155.609 109.253C155.729 109.376 155.789 109.532 155.789 109.721C155.789 109.906 155.729 110.06 155.609 110.184C155.488 110.304 155.318 110.364 155.097 110.364C154.886 110.364 154.719 110.304 154.595 110.184C154.472 110.064 154.41 109.909 154.41 109.721C154.41 109.532 154.47 109.376 154.59 109.253C154.71 109.126 154.879 109.063 155.097 109.063ZM155.097 104.926C155.318 104.926 155.488 104.989 155.609 105.116C155.729 105.239 155.789 105.395 155.789 105.584C155.789 105.769 155.729 105.923 155.609 106.046C155.488 106.167 155.318 106.227 155.097 106.227C154.886 106.227 154.719 106.167 154.595 106.046C154.472 105.926 154.41 105.772 154.41 105.584C154.41 105.395 154.47 105.239 154.59 105.116C154.71 104.989 154.879 104.926 155.097 104.926Z" fill="#637895"/>
<path d="M163.298 106.222H164.02C164.383 106.219 164.671 106.124 164.882 105.939C165.097 105.754 165.204 105.486 165.204 105.135C165.204 104.797 165.114 104.536 164.936 104.351C164.76 104.162 164.491 104.068 164.127 104.068C163.808 104.068 163.547 104.161 163.342 104.346C163.138 104.528 163.035 104.766 163.035 105.062H161.851C161.851 104.698 161.947 104.367 162.139 104.068C162.334 103.769 162.603 103.537 162.948 103.371C163.295 103.202 163.683 103.118 164.112 103.118C164.82 103.118 165.376 103.296 165.779 103.654C166.185 104.008 166.388 104.502 166.388 105.135C166.388 105.454 166.286 105.754 166.081 106.037C165.879 106.316 165.618 106.527 165.296 106.67C165.686 106.803 165.982 107.013 166.183 107.299C166.388 107.585 166.49 107.926 166.49 108.322C166.49 108.959 166.271 109.466 165.832 109.843C165.397 110.219 164.824 110.408 164.112 110.408C163.43 110.408 162.871 110.226 162.436 109.862C162.001 109.498 161.783 109.014 161.783 108.41H162.967C162.967 108.722 163.071 108.975 163.279 109.17C163.49 109.365 163.773 109.462 164.127 109.462C164.494 109.462 164.783 109.365 164.994 109.17C165.205 108.975 165.311 108.693 165.311 108.322C165.311 107.949 165.201 107.661 164.98 107.46C164.759 107.258 164.431 107.158 163.995 107.158H163.298V106.222Z" fill="#637895"/>
<path d="M172.226 107.323C172.226 108.343 172.034 109.113 171.651 109.633C171.271 110.15 170.691 110.408 169.911 110.408C169.144 110.408 168.566 110.156 168.176 109.653C167.79 109.146 167.592 108.397 167.582 107.406V106.178C167.582 105.158 167.772 104.393 168.152 103.883C168.535 103.373 169.118 103.118 169.901 103.118C170.678 103.118 171.256 103.366 171.636 103.863C172.02 104.36 172.216 105.104 172.226 106.095V107.323ZM171.042 105.998C171.042 105.332 170.951 104.844 170.769 104.536C170.587 104.224 170.298 104.068 169.901 104.068C169.515 104.068 169.231 104.216 169.049 104.511C168.867 104.804 168.771 105.262 168.761 105.886V107.494C168.761 108.157 168.854 108.65 169.039 108.975C169.224 109.3 169.515 109.462 169.911 109.462C170.291 109.462 170.572 109.313 170.754 109.014C170.936 108.712 171.032 108.241 171.042 107.601V105.998Z" fill="#637895"/>
<path d="M178.044 110.31H173.274V109.497L175.637 106.919C175.978 106.539 176.22 106.222 176.363 105.969C176.509 105.712 176.582 105.455 176.582 105.199C176.582 104.861 176.487 104.588 176.295 104.38C176.106 104.172 175.851 104.068 175.53 104.068C175.146 104.068 174.849 104.185 174.638 104.419C174.427 104.653 174.321 104.973 174.321 105.379H173.137C173.137 104.947 173.235 104.559 173.429 104.214C173.628 103.867 173.909 103.597 174.273 103.405C174.64 103.214 175.062 103.118 175.54 103.118C176.228 103.118 176.771 103.292 177.167 103.639C177.567 103.984 177.767 104.461 177.767 105.072C177.767 105.426 177.666 105.798 177.464 106.188C177.266 106.574 176.94 107.015 176.485 107.508L174.75 109.365H178.044V110.31Z" fill="#637895"/>
<path d="M181.319 107.772H178.761V106.816H181.319V107.772Z" fill="#637895"/>
<path d="M185.905 103.181V104.161H185.758C185.096 104.17 184.566 104.352 184.17 104.706C183.773 105.06 183.538 105.562 183.463 106.212C183.843 105.813 184.329 105.613 184.92 105.613C185.547 105.613 186.041 105.834 186.402 106.276C186.765 106.717 186.947 107.287 186.947 107.986C186.947 108.707 186.735 109.292 186.309 109.74C185.887 110.185 185.331 110.408 184.642 110.408C183.934 110.408 183.359 110.146 182.917 109.623C182.479 109.1 182.259 108.415 182.259 107.567V107.162C182.259 105.918 182.562 104.944 183.166 104.239C183.773 103.534 184.646 103.181 185.783 103.181H185.905ZM184.633 106.568C184.373 106.568 184.134 106.641 183.916 106.787C183.702 106.933 183.544 107.128 183.444 107.372V107.733C183.444 108.259 183.554 108.678 183.775 108.99C183.996 109.298 184.282 109.453 184.633 109.453C184.984 109.453 185.261 109.321 185.466 109.058C185.671 108.795 185.773 108.449 185.773 108.02C185.773 107.591 185.669 107.242 185.461 106.972C185.253 106.703 184.977 106.568 184.633 106.568Z" fill="#637895"/>
<path d="M188.21 106.792L188.594 103.215H192.405V104.239H189.579L189.384 105.934C189.712 105.746 190.082 105.652 190.495 105.652C191.171 105.652 191.695 105.868 192.069 106.3C192.446 106.732 192.634 107.313 192.634 108.044C192.634 108.766 192.426 109.341 192.01 109.769C191.595 110.195 191.025 110.408 190.3 110.408C189.65 110.408 189.111 110.224 188.682 109.857C188.257 109.487 188.026 109 187.99 108.395H189.135C189.181 108.74 189.304 109.004 189.506 109.19C189.707 109.372 189.97 109.462 190.295 109.462C190.659 109.462 190.942 109.333 191.143 109.073C191.348 108.813 191.45 108.459 191.45 108.01C191.45 107.578 191.338 107.237 191.114 106.987C190.89 106.734 190.581 106.607 190.188 106.607C189.974 106.607 189.792 106.636 189.642 106.695C189.493 106.75 189.33 106.86 189.155 107.026L188.21 106.792Z" fill="#637895"/>
<path d="M194.934 106.222H195.656C196.019 106.219 196.307 106.124 196.518 105.939C196.732 105.754 196.84 105.486 196.84 105.135C196.84 104.797 196.75 104.536 196.572 104.351C196.396 104.162 196.127 104.068 195.763 104.068C195.444 104.068 195.183 104.161 194.978 104.346C194.774 104.528 194.671 104.766 194.671 105.062H193.487C193.487 104.698 193.583 104.367 193.775 104.068C193.969 103.769 194.239 103.537 194.583 103.371C194.931 103.202 195.319 103.118 195.748 103.118C196.456 103.118 197.012 103.296 197.415 103.654C197.821 104.008 198.024 104.502 198.024 105.135C198.024 105.454 197.922 105.754 197.717 106.037C197.515 106.316 197.254 106.527 196.932 106.67C197.322 106.803 197.618 107.013 197.819 107.299C198.024 107.585 198.126 107.926 198.126 108.322C198.126 108.959 197.907 109.466 197.468 109.843C197.033 110.219 196.46 110.408 195.748 110.408C195.066 110.408 194.507 110.226 194.072 109.862C193.636 109.498 193.419 109.014 193.419 108.41H194.603C194.603 108.722 194.707 108.975 194.915 109.17C195.126 109.365 195.409 109.462 195.763 109.462C196.13 109.462 196.419 109.365 196.63 109.17C196.841 108.975 196.947 108.693 196.947 108.322C196.947 107.949 196.836 107.661 196.616 107.46C196.395 107.258 196.067 107.158 195.631 107.158H194.934V106.222Z" fill="#637895"/>
<path d="M201.61 107.772H199.052V106.816H201.61V107.772Z" fill="#637895"/>
<path d="M205.718 110.31H204.539V104.614L202.799 105.208V104.209L205.567 103.191H205.718V110.31Z" fill="#637895"/>
<path d="M212.653 105.086C212.653 105.434 212.563 105.744 212.385 106.017C212.206 106.287 211.962 106.5 211.654 106.656C212.024 106.828 212.308 107.063 212.507 107.362C212.708 107.661 212.809 107.999 212.809 108.376C212.809 109 212.598 109.495 212.175 109.862C211.753 110.226 211.191 110.408 210.489 110.408C209.784 110.408 209.219 110.224 208.793 109.857C208.371 109.49 208.16 108.996 208.16 108.376C208.16 107.996 208.261 107.655 208.462 107.352C208.663 107.05 208.946 106.818 209.31 106.656C209.005 106.5 208.762 106.287 208.584 106.017C208.408 105.744 208.321 105.434 208.321 105.086C208.321 104.482 208.516 104.003 208.905 103.649C209.295 103.295 209.822 103.118 210.484 103.118C211.15 103.118 211.678 103.295 212.068 103.649C212.458 104.003 212.653 104.482 212.653 105.086ZM211.625 108.317C211.625 107.966 211.519 107.684 211.308 107.469C211.1 107.252 210.824 107.143 210.479 107.143C210.135 107.143 209.859 107.25 209.651 107.465C209.446 107.679 209.344 107.963 209.344 108.317C209.344 108.665 209.445 108.943 209.646 109.151C209.851 109.359 210.132 109.462 210.489 109.462C210.847 109.462 211.124 109.362 211.322 109.16C211.524 108.959 211.625 108.678 211.625 108.317ZM211.474 105.13C211.474 104.822 211.384 104.568 211.206 104.37C211.027 104.169 210.786 104.068 210.484 104.068C210.182 104.068 209.943 104.164 209.768 104.356C209.593 104.544 209.505 104.802 209.505 105.13C209.505 105.455 209.593 105.713 209.768 105.905C209.947 106.097 210.187 106.193 210.489 106.193C210.791 106.193 211.03 106.097 211.206 105.905C211.384 105.713 211.474 105.455 211.474 105.13Z" fill="#637895"/>
<path d="M217.862 107.781H218.744V108.732H217.862V110.31H216.678V108.732H213.613L213.579 108.01L216.639 103.215H217.862V107.781ZM214.821 107.781H216.678V104.818L216.59 104.974L214.821 107.781Z" fill="#637895"/>
<path d="M223.534 107.781H224.416V108.732H223.534V110.31H222.35V108.732H219.285L219.251 108.01L222.311 103.215H223.534V107.781ZM220.494 107.781H222.35V104.818L222.262 104.974L220.494 107.781Z" fill="#637895"/>
<path d="M231.302 111.626H230.488V103.215H231.302V111.626Z" fill="#637895"/>
<path d="M241.925 107.304H239.07V110.31H237.837V103.215H242.344V104.209H239.07V106.319H241.925V107.304Z" fill="#637895"/>
<path d="M246.194 110.31C246.142 110.21 246.097 110.046 246.058 109.818C245.681 110.211 245.22 110.408 244.674 110.408C244.144 110.408 243.712 110.257 243.377 109.955C243.043 109.653 242.876 109.279 242.876 108.834C242.876 108.272 243.083 107.841 243.499 107.543C243.918 107.24 244.516 107.089 245.293 107.089H246.019V106.743C246.019 106.47 245.942 106.253 245.79 106.09C245.637 105.925 245.405 105.842 245.093 105.842C244.823 105.842 244.602 105.91 244.43 106.046C244.258 106.18 244.172 106.35 244.172 106.558H242.988C242.988 106.269 243.083 105.999 243.275 105.749C243.467 105.496 243.727 105.298 244.055 105.155C244.386 105.012 244.755 104.94 245.161 104.94C245.778 104.94 246.27 105.096 246.638 105.408C247.005 105.717 247.193 106.152 247.203 106.714V109.092C247.203 109.566 247.269 109.945 247.403 110.228V110.31H246.194ZM244.893 109.458C245.127 109.458 245.346 109.401 245.551 109.287C245.759 109.173 245.915 109.021 246.019 108.829V107.835H245.38C244.942 107.835 244.612 107.911 244.391 108.064C244.17 108.217 244.06 108.433 244.06 108.712C244.06 108.939 244.134 109.121 244.284 109.258C244.437 109.391 244.64 109.458 244.893 109.458Z" fill="#637895"/>
<path d="M250.336 106.773L251.34 105.038H252.656L251.043 107.635L252.709 110.31H251.403L250.351 108.507L249.303 110.31H247.987L249.654 107.635L248.046 105.038H249.352L250.336 106.773Z" fill="#637895"/>
<path d="M254.176 109.063C254.397 109.063 254.568 109.126 254.688 109.253C254.808 109.376 254.868 109.532 254.868 109.721C254.868 109.906 254.808 110.06 254.688 110.184C254.568 110.304 254.397 110.364 254.176 110.364C253.965 110.364 253.798 110.304 253.674 110.184C253.551 110.064 253.489 109.909 253.489 109.721C253.489 109.532 253.549 109.376 253.669 109.253C253.79 109.126 253.959 109.063 254.176 109.063ZM254.176 104.926C254.397 104.926 254.568 104.989 254.688 105.116C254.808 105.239 254.868 105.395 254.868 105.584C254.868 105.769 254.808 105.923 254.688 106.046C254.568 106.167 254.397 106.227 254.176 106.227C253.965 106.227 253.798 106.167 253.674 106.046C253.551 105.926 253.489 105.772 253.489 105.584C253.489 105.395 253.549 105.239 253.669 105.116C253.79 104.989 253.959 104.926 254.176 104.926Z" fill="#637895"/>
<path d="M262.378 106.222H263.099C263.463 106.219 263.75 106.124 263.961 105.939C264.176 105.754 264.283 105.486 264.283 105.135C264.283 104.797 264.194 104.536 264.015 104.351C263.839 104.162 263.57 104.068 263.206 104.068C262.888 104.068 262.626 104.161 262.421 104.346C262.217 104.528 262.114 104.766 262.114 105.062H260.93C260.93 104.698 261.026 104.367 261.218 104.068C261.413 103.769 261.682 103.537 262.027 103.371C262.374 103.202 262.763 103.118 263.191 103.118C263.9 103.118 264.455 103.296 264.858 103.654C265.264 104.008 265.467 104.502 265.467 105.135C265.467 105.454 265.365 105.754 265.16 106.037C264.959 106.316 264.697 106.527 264.376 106.67C264.765 106.803 265.061 107.013 265.262 107.299C265.467 107.585 265.569 107.926 265.569 108.322C265.569 108.959 265.35 109.466 264.912 109.843C264.476 110.219 263.903 110.408 263.191 110.408C262.509 110.408 261.95 110.226 261.515 109.862C261.08 109.498 260.862 109.014 260.862 108.41H262.046C262.046 108.722 262.15 108.975 262.358 109.17C262.569 109.365 262.852 109.462 263.206 109.462C263.573 109.462 263.862 109.365 264.073 109.17C264.285 108.975 264.39 108.693 264.39 108.322C264.39 107.949 264.28 107.661 264.059 107.46C263.838 107.258 263.51 107.158 263.074 107.158H262.378V106.222Z" fill="#637895"/>
<path d="M271.305 107.323C271.305 108.343 271.113 109.113 270.73 109.633C270.35 110.15 269.77 110.408 268.99 110.408C268.224 110.408 267.645 110.156 267.256 109.653C266.869 109.146 266.671 108.397 266.661 107.406V106.178C266.661 105.158 266.851 104.393 267.231 103.883C267.615 103.373 268.198 103.118 268.981 103.118C269.757 103.118 270.335 103.366 270.715 103.863C271.099 104.36 271.295 105.104 271.305 106.095V107.323ZM270.121 105.998C270.121 105.332 270.03 104.844 269.848 104.536C269.666 104.224 269.377 104.068 268.981 104.068C268.594 104.068 268.31 104.216 268.128 104.511C267.946 104.804 267.85 105.262 267.84 105.886V107.494C267.84 108.157 267.933 108.65 268.118 108.975C268.303 109.3 268.594 109.462 268.99 109.462C269.37 109.462 269.651 109.313 269.833 109.014C270.015 108.712 270.111 108.241 270.121 107.601V105.998Z" fill="#637895"/>
<path d="M277.123 110.31H272.353V109.497L274.716 106.919C275.057 106.539 275.299 106.222 275.442 105.969C275.588 105.712 275.662 105.455 275.662 105.199C275.662 104.861 275.566 104.588 275.374 104.38C275.186 104.172 274.931 104.068 274.609 104.068C274.226 104.068 273.928 104.185 273.717 104.419C273.506 104.653 273.4 104.973 273.4 105.379H272.216C272.216 104.947 272.314 104.559 272.509 104.214C272.707 103.867 272.988 103.597 273.352 103.405C273.719 103.214 274.141 103.118 274.619 103.118C275.307 103.118 275.85 103.292 276.246 103.639C276.646 103.984 276.846 104.461 276.846 105.072C276.846 105.426 276.745 105.798 276.544 106.188C276.345 106.574 276.019 107.015 275.564 107.508L273.829 109.365H277.123V110.31Z" fill="#637895"/>
<path d="M280.398 107.772H277.84V106.816H280.398V107.772Z" fill="#637895"/>
<path d="M281.616 106.792L282.001 103.215H285.812V104.239H282.986L282.791 105.934C283.119 105.746 283.489 105.652 283.902 105.652C284.578 105.652 285.102 105.868 285.476 106.3C285.853 106.732 286.041 107.313 286.041 108.044C286.041 108.766 285.833 109.341 285.417 109.769C285.002 110.195 284.431 110.408 283.707 110.408C283.057 110.408 282.518 110.224 282.089 109.857C281.664 109.487 281.433 109 281.397 108.395H282.542C282.588 108.74 282.711 109.004 282.913 109.19C283.114 109.372 283.377 109.462 283.702 109.462C284.066 109.462 284.349 109.333 284.55 109.073C284.755 108.813 284.857 108.459 284.857 108.01C284.857 107.578 284.745 107.237 284.521 106.987C284.297 106.734 283.988 106.607 283.595 106.607C283.38 106.607 283.199 106.636 283.049 106.695C282.9 106.75 282.737 106.86 282.562 107.026L281.616 106.792Z" fill="#637895"/>
<path d="M288.341 106.222H289.062C289.426 106.219 289.714 106.124 289.925 105.939C290.139 105.754 290.247 105.486 290.247 105.135C290.247 104.797 290.157 104.536 289.979 104.351C289.803 104.162 289.534 104.068 289.17 104.068C288.851 104.068 288.59 104.161 288.385 104.346C288.18 104.528 288.078 104.766 288.078 105.062H286.894C286.894 104.698 286.99 104.367 287.181 104.068C287.376 103.769 287.646 103.537 287.99 103.371C288.338 103.202 288.726 103.118 289.155 103.118C289.863 103.118 290.419 103.296 290.822 103.654C291.228 104.008 291.431 104.502 291.431 105.135C291.431 105.454 291.328 105.754 291.124 106.037C290.922 106.316 290.661 106.527 290.339 106.67C290.729 106.803 291.025 107.013 291.226 107.299C291.431 107.585 291.533 107.926 291.533 108.322C291.533 108.959 291.314 109.466 290.875 109.843C290.44 110.219 289.867 110.408 289.155 110.408C288.473 110.408 287.914 110.226 287.479 109.862C287.043 109.498 286.826 109.014 286.826 108.41H288.01C288.01 108.722 288.114 108.975 288.322 109.17C288.533 109.365 288.816 109.462 289.17 109.462C289.537 109.462 289.826 109.365 290.037 109.17C290.248 108.975 290.354 108.693 290.354 108.322C290.354 107.949 290.243 107.661 290.022 107.46C289.802 107.258 289.473 107.158 289.038 107.158H288.341V106.222Z" fill="#637895"/>
<path d="M297.113 105.086C297.113 105.434 297.023 105.744 296.845 106.017C296.666 106.287 296.422 106.5 296.114 106.656C296.484 106.828 296.768 107.063 296.967 107.362C297.168 107.661 297.269 107.999 297.269 108.376C297.269 109 297.058 109.495 296.635 109.862C296.213 110.226 295.651 110.408 294.949 110.408C294.244 110.408 293.679 110.224 293.253 109.857C292.831 109.49 292.62 108.996 292.62 108.376C292.62 107.996 292.721 107.655 292.922 107.352C293.123 107.05 293.406 106.818 293.77 106.656C293.464 106.5 293.222 106.287 293.044 106.017C292.868 105.744 292.781 105.434 292.781 105.086C292.781 104.482 292.976 104.003 293.365 103.649C293.755 103.295 294.282 103.118 294.944 103.118C295.61 103.118 296.138 103.295 296.528 103.649C296.918 104.003 297.113 104.482 297.113 105.086ZM296.085 108.317C296.085 107.966 295.979 107.684 295.768 107.469C295.56 107.252 295.284 107.143 294.939 107.143C294.595 107.143 294.319 107.25 294.111 107.465C293.906 107.679 293.804 107.963 293.804 108.317C293.804 108.665 293.905 108.943 294.106 109.151C294.311 109.359 294.592 109.462 294.949 109.462C295.307 109.462 295.584 109.362 295.782 109.16C295.984 108.959 296.085 108.678 296.085 108.317ZM295.934 105.13C295.934 104.822 295.844 104.568 295.665 104.37C295.487 104.169 295.246 104.068 294.944 104.068C294.642 104.068 294.403 104.164 294.228 104.356C294.053 104.544 293.965 104.802 293.965 105.13C293.965 105.455 294.053 105.713 294.228 105.905C294.407 106.097 294.647 106.193 294.949 106.193C295.251 106.193 295.49 106.097 295.665 105.905C295.844 105.713 295.934 105.455 295.934 105.13Z" fill="#637895"/>
<path d="M300.69 107.772H298.131V106.816H300.69V107.772Z" fill="#637895"/>
<path d="M301.908 106.792L302.293 103.215H306.104V104.239H303.277L303.082 105.934C303.41 105.746 303.781 105.652 304.193 105.652C304.869 105.652 305.394 105.868 305.767 106.3C306.144 106.732 306.333 107.313 306.333 108.044C306.333 108.766 306.125 109.341 305.709 109.769C305.293 110.195 304.723 110.408 303.998 110.408C303.349 110.408 302.809 110.224 302.381 109.857C301.955 109.487 301.724 109 301.689 108.395H302.834C302.879 108.74 303.003 109.004 303.204 109.19C303.406 109.372 303.669 109.462 303.994 109.462C304.357 109.462 304.64 109.333 304.841 109.073C305.046 108.813 305.148 108.459 305.148 108.01C305.148 107.578 305.036 107.237 304.812 106.987C304.588 106.734 304.279 106.607 303.886 106.607C303.672 106.607 303.49 106.636 303.341 106.695C303.191 106.75 303.029 106.86 302.853 107.026L301.908 106.792Z" fill="#637895"/>
<path d="M312.034 110.31H307.263V109.497L309.627 106.919C309.968 106.539 310.21 106.222 310.353 105.969C310.499 105.712 310.572 105.455 310.572 105.199C310.572 104.861 310.476 104.588 310.285 104.38C310.096 104.172 309.841 104.068 309.52 104.068C309.136 104.068 308.839 104.185 308.628 104.419C308.417 104.653 308.311 104.973 308.311 105.379H307.127C307.127 104.947 307.224 104.559 307.419 104.214C307.618 103.867 307.899 103.597 308.262 103.405C308.629 103.214 309.052 103.118 309.529 103.118C310.218 103.118 310.761 103.292 311.157 103.639C311.557 103.984 311.756 104.461 311.756 105.072C311.756 105.426 311.656 105.798 311.454 106.188C311.256 106.574 310.93 107.015 310.475 107.508L308.74 109.365H312.034V110.31Z" fill="#637895"/>
<path d="M317.658 103.873L314.822 110.31H313.579L316.41 104.165H312.741V103.215H317.658V103.873Z" fill="#637895"/>
<path d="M319.977 106.222H320.698C321.062 106.219 321.35 106.124 321.561 105.939C321.775 105.754 321.883 105.486 321.883 105.135C321.883 104.797 321.793 104.536 321.615 104.351C321.439 104.162 321.169 104.068 320.806 104.068C320.487 104.068 320.226 104.161 320.021 104.346C319.816 104.528 319.714 104.766 319.714 105.062H318.53C318.53 104.698 318.626 104.367 318.817 104.068C319.012 103.769 319.282 103.537 319.626 103.371C319.974 103.202 320.362 103.118 320.791 103.118C321.499 103.118 322.055 103.296 322.458 103.654C322.864 104.008 323.067 104.502 323.067 105.135C323.067 105.454 322.964 105.754 322.76 106.037C322.558 106.316 322.297 106.527 321.975 106.67C322.365 106.803 322.661 107.013 322.862 107.299C323.067 107.585 323.169 107.926 323.169 108.322C323.169 108.959 322.95 109.466 322.511 109.843C322.076 110.219 321.502 110.408 320.791 110.408C320.109 110.408 319.55 110.226 319.115 109.862C318.679 109.498 318.462 109.014 318.462 108.41H319.646C319.646 108.722 319.75 108.975 319.958 109.17C320.169 109.365 320.452 109.462 320.806 109.462C321.173 109.462 321.462 109.365 321.673 109.17C321.884 108.975 321.99 108.693 321.99 108.322C321.99 107.949 321.879 107.661 321.658 107.46C321.438 107.258 321.109 107.158 320.674 107.158H319.977V106.222Z" fill="#637895"/>
</g>
<defs>
<clipPath id="clip0">
<rect width="224.751" height="102.411" fill="white" transform="translate(125.249 10.2944)"/>
</clipPath>
</defs>
</svg>
