<svg width="49" height="31" viewBox="0 0 49 31" fill="none" xmlns="http://www.w3.org/2000/svg">
<g clip-path="url(#clip0)">
<path d="M3.68046 2.29641C2.83485 2.29641 2.14935 2.96664 2.14935 3.79341V27.2066C2.14935 28.0334 2.83485 28.7036 3.68046 28.7036H44.7143C45.5599 28.7036 46.2454 28.0334 46.2454 27.2066V3.79341C46.2454 2.96664 45.5599 2.29641 44.7143 2.29641H3.68046ZM3.68046 0.5H44.7143C46.5746 0.5 48.0827 1.97451 48.0827 3.79341V27.2066C48.0827 29.0255 46.5746 30.5 44.7143 30.5H3.68046C1.82012 30.5 0.312012 29.0255 0.312012 27.2066V3.79341C0.312012 1.97451 1.82012 0.5 3.68046 0.5Z" fill="white"/>
<path d="M44.1958 15.4782C44.1958 22.3087 38.627 27.8676 31.7826 27.8676C28.9278 27.8676 26.296 26.8985 24.1965 25.2778C22.0983 26.8985 19.4666 27.8676 16.6117 27.8676C9.76735 27.8676 4.19885 22.3087 4.19885 15.4782C4.19885 8.64742 9.76735 3.09119 16.6117 3.09119C19.4666 3.09119 22.0983 4.05668 24.1965 5.6797C26.296 4.05668 28.9278 3.09119 31.7826 3.09119C38.627 3.09119 44.1958 8.64742 44.1958 15.4782ZM31.7647 4.18541C29.2468 4.18541 26.9223 5.0087 25.0444 6.39804C26.7476 7.98003 28.0072 10.0344 28.6091 12.3496H27.4586C26.8692 10.3027 25.7171 8.49562 24.1786 7.1049C22.6418 8.49562 21.4888 10.3027 20.9016 12.3496H19.7495C20.3528 10.0344 21.6124 7.98003 23.3156 6.39804C21.4366 5.0087 19.1129 4.18541 16.5938 4.18541C10.3526 4.18541 5.29308 9.23464 5.29308 15.4647C5.29308 21.6932 10.3526 26.744 16.5938 26.744C19.1129 26.744 21.4366 25.9208 23.3156 24.5315C21.7129 23.0419 20.5039 21.1334 19.8647 18.9851H21.028C21.646 20.8661 22.7431 22.5264 24.1786 23.8244C25.6157 22.5264 26.7142 20.8661 27.3322 18.9851H28.4952C27.855 21.1334 26.6462 23.0419 25.0444 24.5315C26.9223 25.9208 29.2468 26.744 31.7647 26.744C38.0059 26.744 43.0655 21.6932 43.0655 15.4647C43.0655 9.23464 38.0059 4.18541 31.7647 4.18541Z" fill="white"/>
<path d="M12.0229 12.7568H10.2133L9.08248 16.1215L9.03537 12.7568H7.35841L6.44812 18.1931H7.5394L8.24029 14.0399L8.33817 18.1931H9.13325L10.6232 14.0151L9.95566 18.1931H11.1212L12.0229 12.7568Z" fill="white"/>
<path d="M15.0264 18.1878H14.0604L14.0828 17.7293C13.7879 18.0915 13.3953 18.2647 12.8617 18.2647C12.2287 18.2647 11.7977 17.7715 11.7977 17.0581C11.7977 15.9802 12.5494 15.3536 13.8425 15.3536C13.975 15.3536 14.1447 15.3659 14.318 15.3881C14.3541 15.2409 14.3628 15.1792 14.3628 15.1001C14.3628 14.8084 14.1607 14.6983 13.6157 14.6983C13.0461 14.6909 12.5754 14.8331 12.3822 14.8974C12.3947 14.8232 12.5445 13.9035 12.5445 13.9035C13.1242 13.733 13.508 13.6687 13.9391 13.6687C14.9399 13.6687 15.47 14.1161 15.4688 14.9642C15.47 15.1916 15.4328 15.4721 15.3746 15.8419C15.2731 16.4808 15.0563 17.8529 15.0264 18.1878ZM14.2075 16.2392C14.0849 16.2267 14.0316 16.2219 13.9474 16.2219C13.2859 16.2219 12.9527 16.4479 12.9527 16.893C12.9527 17.1688 13.1163 17.3442 13.369 17.3442C13.8446 17.3442 14.1864 16.893 14.2075 16.2392Z" fill="white"/>
<path d="M30.2887 12.6353C28.7441 12.6353 27.6639 13.9925 27.6639 15.9358C27.6639 17.3794 28.4458 18.2819 29.7004 18.2819C30.0223 18.2819 30.3009 18.2397 30.7295 18.1212L30.9339 16.8837C30.5487 17.073 30.2317 17.1631 29.944 17.1631C29.2665 17.1631 28.8577 16.6637 28.8577 15.8391C28.8577 14.6414 29.4662 13.802 30.3367 13.802C30.66 13.802 30.9622 13.8861 31.3783 14.0963L31.5691 12.9171C31.3983 12.8504 30.7975 12.6353 30.2887 12.6353Z" fill="white"/>
<path d="M34.4809 18.1878H33.5162L33.5384 17.7293C33.2423 18.0915 32.8485 18.2647 32.3157 18.2647C31.6841 18.2647 31.2505 17.7715 31.2505 17.0581C31.2505 15.9802 32.0049 15.3536 33.2968 15.3536C33.4293 15.3536 33.599 15.3659 33.7726 15.3881C33.8081 15.2409 33.817 15.1792 33.817 15.1001C33.817 14.8084 33.6151 14.6983 33.0712 14.6983C32.5005 14.6909 32.031 14.8331 31.8377 14.8974C31.8488 14.8232 31.9988 13.9035 31.9988 13.9035C32.5796 13.733 32.9635 13.6687 33.3921 13.6687C34.3942 13.6687 34.9244 14.1161 34.923 14.9642C34.9255 15.1916 34.8872 15.4721 34.8289 15.8419C34.7286 16.4808 34.5109 17.8529 34.4809 18.1878ZM33.6616 16.2392C33.5402 16.2267 33.4858 16.2219 33.4002 16.2219C32.74 16.2219 32.4056 16.4479 32.4056 16.893C32.4056 17.1688 32.5692 17.3442 32.8244 17.3442C33.2988 17.3442 33.6419 16.893 33.6616 16.2392Z" fill="white"/>
<path d="M20.7622 17.1634C20.6841 17.1908 20.5814 17.2054 20.4489 17.2054C20.1714 17.2054 20.0489 17.1067 20.0489 16.8779C20.0514 16.7371 20.2433 15.6913 20.3772 14.8519H20.9752L21.1338 13.7888H20.538L20.673 13.1216H19.5149C19.5149 13.1216 19.0765 15.7235 19.0109 16.1351C18.9366 16.6061 18.8425 17.119 18.8498 17.3143C18.8498 17.9436 19.1744 18.2861 19.77 18.2861C20.0403 18.2861 20.2889 18.2414 20.6089 18.1426L20.7622 17.1634Z" fill="white"/>
<path d="M24.3227 18.0866C23.9238 18.2079 23.5397 18.2647 23.1336 18.2647C21.8354 18.262 21.1593 17.586 21.1593 16.2918C21.1593 14.7812 22.0201 13.6687 23.188 13.6687C24.143 13.6687 24.7538 14.2904 24.7538 15.2694C24.7538 15.5933 24.7104 15.9085 24.6099 16.3573H22.3037C22.2256 16.9962 22.637 17.2633 23.3108 17.2633C23.7255 17.2633 24.0985 17.1792 24.5146 16.9865L24.3227 18.0866ZM23.7152 15.4934C23.7227 15.402 23.8377 14.7021 23.1764 14.7021C22.8073 14.7021 22.5423 14.9853 22.4359 15.4934H23.7152Z" fill="white"/>
<path d="M15.9493 15.1644C15.9493 15.7244 16.2192 16.1088 16.8361 16.3993C17.308 16.6218 17.381 16.686 17.381 16.8877C17.381 17.1619 17.173 17.2855 16.711 17.2855C16.3642 17.2855 16.0397 17.2335 15.6668 17.1126C15.6668 17.1126 15.5134 18.0866 15.5059 18.1337C15.7722 18.1906 16.0075 18.2447 16.7197 18.2647C17.9495 18.2647 18.5168 17.7961 18.5168 16.7874C18.5168 16.1781 18.2802 15.8246 17.6955 15.5561C17.2077 15.3312 17.1507 15.2818 17.1507 15.0754C17.1507 14.8355 17.3451 14.7144 17.7228 14.7144C17.9507 14.7144 18.264 14.7392 18.5588 14.7812L18.7249 13.7552C18.4226 13.7082 17.9656 13.6687 17.6993 13.6687C16.3951 13.6687 15.9443 14.3473 15.9493 15.1644Z" fill="white"/>
<path d="M41.0416 18.1931H39.9384L39.9939 17.7816C39.6731 18.1217 39.3451 18.27 38.919 18.27C38.0716 18.27 37.5119 17.5418 37.5119 16.4368C37.5119 14.9644 38.3799 13.7259 39.4079 13.7259C39.8589 13.7259 40.2031 13.9088 40.5217 14.3279L40.7791 12.7568H41.9288L41.0416 18.1931ZM39.3249 17.1799C39.8673 17.1799 40.2501 16.5654 40.2501 15.6903C40.2501 15.1279 40.0334 14.8237 39.6318 14.8237C39.103 14.8237 38.7277 15.4381 38.7277 16.3072C38.7277 16.8868 38.9285 17.1799 39.3249 17.1799Z" fill="white"/>
<path d="M35.7406 13.7772C35.5945 15.1445 35.3356 16.5301 35.1337 17.8999L35.0803 18.1976H36.2447C36.6622 15.4944 36.7635 14.9665 37.4163 15.0332C37.5201 14.4781 37.7135 13.995 37.8596 13.7503C37.3707 13.6487 37.098 13.9257 36.7427 14.4486C36.771 14.2211 36.8219 14.0022 36.8108 13.7772H35.7406Z" fill="white"/>
<path d="M25.5292 13.7772C25.3828 15.1445 25.1228 16.5301 24.9209 17.8999L24.8676 18.1976H26.033C26.4505 15.4944 26.5508 14.9665 27.2035 15.0332C27.3088 14.4781 27.5032 13.995 27.6471 13.7503C27.1602 13.6487 26.8855 13.9257 26.5297 14.4486C26.5583 14.2211 26.6088 14.0022 26.5991 13.7772H25.5292Z" fill="white"/>
</g>
<defs>
<clipPath id="clip0">
<rect width="47.7707" height="30" fill="white" transform="translate(0.312012 0.5)"/>
</clipPath>
</defs>
</svg>
