<svg width="56" height="48" viewBox="0 0 56 48" fill="none" xmlns="http://www.w3.org/2000/svg">
<path d="M0.0820312 23.5815L13.4611 0.079707L40.4395 0L37.767 4.68161L16.1735 4.74491L13.4376 9.51795L35.0077 9.45231L32.3985 14.1339L10.7534 14.1972L8.16526 18.6655L29.8174 18.642L27.0605 23.5815" fill="#9FAEC2"/>
<path d="M26.9785 24.6951L40.4677 48H35.0382L24.2801 29.3696L18.8249 29.311L29.6041 47.9625L24.3364 48L13.4892 29.3696L8.08088 29.3134L18.846 47.9578H13.4306L0 24.6951" fill="#637895"/>
<path d="M30.9052 19.2281L28.1506 24.1676L41.6399 47.4725L55.1291 24.109L41.5297 0.58606L38.8572 5.26767L49.6293 24.109L46.9263 28.7836L36.0979 10.0384L33.4887 14.72L44.2421 33.4722L41.5836 38.0952" fill="#435160"/>
</svg>
