<svg width="31" height="19" viewBox="0 0 31 19" fill="none" xmlns="http://www.w3.org/2000/svg">
<path d="M28.2995 13.8V14.3H28.7995H29.7787V14.5H27.2463H26.6139L26.7598 15.1153C26.7987 15.2795 26.8203 15.4391 26.8203 15.6C26.8203 16.8887 25.492 18.1 23.6222 18.1C21.7523 18.1 20.4241 16.8887 20.4241 15.6C20.4241 15.4317 20.4429 15.2758 20.4819 15.1261L20.6452 14.5H19.9981H10.9747H10.3424L10.4882 15.1153C10.5272 15.2795 10.5487 15.4391 10.5487 15.6C10.5487 16.8887 9.22049 18.1 7.35063 18.1C5.48078 18.1 4.15255 16.8887 4.15255 15.6C4.15255 15.4317 4.17132 15.2758 4.21034 15.1261L4.37362 14.5H3.72652H2.97766C2.44955 14.5 1.98757 14.3348 1.66811 14.0905C1.34889 13.8463 1.19409 13.5452 1.19409 13.2525V2.34748C1.19409 2.05474 1.34889 1.75362 1.66811 1.50948C1.98757 1.26517 2.44955 1.09998 2.97766 1.09998H17.6405C18.1686 1.09998 18.6306 1.26517 18.9501 1.50948C19.2693 1.75362 19.4241 2.05474 19.4241 2.34748V4.19997V4.69997H19.9241H21.9627C22.6425 4.69997 23.2887 4.92342 23.7339 5.29066L23.7339 5.29068L23.7371 5.29327L27.6154 8.43953L27.617 8.44081C28.0692 8.80457 28.2995 9.28641 28.2995 9.74622V13.8ZM21.9627 4.89997H21.4627V4.90372H19.9241H19.4241V5.40372V9.00372V9.50372H19.9241H26.9689H28.141L27.3475 8.67607L27.3456 8.6733L27.3447 8.67194C27.3278 8.64645 27.2806 8.57521 27.2007 8.51043L23.3256 5.36678C23.325 5.36631 23.3244 5.36584 23.3238 5.36537C22.9507 5.05834 22.4512 4.89997 21.9627 4.89997ZM9.92493 14.141L10.0732 14.3H10.2906H18.4449H18.9449V13.8V2.34748C18.9449 1.98142 18.727 1.70712 18.4901 1.54621C18.251 1.3838 17.949 1.29998 17.6405 1.29998H2.97766C2.66923 1.29998 2.36723 1.3838 2.12813 1.54621C1.89124 1.70712 1.67332 1.98142 1.67332 2.34748V13.2525C1.67332 13.6185 1.89124 13.8928 2.12813 14.0537C2.36723 14.2161 2.66923 14.3 2.97766 14.3H4.41066H4.62807L4.77634 14.141C5.35003 13.5258 6.27738 13.1 7.35063 13.1C8.42389 13.1 9.35124 13.5258 9.92493 14.141ZM20.6822 14.3H20.8996L21.0479 14.141C21.6218 13.5255 22.5446 13.1 23.6222 13.1C24.6997 13.1 25.6226 13.5255 26.1965 14.141L26.3447 14.3H26.5621H27.3203H27.8203V13.8V10.2V9.69997H27.3203H19.9241H19.4241V10.2V13.8V14.3H19.9241H20.6822ZM4.63179 15.6C4.63179 16.9625 5.95231 17.9 7.35063 17.9C8.74895 17.9 10.0695 16.9625 10.0695 15.6C10.0695 14.2374 8.74895 13.3 7.35063 13.3C5.95231 13.3 4.63179 14.2374 4.63179 15.6ZM20.9033 15.6C20.9033 16.9625 22.2239 17.9 23.6222 17.9C25.0205 17.9 26.341 16.9625 26.341 15.6C26.341 14.2374 25.0205 13.3 23.6222 13.3C22.2239 13.3 20.9033 14.2374 20.9033 15.6Z" fill="#637895" stroke="#425160"/>
</svg>
