<svg width="24" height="32" viewBox="0 0 24 32" fill="none" xmlns="http://www.w3.org/2000/svg">
<rect width="24" height="32" fill="#F2F2F2"/>
<rect x="-98" y="-399" width="1024" height="2000" fill="white"/>
<g clip-path="url(#clip0)">
<rect x="-39" y="-10" width="620" height="84" rx="5" fill="#F3F3F3"/>
<path d="M5.38125 26.7563C5.38125 26.8063 6.20625 26.4188 7.5625 24.2438C7.14375 24.6375 5.74375 25.775 5.38125 26.7563ZM11.2438 13.075C11.0625 13.075 11.0563 15.0063 11.3688 16.0063C11.7188 15.3813 11.7688 13.075 11.2438 13.075ZM16.2563 21.9563C18.575 22.9438 18.9313 22.5188 18.9313 22.5188C19.1875 22.35 18.775 21.775 16.2563 21.9563ZM11.2625 18.9563C10.7813 20.2188 10.1813 21.6625 9.4875 22.875C10.6313 22.4375 11.925 21.8 13.4188 21.5063C12.625 20.9063 11.8625 20.0438 11.2625 18.9563ZM17 8C16.7348 8 16.4804 7.89465 16.2929 7.70711C16.1054 7.51958 16 7.26522 16 7V4.71143e-06H1.5C1.30351 -0.000488363 1.10885 0.0377252 0.927128 0.112464C0.745406 0.187202 0.580184 0.297002 0.440896 0.435593C0.301608 0.574185 0.190982 0.738854 0.115334 0.920199C0.0396854 1.10154 0.000496552 1.29601 4.71143e-06 1.4925V30.5C-0.000488363 30.6965 0.0377252 30.8912 0.112464 31.0729C0.187202 31.2546 0.297002 31.4198 0.435593 31.5591C0.574185 31.6984 0.738854 31.809 0.920199 31.8847C1.10154 31.9603 1.29601 31.9995 1.4925 32H22.5C22.6965 32.0005 22.8912 31.9623 23.0729 31.8875C23.2546 31.8128 23.4198 31.703 23.5591 31.5644C23.6984 31.4258 23.809 31.2612 23.8847 31.0798C23.9603 30.8985 23.9995 30.704 24 30.5075V8H17ZM18.3688 23.9C17.3125 23.9 15.725 23.4188 14.3688 22.6813C12.8125 22.9375 11.0438 23.6 9.43125 24.1313C7.84375 26.8688 6.73126 27.9938 5.6125 27.9938C5.26875 27.9938 4.61875 27.8 4.26875 27.3688C3.07501 25.9 5.98126 23.9875 7.675 23.1188C7.68125 23.1188 7.68125 23.1125 7.6875 23.1125C8.44376 21.7875 9.5125 19.475 10.2375 17.75C9.70625 15.6938 9.41875 14.0813 9.73125 12.9375C10.0688 11.7063 12.425 11.525 12.7188 13.3625C13.0563 14.4625 12.6125 16.2188 12.3313 17.375C12.9188 18.925 13.75 19.975 15 20.7375C16.2063 20.5813 18.7313 20.3375 19.6 21.1875C20.3188 21.9 20.1938 23.9 18.3688 23.9Z" fill="#9FAEC1"/>
<path d="M23.5738 6.5625L17.4551 0.437505C17.3154 0.29833 17.1497 0.188053 16.9674 0.112983C16.7851 0.0379124 16.5897 -0.00047898 16.3926 4.51044e-06H16.0113V7C16.0113 7.26522 16.1167 7.51957 16.3042 7.70711C16.4918 7.89465 16.7461 8 17.0113 8H24.0113V7.61875C24.0113 7.42259 23.9727 7.22835 23.8976 7.04712C23.8226 6.86589 23.7125 6.70121 23.5738 6.5625ZM15.0113 20.7375C13.7613 19.975 12.9301 18.925 12.3426 17.375C12.6238 16.2188 13.0676 14.4625 12.7301 13.3625C12.4363 11.525 10.0801 11.7063 9.74257 12.9375C9.43007 14.0813 9.71758 15.6938 10.2488 17.75C9.52383 19.475 8.45507 21.7875 7.69882 23.1125C7.69257 23.1125 7.69257 23.1188 7.68632 23.1188C5.99257 23.9875 3.08632 25.9 4.28007 27.3688C4.63007 27.8 5.28007 27.9938 5.62382 27.9938C6.74257 27.9938 7.85507 26.8688 9.44257 24.1313C11.0551 23.6 12.8238 22.9375 14.3801 22.6813C15.7363 23.4188 17.3238 23.9 18.3801 23.9C20.2051 23.9 20.3301 21.9 19.6113 21.1875C18.7426 20.3375 16.2176 20.5813 15.0113 20.7375ZM5.39257 26.7563C5.75507 25.775 7.15507 24.6375 7.57382 24.2438C6.21757 26.4188 5.39257 26.8063 5.39257 26.7563ZM11.2551 13.075C11.7801 13.075 11.7301 15.3813 11.3801 16.0063C11.0676 15.0063 11.0738 13.075 11.2551 13.075ZM9.49883 22.875C10.1926 21.6625 10.7926 20.2188 11.2738 18.9563C11.8738 20.0438 12.6363 20.9063 13.4301 21.5063C11.9363 21.8 10.6426 22.4375 9.49883 22.875ZM18.9426 22.5188C18.9426 22.5188 18.5863 22.9438 16.2676 21.9563C18.7863 21.775 19.1988 22.35 18.9426 22.5188Z" fill="#425160"/>
</g>
<defs>
<clipPath id="clip0">
<rect x="-44" y="-330" width="940" height="1832" fill="white"/>
</clipPath>
</defs>
</svg>
