<svg width="11" height="18" viewBox="0 0 11 18" fill="none" xmlns="http://www.w3.org/2000/svg">
<path fill-rule="evenodd" clip-rule="evenodd" d="M9.45724 0.249695C9.38161 0.254883 9.36236 0.254257 9.28748 0.267132C9.1191 0.296196 8.95715 0.360012 8.81427 0.453766C8.74202 0.501143 8.67895 0.556271 8.61595 0.615086L1.11563 8.11541C1.06388 8.17085 1.04944 8.18347 1.0035 8.24404C0.951934 8.31204 0.90737 8.38536 0.870681 8.46248C0.710424 8.79944 0.710424 9.19927 0.870681 9.53622C0.90737 9.61335 0.951934 9.68666 1.0035 9.75466C1.04944 9.81517 1.06388 9.82786 1.11563 9.88323L8.61595 17.3836C8.67139 17.4353 8.68408 17.4498 8.74458 17.4957C8.90346 17.6163 9.09097 17.6976 9.28748 17.7316C9.4278 17.7557 9.57199 17.7557 9.71231 17.7316C9.8245 17.7122 9.93394 17.6774 10.0368 17.6286C10.4273 17.4429 10.6992 17.0577 10.7434 16.6275C10.7609 16.4575 10.743 16.2844 10.6914 16.1215C10.6483 15.9858 10.582 15.8577 10.496 15.7444C10.45 15.6838 10.4356 15.6712 10.3838 15.6157L3.76743 8.99932L10.3838 2.38291L10.4421 2.32053C10.4899 2.26178 10.5035 2.24809 10.5452 2.18459C10.6232 2.06559 10.6807 1.93327 10.7144 1.79501C10.7414 1.68438 10.7531 1.57013 10.7492 1.45637C10.7345 1.02417 10.4895 0.621336 10.1126 0.409389C9.98851 0.339636 9.85256 0.291321 9.71231 0.267132C9.63743 0.254257 9.61818 0.254883 9.54255 0.249695C9.51411 0.249695 9.48567 0.249695 9.45724 0.249695Z" fill="#425160"/>
</svg>
