<svg width="110" height="94" viewBox="0 0 110 94" fill="none" xmlns="http://www.w3.org/2000/svg">
<path d="M20.104 29.9736L37.092 0.412756L71.3478 0.3125L67.9544 6.20108L40.536 6.2807L37.0622 12.2843L64.4508 12.2017L61.1377 18.0903L33.6539 18.1699L30.3676 23.7902L57.8604 23.7607L54.3598 29.9736" fill="#9FAEC2"/>
<path d="M54.2558 31.3743L71.3837 60.6874H64.4897L50.8296 37.254L43.9028 37.1803L57.5897 60.6402L50.9011 60.6874L37.1279 37.254L30.2607 37.1832L43.9296 60.6344H37.0535L20 31.3743" fill="#637895"/>
<path d="M59.2418 24.498L55.7441 30.7109L72.872 60.0241L89.9999 30.6372L72.7321 1.0498L69.3387 6.93838L83.0166 30.6372L79.5845 36.5169L65.8351 12.939L62.5221 18.8276L76.1762 42.4144L72.8006 48.2292" fill="#435160"/>
<path d="M17.7539 73.7188V76.6875H16.9238V69.5488H18.8818C19.7575 69.5488 20.4036 69.7165 20.8203 70.0518C21.2402 70.387 21.4502 70.8916 21.4502 71.5654C21.4502 72.5094 20.9717 73.1475 20.0146 73.4795L21.9531 76.6875H20.9717L19.2432 73.7188H17.7539ZM17.7539 73.0059H18.8916C19.4775 73.0059 19.9072 72.8903 20.1807 72.6592C20.4541 72.4248 20.5908 72.0749 20.5908 71.6094C20.5908 71.1374 20.4508 70.7972 20.1709 70.5889C19.8942 70.3805 19.4482 70.2764 18.833 70.2764H17.7539V73.0059ZM25.2441 76.7852C24.4531 76.7852 23.8281 76.5443 23.3691 76.0625C22.9134 75.5807 22.6855 74.9118 22.6855 74.0557C22.6855 73.193 22.8971 72.5078 23.3203 72C23.7467 71.4922 24.318 71.2383 25.0342 71.2383C25.7048 71.2383 26.2354 71.4596 26.626 71.9023C27.0166 72.3418 27.2119 72.9229 27.2119 73.6455V74.1582H23.5254C23.5417 74.7865 23.6995 75.2633 23.999 75.5889C24.3018 75.9144 24.7266 76.0771 25.2734 76.0771C25.8496 76.0771 26.4193 75.9567 26.9824 75.7158V76.4385C26.696 76.5622 26.4242 76.6501 26.167 76.7021C25.9131 76.7575 25.6055 76.7852 25.2441 76.7852ZM25.0244 71.917C24.5947 71.917 24.2513 72.057 23.9941 72.3369C23.7402 72.6169 23.5905 73.0042 23.5449 73.499H26.3428C26.3428 72.988 26.2288 72.5973 26.001 72.3271C25.7731 72.0537 25.4476 71.917 25.0244 71.917ZM31.0107 71.9658H29.6484V76.6875H28.8379V71.9658H27.8809V71.5996L28.8379 71.3066V71.0088C28.8379 69.6937 29.4124 69.0361 30.5615 69.0361C30.8447 69.0361 31.1768 69.0931 31.5576 69.207L31.3477 69.8564C31.0352 69.7555 30.7682 69.7051 30.5469 69.7051C30.2409 69.7051 30.0146 69.8076 29.8682 70.0127C29.7217 70.2145 29.6484 70.54 29.6484 70.9893V71.3359H31.0107V71.9658ZM34.248 76.7852C33.457 76.7852 32.832 76.5443 32.373 76.0625C31.9173 75.5807 31.6895 74.9118 31.6895 74.0557C31.6895 73.193 31.901 72.5078 32.3242 72C32.7507 71.4922 33.3219 71.2383 34.0381 71.2383C34.7087 71.2383 35.2393 71.4596 35.6299 71.9023C36.0205 72.3418 36.2158 72.9229 36.2158 73.6455V74.1582H32.5293C32.5456 74.7865 32.7035 75.2633 33.0029 75.5889C33.3057 75.9144 33.7305 76.0771 34.2773 76.0771C34.8535 76.0771 35.4232 75.9567 35.9863 75.7158V76.4385C35.6999 76.5622 35.4281 76.6501 35.1709 76.7021C34.917 76.7575 34.6094 76.7852 34.248 76.7852ZM34.0283 71.917C33.5986 71.917 33.2552 72.057 32.998 72.3369C32.7441 72.6169 32.5944 73.0042 32.5488 73.499H35.3467C35.3467 72.988 35.2327 72.5973 35.0049 72.3271C34.777 72.0537 34.4515 71.917 34.0283 71.917ZM40.0439 71.2383C40.2816 71.2383 40.4948 71.2578 40.6836 71.2969L40.5713 72.0488C40.3499 72 40.1546 71.9756 39.9854 71.9756C39.5524 71.9756 39.1813 72.1514 38.8721 72.5029C38.5661 72.8545 38.4131 73.2923 38.4131 73.8164V76.6875H37.6025V71.3359H38.2715L38.3643 72.3271H38.4033C38.6019 71.9788 38.8411 71.7103 39.1211 71.5215C39.401 71.3327 39.7087 71.2383 40.0439 71.2383ZM43.9453 76.7852C43.1543 76.7852 42.5293 76.5443 42.0703 76.0625C41.6146 75.5807 41.3867 74.9118 41.3867 74.0557C41.3867 73.193 41.5983 72.5078 42.0215 72C42.4479 71.4922 43.0192 71.2383 43.7354 71.2383C44.4059 71.2383 44.9365 71.4596 45.3271 71.9023C45.7178 72.3418 45.9131 72.9229 45.9131 73.6455V74.1582H42.2266C42.2428 74.7865 42.4007 75.2633 42.7002 75.5889C43.0029 75.9144 43.4277 76.0771 43.9746 76.0771C44.5508 76.0771 45.1204 75.9567 45.6836 75.7158V76.4385C45.3971 76.5622 45.1253 76.6501 44.8682 76.7021C44.6143 76.7575 44.3066 76.7852 43.9453 76.7852ZM43.7256 71.917C43.2959 71.917 42.9525 72.057 42.6953 72.3369C42.4414 72.6169 42.2917 73.0042 42.2461 73.499H45.0439C45.0439 72.988 44.93 72.5973 44.7021 72.3271C44.4743 72.0537 44.1488 71.917 43.7256 71.917ZM50.9619 76.6875V73.2256C50.9619 72.7894 50.8626 72.4639 50.6641 72.249C50.4655 72.0342 50.1546 71.9268 49.7314 71.9268C49.1715 71.9268 48.7614 72.0781 48.501 72.3809C48.2406 72.6836 48.1104 73.1833 48.1104 73.8799V76.6875H47.2998V71.3359H47.959L48.0908 72.0684H48.1299C48.2959 71.8047 48.5286 71.6012 48.8281 71.458C49.1276 71.3115 49.4613 71.2383 49.8291 71.2383C50.4736 71.2383 50.9587 71.3945 51.2842 71.707C51.6097 72.0163 51.7725 72.5127 51.7725 73.1963V76.6875H50.9619ZM55.5811 76.7852C54.8063 76.7852 54.2057 76.5475 53.7793 76.0723C53.3561 75.5938 53.1445 74.9183 53.1445 74.0459C53.1445 73.1507 53.3594 72.459 53.7891 71.9707C54.222 71.4824 54.8372 71.2383 55.6348 71.2383C55.8919 71.2383 56.1491 71.266 56.4062 71.3213C56.6634 71.3766 56.8652 71.4417 57.0117 71.5166L56.7627 72.2051C56.5837 72.1335 56.3883 72.0749 56.1768 72.0293C55.9652 71.9805 55.778 71.9561 55.6152 71.9561C54.528 71.9561 53.9844 72.6494 53.9844 74.0361C53.9844 74.6937 54.1162 75.1982 54.3799 75.5498C54.6468 75.9014 55.0407 76.0771 55.5615 76.0771C56.0075 76.0771 56.4648 75.9811 56.9336 75.7891V76.5068C56.5755 76.6924 56.1247 76.7852 55.5811 76.7852ZM60.4688 76.7852C59.6777 76.7852 59.0527 76.5443 58.5938 76.0625C58.138 75.5807 57.9102 74.9118 57.9102 74.0557C57.9102 73.193 58.1217 72.5078 58.5449 72C58.9714 71.4922 59.5426 71.2383 60.2588 71.2383C60.9294 71.2383 61.46 71.4596 61.8506 71.9023C62.2412 72.3418 62.4365 72.9229 62.4365 73.6455V74.1582H58.75C58.7663 74.7865 58.9242 75.2633 59.2236 75.5889C59.5264 75.9144 59.9512 76.0771 60.498 76.0771C61.0742 76.0771 61.6439 75.9567 62.207 75.7158V76.4385C61.9206 76.5622 61.6488 76.6501 61.3916 76.7021C61.1377 76.7575 60.8301 76.7852 60.4688 76.7852ZM60.249 71.917C59.8193 71.917 59.4759 72.057 59.2188 72.3369C58.9648 72.6169 58.8151 73.0042 58.7695 73.499H61.5674C61.5674 72.988 61.4535 72.5973 61.2256 72.3271C60.9977 72.0537 60.6722 71.917 60.249 71.917ZM67.2314 76.6875H66.4209V71.3359H67.2314V76.6875ZM66.3525 69.8857C66.3525 69.7002 66.3981 69.5651 66.4893 69.4805C66.5804 69.3926 66.6943 69.3486 66.8311 69.3486C66.9613 69.3486 67.0736 69.3926 67.168 69.4805C67.2624 69.5684 67.3096 69.7035 67.3096 69.8857C67.3096 70.068 67.2624 70.2048 67.168 70.2959C67.0736 70.3838 66.9613 70.4277 66.8311 70.4277C66.6943 70.4277 66.5804 70.3838 66.4893 70.2959C66.3981 70.2048 66.3525 70.068 66.3525 69.8857ZM75.7715 76.6875V73.2061C75.7715 72.7796 75.6803 72.4606 75.498 72.249C75.3158 72.0342 75.0326 71.9268 74.6484 71.9268C74.1439 71.9268 73.7712 72.0716 73.5303 72.3613C73.2894 72.651 73.1689 73.097 73.1689 73.6992V76.6875H72.3584V73.2061C72.3584 72.7796 72.2673 72.4606 72.085 72.249C71.9027 72.0342 71.6178 71.9268 71.2305 71.9268C70.7227 71.9268 70.3499 72.0798 70.1123 72.3857C69.8779 72.6885 69.7607 73.1865 69.7607 73.8799V76.6875H68.9502V71.3359H69.6094L69.7412 72.0684H69.7803C69.9333 71.8079 70.1481 71.6045 70.4248 71.458C70.7048 71.3115 71.0173 71.2383 71.3623 71.2383C72.1989 71.2383 72.7458 71.541 73.0029 72.1465H73.042C73.2015 71.8665 73.4326 71.6452 73.7354 71.4824C74.0381 71.3197 74.3831 71.2383 74.7705 71.2383C75.376 71.2383 75.8285 71.3945 76.1279 71.707C76.4307 72.0163 76.582 72.5127 76.582 73.1963V76.6875H75.7715ZM81.5479 76.6875L81.3867 75.9258H81.3477C81.0807 76.2611 80.8138 76.4889 80.5469 76.6094C80.2832 76.7266 79.9528 76.7852 79.5557 76.7852C79.0251 76.7852 78.6084 76.6484 78.3057 76.375C78.0062 76.1016 77.8564 75.7126 77.8564 75.208C77.8564 74.1273 78.7207 73.5609 80.4492 73.5088L81.3574 73.4795V73.1475C81.3574 72.7275 81.2663 72.4183 81.084 72.2197C80.9049 72.0179 80.6169 71.917 80.2197 71.917C79.7738 71.917 79.2692 72.0537 78.7061 72.3271L78.457 71.707C78.7207 71.5638 79.0088 71.4515 79.3213 71.3701C79.637 71.2887 79.9528 71.248 80.2686 71.248C80.9066 71.248 81.3786 71.3896 81.6846 71.6729C81.9938 71.9561 82.1484 72.4102 82.1484 73.0352V76.6875H81.5479ZM79.7168 76.1162C80.2214 76.1162 80.6169 75.9779 80.9033 75.7012C81.193 75.4245 81.3379 75.0371 81.3379 74.5391V74.0557L80.5273 74.0898C79.8828 74.1126 79.4173 74.2135 79.1309 74.3926C78.8477 74.5684 78.7061 74.8434 78.7061 75.2178C78.7061 75.5107 78.7939 75.7337 78.9697 75.8867C79.1488 76.0397 79.3978 76.1162 79.7168 76.1162ZM88.2031 71.3359V71.8486L87.2119 71.9658C87.3031 72.0798 87.3844 72.2295 87.4561 72.415C87.5277 72.5973 87.5635 72.804 87.5635 73.0352C87.5635 73.5592 87.3844 73.9775 87.0264 74.29C86.6683 74.6025 86.1768 74.7588 85.5518 74.7588C85.3923 74.7588 85.2425 74.7458 85.1025 74.7197C84.7575 74.902 84.585 75.1315 84.585 75.4082C84.585 75.5547 84.6452 75.6637 84.7656 75.7354C84.8861 75.8037 85.0928 75.8379 85.3857 75.8379H86.333C86.9124 75.8379 87.3568 75.96 87.666 76.2041C87.9785 76.4482 88.1348 76.8031 88.1348 77.2686C88.1348 77.861 87.8971 78.3118 87.4219 78.6211C86.9466 78.9336 86.2533 79.0898 85.3418 79.0898C84.6419 79.0898 84.1016 78.9596 83.7207 78.6992C83.3431 78.4388 83.1543 78.071 83.1543 77.5957C83.1543 77.2702 83.2585 76.9886 83.4668 76.751C83.6751 76.5133 83.9681 76.3522 84.3457 76.2676C84.209 76.2057 84.0934 76.1097 83.999 75.9795C83.9079 75.8493 83.8623 75.6979 83.8623 75.5254C83.8623 75.3301 83.9144 75.1592 84.0186 75.0127C84.1227 74.8662 84.2871 74.7246 84.5117 74.5879C84.235 74.474 84.0088 74.2803 83.833 74.0068C83.6605 73.7334 83.5742 73.4209 83.5742 73.0693C83.5742 72.4834 83.75 72.0326 84.1016 71.7168C84.4531 71.3978 84.9512 71.2383 85.5957 71.2383C85.8757 71.2383 86.1279 71.2708 86.3525 71.3359H88.2031ZM83.9355 77.5859C83.9355 77.8757 84.0576 78.0954 84.3018 78.2451C84.5459 78.3949 84.8958 78.4697 85.3516 78.4697C86.0319 78.4697 86.5348 78.3672 86.8604 78.1621C87.1891 77.9603 87.3535 77.6852 87.3535 77.3369C87.3535 77.0472 87.264 76.8454 87.085 76.7314C86.9059 76.6208 86.569 76.5654 86.0742 76.5654H85.1025C84.7347 76.5654 84.4482 76.6533 84.2432 76.8291C84.0381 77.0049 83.9355 77.2572 83.9355 77.5859ZM84.375 73.0498C84.375 73.4242 84.4808 73.7074 84.6924 73.8994C84.904 74.0915 85.1986 74.1875 85.5762 74.1875C86.3672 74.1875 86.7627 73.8034 86.7627 73.0352C86.7627 72.2311 86.3623 71.8291 85.5615 71.8291C85.1807 71.8291 84.8877 71.9316 84.6826 72.1367C84.4775 72.3418 84.375 72.6462 84.375 73.0498ZM91.5625 76.7852C90.7715 76.7852 90.1465 76.5443 89.6875 76.0625C89.2318 75.5807 89.0039 74.9118 89.0039 74.0557C89.0039 73.193 89.2155 72.5078 89.6387 72C90.0651 71.4922 90.6364 71.2383 91.3525 71.2383C92.0231 71.2383 92.5537 71.4596 92.9443 71.9023C93.335 72.3418 93.5303 72.9229 93.5303 73.6455V74.1582H89.8438C89.86 74.7865 90.0179 75.2633 90.3174 75.5889C90.6201 75.9144 91.0449 76.0771 91.5918 76.0771C92.168 76.0771 92.7376 75.9567 93.3008 75.7158V76.4385C93.0143 76.5622 92.7425 76.6501 92.4854 76.7021C92.2314 76.7575 91.9238 76.7852 91.5625 76.7852ZM91.3428 71.917C90.9131 71.917 90.5697 72.057 90.3125 72.3369C90.0586 72.6169 89.9089 73.0042 89.8633 73.499H92.6611C92.6611 72.988 92.5472 72.5973 92.3193 72.3271C92.0915 72.0537 91.766 71.917 91.3428 71.917ZM28.0615 90.7852C27.2868 90.7852 26.6862 90.5475 26.2598 90.0723C25.8366 89.5938 25.625 88.9183 25.625 88.0459C25.625 87.1507 25.8398 86.459 26.2695 85.9707C26.7025 85.4824 27.3177 85.2383 28.1152 85.2383C28.3724 85.2383 28.6296 85.266 28.8867 85.3213C29.1439 85.3766 29.3457 85.4417 29.4922 85.5166L29.2432 86.2051C29.0641 86.1335 28.8688 86.0749 28.6572 86.0293C28.4456 85.9805 28.2585 85.9561 28.0957 85.9561C27.0085 85.9561 26.4648 86.6494 26.4648 88.0361C26.4648 88.6937 26.5967 89.1982 26.8604 89.5498C27.1273 89.9014 27.5212 90.0771 28.042 90.0771C28.488 90.0771 28.9453 89.9811 29.4141 89.7891V90.5068C29.056 90.6924 28.6051 90.7852 28.0615 90.7852ZM35.3076 88.0068C35.3076 88.8792 35.0879 89.5612 34.6484 90.0527C34.209 90.541 33.6019 90.7852 32.8271 90.7852C32.3486 90.7852 31.9238 90.6729 31.5527 90.4482C31.1816 90.2236 30.8952 89.9014 30.6934 89.4814C30.4915 89.0615 30.3906 88.57 30.3906 88.0068C30.3906 87.1344 30.6087 86.4557 31.0449 85.9707C31.4811 85.4824 32.0866 85.2383 32.8613 85.2383C33.61 85.2383 34.2041 85.4873 34.6436 85.9854C35.0863 86.4834 35.3076 87.1572 35.3076 88.0068ZM31.2305 88.0068C31.2305 88.6904 31.3672 89.2113 31.6406 89.5693C31.9141 89.9274 32.3161 90.1064 32.8467 90.1064C33.3773 90.1064 33.7793 89.929 34.0527 89.5742C34.3294 89.2161 34.4678 88.6937 34.4678 88.0068C34.4678 87.3265 34.3294 86.8105 34.0527 86.459C33.7793 86.1042 33.374 85.9268 32.8369 85.9268C32.3063 85.9268 31.9059 86.1009 31.6357 86.4492C31.3656 86.7975 31.2305 87.3167 31.2305 88.0068ZM43.5547 90.6875V87.2061C43.5547 86.7796 43.4635 86.4606 43.2812 86.249C43.099 86.0342 42.8158 85.9268 42.4316 85.9268C41.9271 85.9268 41.5544 86.0716 41.3135 86.3613C41.0726 86.651 40.9521 87.097 40.9521 87.6992V90.6875H40.1416V87.2061C40.1416 86.7796 40.0505 86.4606 39.8682 86.249C39.6859 86.0342 39.401 85.9268 39.0137 85.9268C38.5059 85.9268 38.1331 86.0798 37.8955 86.3857C37.6611 86.6885 37.5439 87.1865 37.5439 87.8799V90.6875H36.7334V85.3359H37.3926L37.5244 86.0684H37.5635C37.7165 85.8079 37.9313 85.6045 38.208 85.458C38.488 85.3115 38.8005 85.2383 39.1455 85.2383C39.9821 85.2383 40.529 85.541 40.7861 86.1465H40.8252C40.9847 85.8665 41.2158 85.6452 41.5186 85.4824C41.8213 85.3197 42.1663 85.2383 42.5537 85.2383C43.1592 85.2383 43.6117 85.3945 43.9111 85.707C44.2139 86.0163 44.3652 86.5127 44.3652 87.1963V90.6875H43.5547ZM46.8506 90.6875H46.04V85.3359H46.8506V90.6875ZM45.9717 83.8857C45.9717 83.7002 46.0173 83.5651 46.1084 83.4805C46.1995 83.3926 46.3135 83.3486 46.4502 83.3486C46.5804 83.3486 46.6927 83.3926 46.7871 83.4805C46.8815 83.5684 46.9287 83.7035 46.9287 83.8857C46.9287 84.068 46.8815 84.2048 46.7871 84.2959C46.6927 84.3838 46.5804 84.4277 46.4502 84.4277C46.3135 84.4277 46.1995 84.3838 46.1084 84.2959C46.0173 84.2048 45.9717 84.068 45.9717 83.8857ZM52.2314 90.6875V87.2256C52.2314 86.7894 52.1322 86.4639 51.9336 86.249C51.735 86.0342 51.4242 85.9268 51.001 85.9268C50.4411 85.9268 50.0309 86.0781 49.7705 86.3809C49.5101 86.6836 49.3799 87.1833 49.3799 87.8799V90.6875H48.5693V85.3359H49.2285L49.3604 86.0684H49.3994C49.5654 85.8047 49.7982 85.6012 50.0977 85.458C50.3971 85.3115 50.7308 85.2383 51.0986 85.2383C51.7432 85.2383 52.2282 85.3945 52.5537 85.707C52.8792 86.0163 53.042 86.5127 53.042 87.1963V90.6875H52.2314ZM59.0918 85.3359V85.8486L58.1006 85.9658C58.1917 86.0798 58.2731 86.2295 58.3447 86.415C58.4163 86.5973 58.4521 86.804 58.4521 87.0352C58.4521 87.5592 58.2731 87.9775 57.915 88.29C57.557 88.6025 57.0654 88.7588 56.4404 88.7588C56.2809 88.7588 56.1312 88.7458 55.9912 88.7197C55.6462 88.902 55.4736 89.1315 55.4736 89.4082C55.4736 89.5547 55.5339 89.6637 55.6543 89.7354C55.7747 89.8037 55.9814 89.8379 56.2744 89.8379H57.2217C57.8011 89.8379 58.2454 89.96 58.5547 90.2041C58.8672 90.4482 59.0234 90.8031 59.0234 91.2686C59.0234 91.861 58.7858 92.3118 58.3105 92.6211C57.8353 92.9336 57.1419 93.0898 56.2305 93.0898C55.5306 93.0898 54.9902 92.9596 54.6094 92.6992C54.2318 92.4388 54.043 92.071 54.043 91.5957C54.043 91.2702 54.1471 90.9886 54.3555 90.751C54.5638 90.5133 54.8568 90.3522 55.2344 90.2676C55.0977 90.2057 54.9821 90.1097 54.8877 89.9795C54.7965 89.8493 54.751 89.6979 54.751 89.5254C54.751 89.3301 54.8031 89.1592 54.9072 89.0127C55.0114 88.8662 55.1758 88.7246 55.4004 88.5879C55.1237 88.474 54.8975 88.2803 54.7217 88.0068C54.5492 87.7334 54.4629 87.4209 54.4629 87.0693C54.4629 86.4834 54.6387 86.0326 54.9902 85.7168C55.3418 85.3978 55.8398 85.2383 56.4844 85.2383C56.7643 85.2383 57.0166 85.2708 57.2412 85.3359H59.0918ZM54.8242 91.5859C54.8242 91.8757 54.9463 92.0954 55.1904 92.2451C55.4346 92.3949 55.7845 92.4697 56.2402 92.4697C56.9206 92.4697 57.4235 92.3672 57.749 92.1621C58.0778 91.9603 58.2422 91.6852 58.2422 91.3369C58.2422 91.0472 58.1527 90.8454 57.9736 90.7314C57.7946 90.6208 57.4577 90.5654 56.9629 90.5654H55.9912C55.6234 90.5654 55.3369 90.6533 55.1318 90.8291C54.9268 91.0049 54.8242 91.2572 54.8242 91.5859ZM55.2637 87.0498C55.2637 87.4242 55.3695 87.7074 55.5811 87.8994C55.7926 88.0915 56.0872 88.1875 56.4648 88.1875C57.2559 88.1875 57.6514 87.8034 57.6514 87.0352C57.6514 86.2311 57.251 85.8291 56.4502 85.8291C56.0693 85.8291 55.7764 85.9316 55.5713 86.1367C55.3662 86.3418 55.2637 86.6462 55.2637 87.0498ZM66.2402 89.2275C66.2402 89.7256 66.0547 90.1097 65.6836 90.3799C65.3125 90.6501 64.7917 90.7852 64.1211 90.7852C63.4115 90.7852 62.8581 90.6729 62.4609 90.4482V89.6963C62.7181 89.8265 62.9932 89.929 63.2861 90.0039C63.5824 90.0788 63.8672 90.1162 64.1406 90.1162C64.5638 90.1162 64.8893 90.0495 65.1172 89.916C65.3451 89.7793 65.459 89.5726 65.459 89.2959C65.459 89.0876 65.3678 88.9102 65.1855 88.7637C65.0065 88.6139 64.6549 88.4382 64.1309 88.2363C63.6328 88.0508 63.278 87.8896 63.0664 87.7529C62.8581 87.613 62.7018 87.4551 62.5977 87.2793C62.4967 87.1035 62.4463 86.8936 62.4463 86.6494C62.4463 86.2132 62.6237 85.8698 62.9785 85.6191C63.3333 85.3652 63.82 85.2383 64.4385 85.2383C65.0146 85.2383 65.5778 85.3555 66.1279 85.5898L65.8398 86.249C65.3027 86.0277 64.8161 85.917 64.3799 85.917C63.9958 85.917 63.7061 85.9772 63.5107 86.0977C63.3154 86.2181 63.2178 86.3841 63.2178 86.5957C63.2178 86.7389 63.2536 86.861 63.3252 86.9619C63.4001 87.0628 63.5189 87.1589 63.6816 87.25C63.8444 87.3411 64.1569 87.473 64.6191 87.6455C65.2539 87.8766 65.682 88.1094 65.9033 88.3438C66.1279 88.5781 66.2402 88.8727 66.2402 89.2275ZM72.1826 88.0068C72.1826 88.8792 71.9629 89.5612 71.5234 90.0527C71.084 90.541 70.4769 90.7852 69.7021 90.7852C69.2236 90.7852 68.7988 90.6729 68.4277 90.4482C68.0566 90.2236 67.7702 89.9014 67.5684 89.4814C67.3665 89.0615 67.2656 88.57 67.2656 88.0068C67.2656 87.1344 67.4837 86.4557 67.9199 85.9707C68.3561 85.4824 68.9616 85.2383 69.7363 85.2383C70.485 85.2383 71.0791 85.4873 71.5186 85.9854C71.9613 86.4834 72.1826 87.1572 72.1826 88.0068ZM68.1055 88.0068C68.1055 88.6904 68.2422 89.2113 68.5156 89.5693C68.7891 89.9274 69.1911 90.1064 69.7217 90.1064C70.2523 90.1064 70.6543 89.929 70.9277 89.5742C71.2044 89.2161 71.3428 88.6937 71.3428 88.0068C71.3428 87.3265 71.2044 86.8105 70.9277 86.459C70.6543 86.1042 70.249 85.9268 69.7119 85.9268C69.1813 85.9268 68.7809 86.1009 68.5107 86.4492C68.2406 86.7975 68.1055 87.3167 68.1055 88.0068ZM78.2275 88.0068C78.2275 88.8792 78.0078 89.5612 77.5684 90.0527C77.1289 90.541 76.5218 90.7852 75.7471 90.7852C75.2686 90.7852 74.8438 90.6729 74.4727 90.4482C74.1016 90.2236 73.8151 89.9014 73.6133 89.4814C73.4115 89.0615 73.3105 88.57 73.3105 88.0068C73.3105 87.1344 73.5286 86.4557 73.9648 85.9707C74.401 85.4824 75.0065 85.2383 75.7812 85.2383C76.5299 85.2383 77.124 85.4873 77.5635 85.9854C78.0062 86.4834 78.2275 87.1572 78.2275 88.0068ZM74.1504 88.0068C74.1504 88.6904 74.2871 89.2113 74.5605 89.5693C74.834 89.9274 75.236 90.1064 75.7666 90.1064C76.2972 90.1064 76.6992 89.929 76.9727 89.5742C77.2493 89.2161 77.3877 88.6937 77.3877 88.0068C77.3877 87.3265 77.2493 86.8105 76.9727 86.459C76.6992 86.1042 76.2939 85.9268 75.7568 85.9268C75.2262 85.9268 74.8258 86.1009 74.5557 86.4492C74.2855 86.7975 74.1504 87.3167 74.1504 88.0068ZM83.3154 90.6875V87.2256C83.3154 86.7894 83.2161 86.4639 83.0176 86.249C82.819 86.0342 82.5081 85.9268 82.085 85.9268C81.5251 85.9268 81.1149 86.0781 80.8545 86.3809C80.5941 86.6836 80.4639 87.1833 80.4639 87.8799V90.6875H79.6533V85.3359H80.3125L80.4443 86.0684H80.4834C80.6494 85.8047 80.8822 85.6012 81.1816 85.458C81.4811 85.3115 81.8148 85.2383 82.1826 85.2383C82.8271 85.2383 83.3122 85.3945 83.6377 85.707C83.9632 86.0163 84.126 86.5127 84.126 87.1963V90.6875H83.3154Z" fill="#25282B"/>
</svg>
