<svg width="6" height="10" viewBox="0 0 6 10" fill="none" xmlns="http://www.w3.org/2000/svg">
<path fill-rule="evenodd" clip-rule="evenodd" d="M0.689409 9.66666C0.729744 9.66389 0.740011 9.66423 0.779946 9.65736C0.86975 9.64186 0.95612 9.60783 1.03232 9.55782C1.07086 9.53256 1.10449 9.50315 1.13809 9.47179L5.13827 5.47162C5.16587 5.44205 5.17357 5.43531 5.19807 5.40301C5.22557 5.36674 5.24934 5.32764 5.26891 5.28651C5.35438 5.1068 5.35438 4.89356 5.26891 4.71385C5.24934 4.67271 5.22557 4.63361 5.19807 4.59734C5.17357 4.56508 5.16587 4.55831 5.13827 4.52877L1.13809 0.528603C1.10853 0.501002 1.10176 0.493268 1.06949 0.468801C0.984755 0.404498 0.88475 0.361096 0.779946 0.342995C0.705109 0.330128 0.628206 0.330128 0.55337 0.342995C0.493534 0.353329 0.435164 0.371863 0.380329 0.397931C0.172053 0.496969 0.0270467 0.702411 0.00344563 0.931821C-0.00585461 1.02249 0.0036459 1.11483 0.0312138 1.2017C0.0541816 1.27407 0.0895495 1.34237 0.135418 1.40284C0.159919 1.43514 0.16762 1.44188 0.195221 1.47144L3.72397 5.0002L0.195221 8.52895L0.164153 8.56221C0.138652 8.59355 0.131385 8.60085 0.109184 8.63472C0.0675488 8.69819 0.0368805 8.76876 0.0189133 8.84249C0.00454569 8.9015 -0.00172091 8.96243 0.000345707 9.0231C0.00821257 9.25361 0.138885 9.46845 0.339894 9.58149C0.406064 9.61869 0.478566 9.64446 0.55337 9.65736C0.593305 9.66423 0.603572 9.66389 0.643907 9.66666C0.659074 9.66666 0.674242 9.66666 0.689409 9.66666Z" fill="#4D4D4D"/>
</svg>
