<svg width="16" height="20" viewBox="0 0 16 20" fill="none" xmlns="http://www.w3.org/2000/svg">
<path d="M15.5 1.875V20L8 15.625L0.5 20V1.875C0.5 1.37772 0.697544 0.900805 1.04917 0.549175C1.40081 0.197544 1.87772 0 2.375 0L3.625 0V12.7387C3.62499 12.8452 3.65222 12.95 3.70411 13.0431C3.75601 13.1362 3.83083 13.2144 3.92148 13.2704C4.01213 13.3264 4.11559 13.3583 4.22204 13.3631C4.32849 13.3679 4.4344 13.3453 4.52969 13.2977L8 11.5625L11.4703 13.2977C11.5656 13.3453 11.6715 13.3679 11.778 13.3631C11.8844 13.3583 11.9879 13.3264 12.0785 13.2704C12.1692 13.2144 12.244 13.1362 12.2959 13.0431C12.3478 12.95 12.375 12.8452 12.375 12.7387V0H13.625C14.1223 0 14.5992 0.197544 14.9508 0.549175C15.3025 0.900805 15.5 1.37772 15.5 1.875Z" fill="currentColor"/>
<path d="M12.375 0V12.7387C12.375 12.8452 12.3478 12.95 12.2959 13.0431C12.244 13.1362 12.1692 13.2144 12.0785 13.2704C11.9879 13.3264 11.8844 13.3583 11.778 13.3631C11.6715 13.3679 11.5656 13.3453 11.4703 13.2977L8 11.5625L4.52969 13.2977C4.4344 13.3453 4.32849 13.3679 4.22204 13.3631C4.11559 13.3583 4.01213 13.3264 3.92148 13.2704C3.83083 13.2144 3.75601 13.1362 3.70412 13.0431C3.65222 12.95 3.62499 12.8452 3.625 12.7387V0H12.375Z" fill="currentColor"/>
</svg>
