<svg width="14" height="8" viewBox="0 0 14 8" fill="none" xmlns="http://www.w3.org/2000/svg">
<path fill-rule="evenodd" clip-rule="evenodd" d="M-0.000244141 1.03436C0.00390625 1.09486 0.00340557 1.11026 0.0137062 1.17016C0.0369568 1.30487 0.0880089 1.43442 0.163013 1.54873C0.200914 1.60653 0.245016 1.65698 0.292068 1.70739L6.29233 7.70764C6.33668 7.74905 6.34678 7.7606 6.39523 7.79735C6.44963 7.8386 6.50828 7.87425 6.56999 7.9036C6.83955 8.03181 7.15941 8.03181 7.42897 7.9036C7.49068 7.87425 7.54933 7.8386 7.60373 7.79735C7.65213 7.7606 7.66228 7.74905 7.70659 7.70764L13.7068 1.70739C13.7482 1.66303 13.7598 1.65288 13.7965 1.60448C13.893 1.47738 13.9581 1.32737 13.9853 1.17016C14.0046 1.05791 14.0046 0.942553 13.9853 0.830298C13.9698 0.740545 13.942 0.652991 13.9029 0.570737C13.7543 0.258324 13.4461 0.0408144 13.102 0.00541306C12.966 -0.00853729 12.8275 0.00571346 12.6972 0.0470653C12.5886 0.0815167 12.4862 0.134569 12.3955 0.203372C12.347 0.240123 12.3369 0.251674 12.2926 0.293076L6.99946 5.5862L1.70633 0.293076L1.65643 0.246474C1.60942 0.208222 1.59847 0.197321 1.54767 0.16402C1.45247 0.101567 1.34661 0.0555654 1.23601 0.028614C1.1475 0.00706291 1.0561 -0.00233746 0.965097 0.000762939C0.619332 0.0125632 0.297069 0.208572 0.127511 0.510085C0.0717087 0.609339 0.0330572 0.718093 0.0137062 0.830298C0.00340557 0.890201 0.00390625 0.905602 -0.000244141 0.966105C-0.000244141 0.988855 -0.000244141 1.01161 -0.000244141 1.03436Z" fill="white"/>
</svg>
