<svg width="41" height="31" viewBox="0 0 41 31" fill="none" xmlns="http://www.w3.org/2000/svg">
<path d="M40.1343 22.5H38.6343V15.7437C38.6343 14.6937 38.2093 13.6625 37.4593 12.9187L32.2155 7.675C31.478 6.925 30.4468 6.5 29.3905 6.5H26.6343V3.4125C26.6343 1.80625 25.2468 0.5 23.5468 0.5H3.72178C2.02178 0.5 0.634277 1.80625 0.634277 3.4125V21.5875C0.634277 23.1938 2.02178 24.5 3.72178 24.5H4.73428C4.66553 24.825 4.63428 25.1562 4.63428 25.5C4.63428 28.2625 6.87178 30.5 9.63428 30.5C12.3968 30.5 14.6343 28.2625 14.6343 25.5C14.6343 25.1562 14.5968 24.825 14.5343 24.5H26.7343C26.6655 24.825 26.6343 25.1562 26.6343 25.5C26.6343 28.2625 28.8718 30.5 31.6343 30.5C34.3968 30.5 36.6343 28.2625 36.6343 25.5C36.6343 25.1562 36.5968 24.825 36.5343 24.5H40.1343C40.4093 24.5 40.6343 24.275 40.6343 24V23C40.6343 22.725 40.4093 22.5 40.1343 22.5ZM29.3905 8.5C29.9155 8.5 30.4343 8.7125 30.803 9.0875L36.0468 14.3313C36.0968 14.3813 36.1155 14.45 36.1593 14.5063H26.6343V8.50625H29.3905V8.5ZM9.63428 28.5C7.97803 28.5 6.63428 27.1562 6.63428 25.5C6.63428 23.8438 7.97803 22.5 9.63428 22.5C11.2905 22.5 12.6343 23.8438 12.6343 25.5C12.6343 27.1562 11.2905 28.5 9.63428 28.5ZM13.6093 22.5C12.6968 21.2938 11.2593 20.5 9.63428 20.5C8.00928 20.5 6.57178 21.2938 5.65928 22.5H3.72178C3.12178 22.5 2.63428 22.0938 2.63428 21.5875V3.4125C2.63428 2.90625 3.12178 2.5 3.72178 2.5H23.5468C24.1468 2.5 24.6343 2.90625 24.6343 3.4125V22.5H13.6093ZM31.6343 28.5C29.978 28.5 28.6343 27.1562 28.6343 25.5C28.6343 23.8438 29.978 22.5 31.6343 22.5C33.2905 22.5 34.6343 23.8438 34.6343 25.5C34.6343 27.1562 33.2905 28.5 31.6343 28.5ZM31.6343 20.5C30.003 20.5 28.5718 21.2938 27.6593 22.5H26.6343V16.5H36.6343V22.5H35.6093C34.6968 21.2938 33.2655 20.5 31.6343 20.5Z" fill="#637895"/>
</svg>
