<svg width="14" height="14" viewBox="0 0 14 14" fill="none" xmlns="http://www.w3.org/2000/svg">
<path d="M6.99992 0.333313C5.68138 0.333313 4.39245 0.724306 3.29612 1.45685C2.19979 2.18939 1.34531 3.23058 0.840725 4.44876C0.336141 5.66693 0.204118 7.00738 0.461353 8.30058C0.718588 9.59379 1.35353 10.7817 2.28588 11.714C3.21823 12.6464 4.40611 13.2813 5.69932 13.5385C6.99253 13.7958 8.33297 13.6638 9.55114 13.1592C10.7693 12.6546 11.8105 11.8001 12.5431 10.7038C13.2756 9.60745 13.6666 8.31852 13.6666 6.99998C13.6666 6.1245 13.4941 5.25759 13.1591 4.44876C12.8241 3.63992 12.333 2.90499 11.714 2.28593C11.0949 1.66688 10.36 1.17581 9.55114 0.840783C8.74231 0.505751 7.8754 0.333313 6.99992 0.333313ZM6.59992 8.80665L4.45992 6.66665L5.12659 5.99998L6.59992 7.53331L9.03325 5.09998L9.66659 5.76665L6.59992 8.80665Z" fill="#009132"/>
</svg>
