<svg width="10" height="6" viewBox="0 0 10 6" fill="none" xmlns="http://www.w3.org/2000/svg">
<path fill-rule="evenodd" clip-rule="evenodd" d="M0.333431 0.689439C0.336198 0.729774 0.335865 0.740041 0.342731 0.779976C0.358232 0.86978 0.392267 0.956151 0.442269 1.03235C0.467537 1.07089 0.496938 1.10452 0.528306 1.13812L4.52848 5.1383C4.55805 5.1659 4.56478 5.1736 4.59708 5.1981C4.63335 5.2256 4.67245 5.24937 4.71359 5.26894C4.89329 5.35441 5.10654 5.35441 5.28624 5.26894C5.32738 5.24937 5.36648 5.2256 5.40275 5.1981C5.43502 5.1736 5.44178 5.1659 5.47132 5.1383L9.47149 1.13812C9.49909 1.10856 9.50682 1.10179 9.53129 1.06952C9.59559 0.984785 9.639 0.884781 9.6571 0.779976C9.66996 0.70514 9.66996 0.628237 9.6571 0.5534C9.64676 0.493564 9.62823 0.435195 9.60216 0.380359C9.50312 0.172084 9.29768 0.0270772 9.06827 0.00347614C8.9776 -0.00582426 8.88526 0.00367643 8.79839 0.0312443C8.72602 0.0542119 8.65772 0.0895798 8.59725 0.135448C8.56495 0.15995 8.55822 0.16765 8.52865 0.195251L4.9999 3.724L1.47115 0.195251L1.43788 0.164184C1.40654 0.138683 1.39924 0.131415 1.36538 0.109214C1.30191 0.0675792 1.23134 0.0369112 1.1576 0.0189438C1.0986 0.0045765 1.03766 -0.00169053 0.976993 0.000376225C0.746483 0.00824323 0.531639 0.138916 0.418601 0.339924C0.381399 0.406094 0.355632 0.478597 0.342731 0.5534C0.335865 0.593335 0.336198 0.603602 0.333431 0.643937C0.333431 0.659104 0.333431 0.674272 0.333431 0.689439Z" fill="#4D4D4D"/>
</svg>
