<svg width="30" height="25" viewBox="0 0 30 25" fill="none" xmlns="http://www.w3.org/2000/svg">
<path d="M29.25 17.4883H28.5V12.4211C28.5 11.8258 28.2609 11.2539 27.8391 10.832L23.1562 6.14922C22.7344 5.72734 22.1625 5.48828 21.5672 5.48828H19.5V3.23828C19.5 1.99609 18.4922 0.988281 17.25 0.988281H5.25C4.00781 0.988281 3 1.99609 3 3.23828V5.48828H0.375C0.16875 5.48828 0 5.65703 0 5.86328V6.61328C0 6.81953 0.16875 6.98828 0.375 6.98828H13.125C13.3313 6.98828 13.5 7.15703 13.5 7.36328V8.11328C13.5 8.31953 13.3313 8.48828 13.125 8.48828H1.875C1.66875 8.48828 1.5 8.65703 1.5 8.86328V9.61328C1.5 9.81953 1.66875 9.98828 1.875 9.98828H11.625C11.8313 9.98828 12 10.157 12 10.3633V11.1133C12 11.3195 11.8313 11.4883 11.625 11.4883H0.375C0.16875 11.4883 0 11.657 0 11.8633V12.6133C0 12.8195 0.16875 12.9883 0.375 12.9883H10.125C10.3313 12.9883 10.5 13.157 10.5 13.3633V14.1133C10.5 14.3195 10.3313 14.4883 10.125 14.4883H3V20.4883C3 22.9727 5.01562 24.9883 7.5 24.9883C9.98438 24.9883 12 22.9727 12 20.4883H18C18 22.9727 20.0156 24.9883 22.5 24.9883C24.9844 24.9883 27 22.9727 27 20.4883H29.25C29.6625 20.4883 30 20.1508 30 19.7383V18.2383C30 17.8258 29.6625 17.4883 29.25 17.4883ZM7.5 22.7383C6.25781 22.7383 5.25 21.7305 5.25 20.4883C5.25 19.2461 6.25781 18.2383 7.5 18.2383C8.74219 18.2383 9.75 19.2461 9.75 20.4883C9.75 21.7305 8.74219 22.7383 7.5 22.7383ZM22.5 22.7383C21.2578 22.7383 20.25 21.7305 20.25 20.4883C20.25 19.2461 21.2578 18.2383 22.5 18.2383C23.7422 18.2383 24.75 19.2461 24.75 20.4883C24.75 21.7305 23.7422 22.7383 22.5 22.7383ZM26.25 12.9883H19.5V7.73828H21.5672L26.25 12.4211V12.9883Z" fill="#425160"/>
</svg>
