<svg width="48" height="31" viewBox="0 0 48 31" fill="none" xmlns="http://www.w3.org/2000/svg">
<g clip-path="url(#clip0)">
<path d="M3.36845 2.29641C2.52284 2.29641 1.83733 2.96664 1.83733 3.79341V27.2066C1.83733 28.0334 2.52284 28.7036 3.36845 28.7036H44.4022C45.2479 28.7036 45.9334 28.0334 45.9334 27.2066V3.79341C45.9334 2.96664 45.2479 2.29641 44.4022 2.29641H3.36845ZM3.36845 0.5H44.4022C46.2626 0.5 47.7707 1.97451 47.7707 3.79341V27.2066C47.7707 29.0255 46.2626 30.5 44.4022 30.5H3.36845C1.5081 30.5 0 29.0255 0 27.2066V3.79341C0 1.97451 1.5081 0.5 3.36845 0.5Z" fill="white"/>
<path d="M17.9998 21.5271L20.0281 9.625H23.2723L21.2425 21.5271H17.9998Z" fill="white"/>
<path d="M32.963 9.88173C32.3203 9.6406 31.3132 9.38184 30.0554 9.38184C26.8499 9.38184 24.5918 10.9961 24.5726 13.3097C24.5545 15.0199 26.1846 15.974 27.4152 16.5433C28.6779 17.1267 29.1025 17.4988 29.0965 18.0197C29.0884 18.8175 28.0881 19.182 27.1556 19.182C25.8571 19.182 25.1673 19.0016 24.1019 18.5572L23.6838 18.368L23.2285 21.0325C23.9863 21.3647 25.3874 21.6526 26.8423 21.6675C30.2524 21.6675 32.4662 20.0717 32.4914 17.6011C32.5036 16.2472 31.6393 15.2167 29.7677 14.3673C28.6337 13.8167 27.9393 13.4493 27.9466 12.8918C27.9466 12.397 28.5344 11.868 29.8045 11.868C30.8654 11.8516 31.6338 12.0829 32.2325 12.324L32.5233 12.4614L32.963 9.88173Z" fill="white"/>
<path d="M41.3112 9.625H38.8044C38.0278 9.625 37.4467 9.83695 37.1056 10.612L32.2876 21.5195H35.6942C35.6942 21.5195 36.2513 20.0529 36.3772 19.731C36.7495 19.731 40.0589 19.7361 40.532 19.7361C40.629 20.1527 40.9267 21.5195 40.9267 21.5195H43.937L41.3112 9.625ZM37.3339 17.3104C37.6022 16.6247 38.6264 13.9833 38.6264 13.9833C38.6073 14.015 38.8927 13.2942 39.0566 12.8473L39.2759 13.8735C39.2759 13.8735 39.8971 16.7146 40.0269 17.3104H37.3339V17.3104Z" fill="white"/>
<path d="M15.2459 9.625L12.0698 17.7414L11.7314 16.092C11.1401 14.1905 9.29791 12.1305 7.2384 11.0992L10.1426 21.5082L13.575 21.5042L18.6824 9.625H15.2459Z" fill="white"/>
<path d="M9.10623 9.625H3.87502L3.83362 9.87263C7.90345 10.8578 10.5964 13.2387 11.7143 16.0993L10.5768 10.6298C10.3804 9.87616 9.81083 9.65127 9.10623 9.625Z" fill="white"/>
</g>
<defs>
<clipPath id="clip0">
<rect width="47.7707" height="30" fill="white" transform="translate(0 0.5)"/>
</clipPath>
</defs>
</svg>
