<svg width="15" height="14" viewBox="0 0 15 14" fill="none" xmlns="http://www.w3.org/2000/svg">
<path d="M7.49998 0.333313C6.18144 0.333313 4.89251 0.724306 3.79618 1.45685C2.69985 2.18939 1.84537 3.23058 1.34079 4.44876C0.836202 5.66693 0.704179 7.00738 0.961414 8.30058C1.21865 9.59379 1.85359 10.7817 2.78594 11.714C3.71829 12.6464 4.90617 13.2813 6.19938 13.5385C7.49259 13.7958 8.83303 13.6638 10.0512 13.1592C11.2694 12.6546 12.3106 11.8001 13.0431 10.7038C13.7757 9.60745 14.1666 8.31852 14.1666 6.99998C14.1666 6.1245 13.9942 5.25759 13.6592 4.44876C13.3241 3.63992 12.8331 2.90499 12.214 2.28593C11.595 1.66688 10.86 1.17581 10.0512 0.840783C9.24237 0.505751 8.37546 0.333313 7.49998 0.333313ZM7.49998 10.3333C7.37868 10.3333 7.26009 10.2973 7.15923 10.2299C7.05837 10.1626 6.97976 10.0668 6.93334 9.95469C6.88691 9.84262 6.87477 9.7193 6.89843 9.60032C6.9221 9.48135 6.98051 9.37206 7.06629 9.28629C7.15207 9.20051 7.26135 9.1421 7.38033 9.11843C7.4993 9.09477 7.62262 9.10691 7.73469 9.15333C7.84677 9.19976 7.94256 9.27837 8.00995 9.37923C8.07734 9.48009 8.11332 9.59867 8.11332 9.71998C8.11332 9.88265 8.0487 10.0386 7.93367 10.1537C7.81865 10.2687 7.66265 10.3333 7.49998 10.3333ZM7.89332 7.97998H7.10665L6.86665 3.66665H8.16665L7.89332 7.97998Z" fill="#257EE7"/>
</svg>
